if (_typeface_js && _typeface_js.loadFace) _typeface_js.loadFace({"glyphs":{"S":{"x_min":35,"x_max":667,"ha":703,"o":"m 123 257 q 121 243 123 245 q 110 241 120 241 q 97 251 98 246 q 100 259 96 257 q 111 261 104 262 q 123 257 118 261 m 64 241 q 62 232 64 238 q 51 211 61 225 q 53 196 51 200 q 59 191 55 193 q 68 189 64 190 q 81 182 73 187 q 108 174 103 172 q 123 199 112 176 q 138 211 134 208 q 152 228 141 215 q 145 241 152 238 q 139 257 139 245 q 150 254 143 257 q 164 249 157 251 l 181 241 q 226 247 205 253 q 269 241 247 241 q 300 243 282 241 q 328 257 318 245 l 328 286 l 357 286 q 374 321 371 308 q 386 357 377 335 l 386 386 q 384 395 386 393 q 380 400 383 397 l 375 403 q 372 402 375 396 q 364 418 369 409 q 354 436 359 427 q 345 445 350 445 q 301 468 322 457 q 257 491 279 479 q 177 523 213 501 q 110 580 141 545 q 89 602 98 589 q 81 638 81 615 l 81 726 q 89 770 81 749 q 110 814 98 792 q 116 836 110 825 q 123 857 123 847 q 136 867 134 857 q 139 887 139 877 q 150 896 149 887 q 152 915 152 905 l 181 945 q 204 954 193 945 q 227 974 216 964 q 242 986 235 981 q 252 992 247 990 q 257 991 257 995 q 266 1004 257 1000 q 299 1020 276 1008 l 345 1020 q 365 1030 354 1029 q 386 1032 377 1032 q 418 1038 400 1044 q 444 1032 436 1032 q 468 1021 458 1022 q 491 1020 479 1020 q 512 999 501 1008 q 533 991 523 991 q 556 970 545 978 q 579 962 568 962 q 580 952 579 957 q 584 942 581 947 q 593 932 587 936 q 594 922 591 928 q 610 903 597 911 q 627 848 619 880 q 622 785 634 816 q 609 770 618 778 q 592 757 601 762 q 572 750 583 751 q 550 756 561 749 q 527 776 537 764 q 504 799 516 787 q 483 811 494 809 q 462 814 472 814 q 441 819 449 814 q 434 814 434 825 q 411 811 419 814 q 404 799 404 809 q 396 796 397 799 q 395 789 395 793 q 394 779 395 785 q 386 767 393 773 q 388 748 386 758 q 404 738 390 738 q 424 719 412 729 q 444 709 436 709 q 440 711 442 709 q 444 727 438 715 q 468 719 451 727 q 501 699 485 711 q 528 674 518 687 q 533 650 538 661 q 518 654 529 645 q 495 673 508 662 q 469 691 483 683 q 444 696 455 700 q 466 686 458 696 q 475 667 475 676 q 451 675 465 667 q 415 696 438 683 q 395 704 406 696 q 375 727 383 713 q 368 755 368 738 q 372 790 368 772 q 384 823 376 808 q 404 845 392 838 q 424 849 412 845 q 444 845 436 854 q 483 828 468 832 q 520 814 498 825 q 535 794 530 803 q 563 785 540 785 q 598 781 586 771 q 610 814 610 792 q 606 851 610 830 q 596 890 603 871 q 577 925 589 910 q 550 945 566 940 l 504 991 q 483 997 494 1000 q 462 1003 472 993 q 424 1001 440 1003 q 386 991 408 1000 q 352 988 363 991 q 328 974 341 986 q 267 914 296 952 q 227 845 237 877 q 212 805 216 821 q 198 767 209 790 q 202 755 198 758 q 198 738 207 751 q 188 731 191 738 q 185 714 185 724 q 188 695 185 705 q 199 679 191 684 q 199 651 199 669 q 211 621 199 633 q 257 594 233 599 q 316 580 281 589 q 351 570 339 580 q 386 550 363 560 q 424 532 408 538 q 462 504 440 526 q 473 477 466 493 q 486 444 480 461 q 493 408 491 426 q 491 374 495 389 q 458 309 479 339 q 415 257 438 279 q 395 234 406 245 q 375 211 383 223 q 337 202 352 211 q 299 182 321 194 q 271 191 289 182 q 240 200 252 200 q 196 200 218 200 q 152 211 173 200 q 142 182 147 200 q 134 143 137 164 q 132 101 132 122 q 139 62 132 81 q 138 43 132 51 q 156 28 144 34 q 185 16 169 22 q 211 5 200 10 l 270 5 q 308 19 292 17 q 357 21 325 21 q 436 26 401 9 q 504 81 472 44 q 533 111 520 97 q 554 140 545 125 q 572 172 563 155 q 592 211 581 189 q 632 292 614 255 q 650 374 650 329 q 650 412 650 389 q 650 460 650 435 q 646 509 650 485 q 639 550 643 533 q 608 577 626 572 q 579 592 590 582 q 572 606 579 597 q 558 622 565 614 q 547 638 551 630 q 550 650 543 645 q 579 629 561 640 q 610 608 597 618 q 624 586 610 596 q 639 563 639 575 q 655 526 650 547 q 664 483 661 504 q 667 440 667 461 q 667 403 667 418 q 657 317 667 359 q 639 241 648 275 q 618 217 626 230 q 610 182 610 204 q 593 168 597 172 q 579 153 590 165 q 576 140 579 141 q 563 139 574 139 q 554 103 563 116 q 533 81 545 89 q 512 57 523 67 q 491 33 501 47 q 428 1 455 11 q 357 -8 401 -8 q 285 -3 325 2 q 211 -8 246 -8 q 161 3 187 -8 q 123 51 134 15 q 94 63 112 60 q 64 81 76 67 q 58 65 58 74 q 59 50 58 57 q 64 33 61 41 q 80 27 69 29 q 99 25 90 26 q 115 19 108 23 q 122 5 122 15 q 108 -1 118 -1 q 88 1 98 -1 q 71 9 79 4 q 64 21 64 14 q 38 39 41 21 q 35 80 35 58 l 35 169 l 35 211 q 37 220 35 218 q 43 225 40 222 l 51 228 q 61 239 55 232 q 72 251 66 246 q 83 259 77 257 q 93 257 88 261 q 84 243 93 245 q 64 241 76 241 m 375 1004 q 330 1009 352 1016 q 286 1003 309 1003 q 308 986 297 988 q 330 988 319 984 q 352 998 341 992 q 375 1004 363 1004 m 227 945 q 202 925 205 935 q 211 915 200 915 q 222 913 217 911 q 233 921 228 915 q 244 933 239 926 q 257 945 250 940 q 270 953 267 945 q 286 962 274 962 q 272 975 274 971 q 270 991 270 978 l 257 991 q 235 967 244 978 q 227 945 227 957 m 139 828 q 127 800 126 816 q 152 785 129 785 q 162 782 157 785 q 172 778 168 779 q 178 777 176 776 q 181 785 181 778 q 189 819 181 807 q 198 845 198 832 q 212 865 209 854 q 227 887 216 877 q 204 901 215 899 q 181 903 193 903 q 159 870 171 890 q 139 828 148 850 m 94 695 q 94 672 94 684 q 98 651 94 659 q 112 640 102 643 q 139 650 122 638 q 147 658 141 654 q 168 667 158 667 l 168 709 q 170 724 168 715 q 173 739 172 732 q 173 751 173 746 q 168 756 172 756 q 139 765 157 762 q 123 767 130 767 q 103 739 113 758 q 94 695 94 719 m 286 491 q 299 488 296 491 q 316 475 303 486 q 317 490 316 486 q 328 504 318 493 q 341 514 336 508 q 352 523 347 518 q 357 534 357 528 q 357 545 363 539 q 340 554 351 550 q 317 560 329 558 q 299 563 304 563 q 286 567 289 575 q 270 550 282 560 q 261 536 270 538 q 240 534 252 534 q 230 528 235 528 q 221 529 225 528 q 211 534 216 531 q 233 549 222 546 q 257 563 244 553 q 260 571 267 563 q 240 580 252 580 q 219 600 229 589 q 198 621 209 611 q 181 641 185 633 q 168 650 178 650 q 140 629 146 640 q 123 608 134 618 q 157 570 139 586 q 193 539 174 553 q 236 513 213 525 q 286 491 258 502 m 316 475 q 342 466 330 475 q 364 447 354 457 q 384 431 375 437 q 404 432 393 425 q 424 437 412 432 q 444 432 436 442 q 450 429 451 432 q 443 423 448 426 q 430 418 437 421 q 415 416 422 416 q 405 406 406 416 q 404 374 404 396 q 409 359 408 367 q 411 347 409 351 q 418 340 414 342 q 434 345 422 337 q 440 342 438 345 q 446 340 443 340 q 452 342 449 339 q 462 357 455 346 q 473 380 472 370 q 475 403 475 390 q 469 436 475 418 q 455 471 464 454 q 437 501 447 487 q 415 521 426 514 q 395 531 406 531 q 375 521 383 531 q 350 497 361 508 q 316 475 339 486 m 386 298 q 381 291 386 294 q 371 286 376 288 q 361 279 366 283 q 357 269 357 274 q 413 276 393 259 q 434 316 434 293 l 415 316 q 406 317 411 316 q 396 318 401 318 q 388 314 391 318 q 386 298 386 310 m 286 228 q 328 210 308 205 q 357 228 348 215 q 371 247 371 238 q 357 257 371 257 q 337 247 348 257 q 316 228 325 238 l 286 228 m 240 228 q 198 233 218 228 q 168 228 178 238 q 189 213 178 215 q 211 211 200 211 q 245 209 233 211 q 257 199 257 208 q 262 200 259 199 q 270 211 270 202 q 256 219 259 211 q 240 228 252 228 m 122 153 q 87 162 100 153 q 51 182 73 172 q 57 152 61 172 q 64 110 54 132 q 80 88 64 96 q 110 81 97 81 q 116 116 110 103 q 122 153 122 130 "},"/":{"x_min":35.390625,"x_max":651,"ha":686,"o":"m 73 34 q 60 43 62 34 q 58 61 58 52 q 47 91 53 78 q 37 117 41 104 q 35 142 34 129 q 46 169 37 154 q 85 250 66 209 q 112 330 104 290 q 151 404 131 370 q 194 479 172 438 q 214 514 204 501 q 236 545 224 526 q 243 593 236 565 q 262 641 251 622 q 295 700 281 669 q 328 761 309 730 q 382 841 361 801 q 425 922 404 882 q 443 957 433 943 q 462 992 453 972 q 471 1014 462 1000 q 488 1029 480 1029 q 510 1023 499 1029 q 533 1018 521 1018 q 572 999 552 1007 q 612 992 592 992 q 618 964 612 980 q 625 938 625 947 q 626 928 625 933 q 640 911 629 919 q 645 909 642 911 q 651 896 651 906 q 638 858 646 876 q 618 823 629 840 q 598 787 607 805 q 585 750 589 769 q 551 670 565 708 q 517 600 537 632 q 496 566 506 579 q 477 534 486 554 q 456 500 466 515 q 435 463 446 486 q 395 403 416 436 q 355 330 374 370 q 289 197 327 261 q 220 61 251 133 q 199 18 211 40 q 164 -4 186 -4 q 135 3 145 -4 q 112 22 124 11 q 93 28 104 22 q 73 34 82 34 m 625 896 q 585 910 603 906 q 559 922 567 913 q 563 904 559 913 q 559 896 567 896 q 536 904 539 896 q 533 922 533 913 q 521 933 527 932 q 512 931 516 934 q 506 921 508 927 q 504 911 504 915 q 483 871 493 891 q 462 829 473 851 q 402 700 434 769 q 328 561 369 630 q 267 432 298 498 q 209 304 237 365 q 168 229 188 262 q 129 157 148 197 q 119 128 129 144 q 102 104 109 111 q 99 83 102 92 q 85 61 97 74 q 101 48 97 52 q 112 34 104 45 q 133 28 124 34 q 155 22 142 22 q 179 25 174 22 q 194 49 184 29 q 223 109 204 78 q 262 169 242 140 q 295 237 281 201 q 328 304 309 273 q 364 372 348 336 q 409 437 380 409 q 439 500 420 469 q 477 572 457 532 q 495 595 486 583 q 504 626 504 607 q 524 654 515 637 q 533 679 533 670 q 570 755 552 721 q 596 829 588 789 q 609 843 602 834 q 622 863 616 852 q 629 882 627 873 q 625 896 630 891 m 612 911 q 607 941 612 924 q 593 969 602 957 q 571 989 584 982 q 544 992 559 996 q 539 964 544 980 q 544 938 535 947 q 552 928 544 932 q 572 923 560 925 q 595 918 584 920 q 612 911 606 915 m 489 1003 q 483 984 489 994 q 477 965 477 973 q 478 946 477 954 q 489 938 480 938 l 504 950 l 517 950 q 521 965 523 959 q 516 975 520 971 q 508 982 512 979 q 504 992 504 986 q 509 997 508 994 q 504 1003 512 1003 l 489 1003 m 462 938 q 443 915 453 926 q 425 884 433 904 q 426 857 425 873 q 435 829 427 840 q 456 862 446 851 q 477 884 466 873 q 469 915 477 904 q 462 938 462 926 m 409 843 q 391 826 397 837 q 384 801 385 815 q 388 773 382 787 q 409 750 393 759 q 417 771 409 758 q 425 803 425 783 q 427 812 429 807 q 421 821 425 816 q 413 832 417 826 q 409 843 409 837 m 371 776 q 349 735 359 757 q 328 694 339 714 q 343 673 339 683 q 355 653 346 663 q 376 692 366 672 q 396 735 385 712 q 371 776 371 735 m 318 668 q 312 654 318 662 q 302 640 307 647 q 293 626 298 633 q 289 615 289 619 q 297 582 289 594 q 318 561 306 569 q 325 593 318 580 q 344 626 333 607 q 348 641 344 637 q 344 653 352 644 q 329 660 333 653 q 318 668 326 668 m 273 572 q 254 551 264 564 q 236 519 244 539 q 244 504 240 515 q 254 486 249 494 q 264 478 259 479 q 273 493 268 477 q 288 514 284 504 q 302 534 291 523 q 287 553 302 543 q 273 572 273 564 m 236 493 q 215 469 224 482 q 194 437 205 457 q 203 412 194 429 q 220 384 212 395 q 239 412 231 395 q 247 437 247 429 q 251 450 252 443 q 247 466 251 458 q 240 480 244 473 q 236 493 236 487 m 182 411 q 165 372 169 391 q 155 345 162 354 q 162 313 155 326 q 182 293 169 301 q 195 324 182 312 q 209 356 209 337 q 211 370 213 362 q 204 385 209 377 q 192 400 199 393 q 182 411 186 406 m 138 319 q 119 293 129 309 q 107 259 110 276 q 108 229 104 242 q 129 211 112 215 q 145 225 135 211 q 155 248 155 240 q 163 263 162 259 q 165 277 165 266 q 154 298 157 288 q 138 319 150 308 m 85 211 q 75 178 81 195 q 64 143 69 160 q 62 112 60 126 q 73 88 63 97 q 93 122 82 107 q 112 157 104 137 q 118 175 112 166 q 112 185 124 185 q 101 196 104 193 q 85 211 97 200 "},"K":{"x_min":36,"x_max":810.015625,"ha":846,"o":"m 710 224 q 757 142 735 186 q 789 63 778 98 q 809 18 805 40 q 789 -18 813 -3 q 757 -31 778 -31 q 710 -31 735 -31 q 640 -11 673 -31 q 584 32 608 8 q 558 77 569 55 q 533 109 546 99 q 509 156 521 134 q 486 192 497 178 q 464 214 473 202 q 455 238 455 227 q 444 255 448 244 q 440 273 440 265 q 444 282 440 281 q 455 270 448 282 q 478 239 466 258 q 501 205 490 220 q 519 189 513 200 q 530 167 526 178 q 539 145 535 155 q 551 129 544 134 q 588 82 576 105 q 615 45 601 59 q 654 11 640 22 q 692 1 669 1 l 776 1 q 789 18 788 5 q 786 47 791 31 q 773 76 781 62 q 758 97 764 90 q 729 150 745 126 q 694 197 712 174 q 658 242 675 220 q 630 288 641 264 q 599 335 619 313 q 565 366 580 356 q 539 415 553 391 q 501 463 524 439 q 479 500 489 478 q 469 545 469 521 q 487 592 469 570 q 519 625 505 614 q 581 719 553 673 q 648 804 609 765 q 684 833 671 813 q 710 868 696 854 q 724 881 716 873 q 735 898 731 889 q 739 916 739 907 q 726 932 739 925 q 695 944 715 944 q 660 944 676 944 q 645 942 656 944 q 622 940 634 941 q 599 939 610 939 q 584 946 588 939 q 573 929 578 936 q 562 917 567 922 q 551 912 556 912 q 540 915 544 912 q 535 920 537 918 q 533 920 533 922 q 533 912 533 919 q 518 892 521 902 q 501 882 514 882 q 491 855 495 869 q 481 828 487 841 q 464 802 474 814 q 436 784 454 791 q 445 809 436 799 q 455 834 455 820 q 444 854 455 845 q 423 850 433 863 q 399 831 409 850 q 390 804 390 813 q 405 801 400 804 q 423 784 409 799 l 436 784 q 436 760 442 778 q 417 721 430 742 q 392 682 405 701 q 372 657 378 663 q 366 639 372 651 q 353 621 360 627 q 339 616 347 614 q 326 643 331 619 q 317 672 319 655 q 318 706 316 688 q 323 741 320 724 q 326 770 326 758 q 323 815 326 794 q 319 858 320 837 q 318 900 318 879 q 326 946 318 922 q 315 973 326 963 q 292 984 305 982 q 265 981 279 986 q 244 963 251 975 q 231 954 238 955 q 214 952 223 952 q 196 952 205 952 q 180 946 187 952 q 174 939 170 946 q 180 932 175 934 l 180 867 l 180 674 l 180 578 l 180 482 q 165 387 169 434 q 147 304 160 341 q 153 206 147 254 q 147 109 160 158 q 147 94 147 105 q 149 71 147 83 q 154 48 151 59 q 165 32 158 37 q 204 29 190 32 q 244 14 219 27 q 277 9 258 14 q 306 14 297 4 q 323 72 323 37 q 323 142 323 108 q 330 215 323 180 q 326 288 337 250 q 326 324 326 300 q 330 366 326 347 q 345 394 335 386 q 372 385 355 402 q 411 342 396 370 q 436 288 426 313 q 408 305 419 294 q 391 328 398 316 q 377 351 384 340 q 358 366 370 362 q 349 255 358 308 q 340 142 340 203 l 340 32 q 325 9 329 18 q 306 1 321 1 l 244 1 l 198 1 q 172 6 184 11 q 146 1 160 1 q 117 9 135 1 q 83 32 98 18 q 50 63 59 44 q 38 106 40 83 q 36 156 36 130 q 36 205 36 181 q 36 304 36 253 q 51 418 36 355 l 51 514 q 59 515 55 514 q 69 529 69 518 q 63 540 62 534 q 69 548 64 545 q 78 551 73 551 q 83 545 83 551 q 101 508 83 522 q 133 495 119 495 q 149 497 145 495 q 151 505 152 500 q 149 517 151 511 q 147 529 147 523 q 149 552 147 541 q 165 579 151 563 l 165 689 q 117 702 141 689 q 69 738 94 715 q 63 722 62 731 q 67 703 64 713 q 72 681 70 693 q 69 657 74 669 q 75 654 74 657 q 76 647 76 651 q 76 637 76 643 q 83 625 77 632 q 106 609 98 614 q 115 592 115 605 l 147 592 q 152 580 160 581 q 133 579 144 579 q 115 581 121 579 q 101 585 108 583 q 88 589 95 587 q 69 592 81 592 q 76 586 74 592 q 79 575 79 581 q 76 564 79 569 q 69 559 74 559 q 62 574 64 567 q 60 586 59 581 q 69 592 62 592 q 53 625 55 605 q 51 657 51 645 l 51 804 q 45 849 40 827 q 51 882 51 870 l 51 912 q 73 918 64 926 q 83 900 83 909 q 76 873 83 886 q 69 834 69 859 l 69 753 q 91 753 81 759 q 110 737 101 747 q 132 717 120 727 q 165 708 145 708 l 165 770 q 154 784 165 781 q 133 804 144 788 q 117 811 125 807 q 101 818 109 814 q 88 830 94 823 q 83 850 83 837 q 102 844 95 850 q 114 832 109 838 q 127 820 120 825 q 147 815 134 815 q 153 821 153 811 q 153 847 153 831 q 149 877 152 862 q 147 900 147 893 q 135 915 147 904 q 112 938 123 926 q 95 960 101 949 q 102 977 89 971 q 115 968 112 977 q 133 946 119 959 q 147 940 142 934 q 165 946 151 946 q 172 962 165 959 q 180 977 180 965 q 187 985 193 977 q 180 996 184 990 q 171 1011 174 1007 q 164 1015 167 1015 q 157 1012 160 1015 q 147 1009 153 1009 q 141 1019 138 1009 q 147 1029 142 1023 q 172 1039 160 1038 q 198 1041 184 1041 l 244 1041 q 257 1036 251 1041 q 269 1025 263 1031 q 281 1014 274 1019 q 294 1009 287 1009 q 304 1012 298 1009 q 314 1017 309 1015 q 322 1017 319 1019 q 326 1009 326 1016 q 334 1004 331 1009 q 338 991 337 998 q 340 976 340 984 q 340 963 340 968 l 340 770 q 357 800 353 781 q 372 834 360 820 q 376 846 372 840 q 387 861 381 852 q 399 878 394 869 q 405 900 405 887 q 418 930 412 912 q 435 967 424 948 q 460 998 445 985 q 501 1011 476 1011 q 567 1011 538 1011 q 630 1029 595 1011 q 667 1023 653 1029 q 687 1008 680 1017 q 698 987 694 998 q 710 963 703 975 q 734 946 722 949 q 758 932 747 942 q 749 893 758 908 q 726 868 740 879 q 702 836 715 842 q 680 815 689 830 q 663 803 665 806 q 661 784 661 799 q 647 763 651 773 q 630 753 644 753 q 608 718 617 736 q 587 684 598 701 q 565 652 577 668 q 533 625 552 637 q 526 595 533 608 q 511 569 519 581 q 499 543 503 556 q 501 514 495 530 q 519 474 501 489 q 551 449 537 460 q 565 411 562 426 q 584 385 569 396 q 646 302 619 347 q 710 224 673 258 m 69 288 q 66 261 69 275 q 62 232 63 246 q 60 207 60 218 q 69 192 60 196 q 99 165 80 169 q 132 161 118 161 l 132 238 q 94 256 109 238 q 69 288 80 274 m 133 63 q 130 77 133 69 q 125 96 127 86 q 124 118 124 106 q 133 142 124 130 q 99 139 119 131 q 69 161 80 147 q 60 136 60 148 q 62 114 60 124 q 66 95 63 104 q 69 79 69 86 q 76 63 69 73 q 94 46 84 52 q 115 42 105 40 q 133 63 126 44 m 133 354 q 106 362 119 354 q 69 385 94 370 l 69 304 q 80 298 74 304 q 94 286 87 292 q 112 274 102 279 q 133 270 122 270 l 133 354 m 133 385 q 141 395 138 385 q 145 418 144 405 q 147 444 147 431 q 147 463 147 457 q 110 474 123 463 q 83 495 98 485 q 76 450 83 471 q 69 418 69 428 q 88 412 81 418 q 101 400 95 407 q 115 389 108 394 q 133 385 121 385 m 262 996 q 267 1007 274 1001 q 245 1018 261 1014 q 210 1022 229 1022 q 180 1009 191 1022 q 201 1002 191 1009 q 220 989 211 996 q 240 983 230 983 q 262 996 249 983 m 405 738 q 395 775 405 762 q 372 804 385 788 l 372 753 q 357 729 360 741 q 340 708 353 717 q 334 673 340 693 q 340 643 329 654 q 365 673 353 654 q 390 708 376 693 q 396 727 390 717 l 405 738 m 486 868 q 490 891 486 880 q 500 913 495 902 q 506 931 505 923 q 501 946 507 940 q 499 963 501 959 q 486 977 496 966 l 469 963 q 447 929 458 949 q 436 900 436 909 q 448 884 442 893 q 461 870 455 876 q 473 862 467 863 q 486 868 478 861 m 597 964 q 602 972 610 964 q 584 996 594 981 q 566 996 577 996 q 544 993 555 996 q 526 987 534 991 q 519 977 519 984 q 542 950 530 954 q 565 946 553 946 q 578 953 571 952 q 588 954 584 954 q 594 955 592 954 q 597 964 597 956 m 630 996 q 628 975 624 982 q 642 966 633 969 q 662 963 651 963 q 680 963 673 963 q 666 997 680 987 q 630 996 653 1007 m 69 932 q 53 949 55 932 q 51 977 51 966 q 59 990 51 984 q 78 1000 67 996 q 99 1007 88 1004 q 115 1009 110 1009 q 125 1017 121 1016 q 131 1015 128 1017 q 133 1006 133 1012 q 133 996 133 1001 q 108 993 119 996 q 83 977 98 991 q 69 966 70 971 q 69 954 67 960 q 72 943 70 948 q 69 932 74 937 m 372 753 q 374 759 372 757 q 390 753 377 762 l 372 753 "},"7":{"x_min":35,"x_max":718.5625,"ha":754,"o":"m 234 1024 q 279 1030 256 1024 q 325 1036 303 1036 l 419 1036 q 455 1036 434 1036 q 492 1024 476 1036 l 532 1024 l 587 1024 q 605 1029 595 1029 q 626 1029 616 1029 q 645 1027 637 1029 q 657 1025 654 1025 q 669 1010 666 1018 q 678 995 671 1002 q 695 989 688 986 q 712 983 702 993 l 712 975 q 715 934 723 967 q 694 864 707 902 q 666 792 681 826 q 649 747 651 758 q 624 693 634 722 q 608 643 614 665 q 602 611 608 627 q 589 581 596 595 q 575 553 582 566 q 566 528 568 540 q 547 466 556 495 q 524 415 539 437 q 522 384 524 400 q 513 353 521 368 q 499 321 506 337 q 492 290 492 305 q 467 234 476 258 q 450 186 458 209 q 430 124 443 154 q 409 62 417 94 q 402 32 409 47 q 388 8 396 18 q 382 -3 388 -7 q 367 0 377 0 l 338 0 l 283 0 l 221 0 q 220 -15 221 -9 q 212 -21 219 -21 q 196 -6 203 -14 q 181 8 189 1 q 165 51 165 23 q 171 104 165 79 q 190 144 178 126 q 212 186 203 162 q 232 243 219 218 q 254 298 244 268 q 274 347 261 323 q 296 403 286 371 q 312 465 303 434 q 337 528 322 495 q 358 590 344 560 q 388 651 372 620 q 399 678 396 666 q 409 705 401 690 q 420 734 417 720 q 429 755 422 748 q 351 776 392 765 q 263 787 310 787 q 226 787 247 787 q 181 777 204 787 q 139 777 157 777 q 98 789 121 777 q 72 794 90 789 q 48 808 54 799 q 42 827 42 816 q 42 850 42 838 q 45 872 42 861 q 48 891 48 883 l 48 922 q 41 938 48 930 q 35 954 35 946 q 41 963 35 961 q 48 975 48 965 q 52 991 48 982 q 56 1017 56 1001 q 148 1021 103 1021 q 234 1024 193 1021 m 192 1017 q 145 1006 169 1006 q 98 1006 121 1006 q 111 988 102 997 q 131 970 120 978 q 153 954 142 961 q 171 943 163 947 l 221 943 l 275 943 q 250 958 260 951 q 234 975 240 965 q 215 1003 223 990 q 192 1017 207 1017 m 76 1004 q 58 979 61 997 q 56 954 56 961 q 81 937 71 946 q 98 943 90 927 q 115 947 106 951 q 139 943 124 943 q 108 973 124 958 q 76 1004 92 989 m 88 860 q 95 869 96 864 q 87 880 93 875 q 72 888 81 885 q 56 892 64 892 q 57 871 56 883 q 67 860 58 860 q 76 855 71 857 q 88 860 88 853 m 98 829 q 76 835 82 829 q 56 850 71 841 q 65 815 49 826 q 98 797 82 805 l 98 829 m 429 713 q 420 692 422 706 q 409 664 417 678 q 429 653 424 664 q 450 643 435 643 q 458 641 455 638 q 465 649 461 644 q 469 662 468 655 q 471 672 471 669 q 429 713 457 702 m 450 768 q 447 722 435 736 q 482 692 458 708 q 496 720 489 708 q 503 747 503 731 q 508 765 510 762 q 492 768 507 768 l 450 768 m 409 651 q 391 626 401 636 q 388 601 381 616 q 399 580 388 593 q 420 560 411 566 q 432 566 428 560 q 438 582 436 573 q 441 598 441 590 q 441 611 441 607 q 432 631 448 619 q 409 651 417 644 m 346 518 q 341 499 346 509 q 332 477 337 489 q 325 454 327 465 q 325 436 322 444 q 340 429 334 436 q 346 415 346 422 q 362 398 355 400 q 380 403 369 396 q 388 414 386 403 q 399 436 390 426 q 396 452 399 447 q 392 459 394 456 q 386 461 389 461 q 380 465 382 462 q 357 488 369 473 q 346 518 346 502 q 364 511 359 523 q 367 497 367 505 q 382 478 377 489 q 388 476 388 468 q 402 486 396 483 q 409 497 409 489 q 418 523 417 512 q 420 549 420 533 q 407 553 411 549 q 399 565 403 558 q 390 579 394 572 q 380 590 386 586 q 363 550 369 566 q 346 518 356 533 m 305 394 q 316 372 305 384 q 337 353 328 359 q 346 348 344 353 q 359 353 348 343 q 363 366 359 359 q 367 373 364 371 q 343 398 351 389 q 325 423 334 408 q 316 409 318 416 q 305 394 314 401 m 305 373 q 290 355 297 364 q 284 332 284 347 q 295 315 293 322 q 305 298 297 308 q 337 298 321 287 q 337 340 350 327 q 316 357 327 350 q 305 373 305 364 m 275 311 q 263 279 265 295 q 254 249 261 264 q 263 251 261 255 q 275 237 265 246 q 278 228 275 233 q 287 221 282 223 q 297 218 292 218 q 305 228 302 219 q 313 248 305 235 q 317 269 322 261 q 310 283 317 276 q 296 290 303 290 q 289 304 296 297 q 275 311 282 311 m 242 249 q 232 217 242 233 q 234 186 223 201 q 250 166 240 177 q 275 154 260 154 q 283 161 282 154 q 284 175 284 168 q 291 194 293 190 q 275 207 290 198 q 267 213 271 207 q 258 228 263 219 q 250 242 254 236 q 242 249 246 249 m 221 175 q 206 143 214 159 q 192 112 199 127 q 208 83 199 97 q 234 62 218 69 q 263 133 263 91 q 243 154 256 141 q 221 175 230 168 m 212 0 q 226 25 219 15 q 234 50 234 35 q 208 62 218 50 q 192 83 199 73 q 183 41 177 68 q 212 0 189 15 m 691 933 q 689 951 691 948 q 678 954 688 954 q 632 948 655 954 q 586 943 609 943 q 553 948 571 943 q 512 954 536 954 q 481 947 497 954 q 441 933 464 940 l 296 933 q 265 929 281 933 q 234 933 249 924 l 171 933 q 140 932 156 933 q 109 922 124 930 q 82 918 93 915 q 56 922 71 922 q 62 908 56 915 q 76 902 69 902 q 88 903 85 894 q 97 913 90 913 q 102 904 102 913 q 102 885 103 896 q 99 864 100 873 q 98 850 98 854 q 107 828 106 841 q 109 808 109 815 q 120 791 115 793 q 139 789 124 789 q 201 793 171 789 q 262 797 231 797 q 321 791 294 797 q 380 776 347 785 l 450 776 q 487 780 465 776 q 524 777 508 785 q 527 769 526 777 q 526 754 528 762 q 520 737 524 745 q 513 726 517 729 q 506 709 513 716 q 492 692 500 702 l 492 672 q 483 666 484 672 q 482 651 482 661 q 469 640 473 651 q 471 622 464 629 q 466 611 471 613 q 462 601 462 608 q 445 554 453 577 q 429 507 438 530 q 414 460 422 483 q 399 415 406 437 q 378 367 390 390 q 359 319 365 344 q 340 274 348 297 q 317 228 332 251 q 300 175 307 204 q 284 125 293 147 q 258 70 268 100 q 234 7 249 40 l 275 7 l 305 7 q 325 7 313 7 q 349 7 337 7 q 370 9 361 7 q 380 21 380 12 q 394 56 386 36 q 409 91 401 76 q 420 139 417 116 q 429 186 422 162 q 460 258 445 225 q 491 332 476 291 q 503 372 500 354 q 513 415 505 390 q 528 452 521 430 q 544 497 535 473 q 553 533 551 512 q 566 569 556 554 q 583 602 572 584 q 595 643 595 619 q 617 706 605 674 q 637 776 630 738 q 647 802 637 791 q 657 829 657 813 q 674 869 666 852 q 691 902 681 886 l 691 933 m 649 1017 q 607 1020 624 1023 q 573 1017 589 1017 q 580 992 573 1001 q 594 975 587 982 q 619 964 604 965 q 648 963 633 963 q 665 964 655 963 q 691 975 675 965 l 699 975 q 690 978 692 982 q 678 975 688 975 q 659 994 662 982 q 649 1017 655 1007 m 409 1017 q 435 988 417 1001 q 462 954 453 976 q 523 961 493 961 q 587 961 554 961 q 576 984 587 972 q 566 1004 566 997 q 544 1004 544 1025 q 519 1010 529 1004 q 503 1017 510 1017 q 513 995 503 1001 q 524 975 524 990 q 510 975 515 970 q 498 986 504 979 q 489 1003 493 994 q 482 1017 486 1012 l 409 1017 m 325 1017 q 334 994 325 1007 q 359 975 343 981 q 371 968 367 972 q 367 954 379 959 q 347 959 359 954 q 325 975 334 965 q 324 989 325 982 q 317 996 323 996 q 311 1005 307 1001 q 305 1025 314 1010 q 269 1016 289 1018 q 234 1004 249 1014 q 238 993 234 1001 q 249 977 243 984 q 263 965 255 969 q 275 963 270 960 q 281 964 278 967 q 286 957 285 962 q 286 948 288 953 q 275 945 284 943 q 362 945 322 945 q 450 954 403 945 q 429 979 443 969 q 399 1004 414 989 q 388 1015 390 1014 q 379 1017 386 1017 l 325 1017 "},"d":{"x_min":37,"x_max":844,"ha":879,"o":"m 823 992 q 821 942 823 966 q 806 908 819 919 q 796 854 806 880 q 787 799 787 827 q 780 745 787 772 q 773 692 773 719 q 760 644 773 663 q 736 601 748 625 q 714 492 722 546 q 699 384 706 438 q 685 276 692 330 q 665 169 677 223 q 645 104 650 141 q 629 26 641 68 q 600 13 613 15 q 571 11 586 11 q 546 0 560 11 q 520 -10 533 -10 q 481 -6 499 -10 q 446 0 463 -3 q 413 7 430 4 q 377 11 396 11 l 320 11 q 306 13 315 11 q 289 21 298 16 q 275 32 281 26 q 270 45 270 38 q 289 35 279 39 q 320 26 309 26 l 413 26 q 447 18 425 26 q 485 11 468 11 q 527 18 512 11 q 558 26 542 26 q 599 37 584 26 q 620 66 614 49 q 627 101 627 83 q 627 133 627 120 q 654 232 641 186 q 681 331 667 278 q 681 421 681 371 q 700 514 681 470 q 726 591 712 551 q 752 672 740 631 q 779 853 767 768 q 808 1030 791 938 q 808 1061 808 1042 q 804 1096 808 1080 q 789 1125 801 1113 q 752 1137 778 1137 q 726 1131 740 1137 q 700 1137 712 1125 q 696 1115 700 1123 q 689 1103 692 1107 q 682 1094 685 1098 q 679 1085 679 1091 q 672 1066 679 1070 q 665 1051 665 1062 q 672 1048 667 1051 q 676 1041 674 1045 q 679 1030 679 1037 q 672 1019 674 1024 q 665 992 665 1008 q 648 958 650 981 q 646 908 646 934 q 636 901 638 908 q 631 886 633 895 q 629 867 629 877 q 629 850 629 858 q 602 788 613 823 q 591 727 591 754 q 588 690 591 712 q 571 655 586 667 q 563 648 566 655 q 559 634 560 642 q 558 616 558 625 q 558 601 558 606 q 550 579 549 587 q 552 566 551 571 q 551 556 553 560 q 537 547 549 552 l 448 547 q 366 542 406 547 q 285 514 327 538 q 310 502 300 508 q 323 495 319 498 q 320 493 327 493 q 298 488 307 485 q 279 492 288 490 q 264 492 271 494 q 250 476 258 490 q 232 466 237 476 q 213 457 227 457 l 199 440 q 177 422 185 431 q 164 402 168 412 q 154 383 159 392 q 143 369 149 374 q 140 346 143 355 q 134 331 137 338 q 128 317 131 324 q 126 297 126 309 l 126 241 q 120 229 126 235 q 108 219 114 223 q 96 217 102 216 q 91 226 91 217 q 98 251 91 237 q 105 276 105 264 q 80 294 93 291 q 55 297 67 297 q 57 259 55 281 q 71 226 59 237 q 71 206 71 212 q 73 199 71 201 q 80 195 76 197 q 91 189 84 194 q 97 194 96 189 q 98 203 98 199 q 98 204 98 206 q 105 188 99 202 q 122 183 113 188 q 137 171 131 177 q 141 159 142 165 q 126 154 140 154 q 117 133 113 145 q 132 110 121 122 q 157 90 144 98 q 177 82 171 82 q 190 78 185 82 q 198 71 195 75 q 205 64 202 68 q 213 61 207 61 q 231 59 223 61 q 244 54 238 58 q 250 45 250 51 q 215 30 237 30 q 177 45 194 30 q 162 58 166 56 q 143 61 157 61 l 105 61 q 73 85 86 69 q 53 121 61 101 q 41 163 45 141 q 37 203 37 184 q 37 310 37 258 q 55 404 37 362 q 60 428 55 417 q 74 448 66 438 q 91 468 83 458 q 105 493 99 479 q 119 527 105 508 q 162 547 134 547 q 182 571 167 560 q 216 587 198 581 q 252 597 234 594 q 285 601 271 601 l 377 601 q 411 605 388 601 q 448 634 434 609 q 471 665 458 649 q 485 707 485 680 l 485 727 q 499 751 496 738 q 500 762 500 756 q 500 786 500 776 q 502 806 500 797 q 509 827 505 816 q 521 850 513 837 l 521 887 q 535 915 533 902 q 537 943 537 927 q 556 1021 549 976 q 575 1112 563 1067 q 610 1194 587 1158 q 679 1245 633 1231 q 726 1243 706 1245 q 773 1229 745 1241 q 795 1209 784 1229 q 806 1175 806 1190 q 819 1152 812 1160 q 831 1137 826 1144 q 840 1122 837 1130 q 844 1101 844 1114 q 841 1046 844 1073 q 823 992 838 1020 m 105 118 q 102 132 105 123 q 95 149 99 141 q 85 163 91 157 q 72 169 78 169 q 75 154 72 163 q 83 137 78 145 q 94 123 88 129 q 105 118 99 118 m 126 348 q 121 390 126 376 q 91 404 117 404 q 78 384 84 397 q 70 358 71 372 q 73 332 69 345 q 91 312 77 319 q 99 309 96 306 q 105 318 102 312 q 113 333 109 324 q 126 348 117 341 m 250 514 q 235 538 237 525 q 233 563 233 551 q 150 515 180 551 q 105 440 120 480 q 117 422 105 424 q 143 419 130 419 q 162 439 157 434 q 177 457 166 444 q 163 470 171 463 q 150 484 155 477 q 147 498 145 491 q 162 514 148 505 q 164 516 162 519 q 172 508 167 514 q 184 497 177 502 q 199 493 191 493 q 214 489 210 480 q 233 514 217 498 l 250 514 m 305 547 q 331 558 319 552 q 349 569 341 563 q 358 584 358 575 l 250 584 q 252 564 250 568 q 270 547 255 559 q 272 538 270 540 q 280 539 275 537 q 291 544 285 541 q 305 547 298 547 m 413 585 q 449 569 425 569 q 500 585 472 569 q 489 594 495 589 q 477 604 483 598 q 463 617 471 610 q 438 595 452 605 q 413 585 425 585 m 558 655 q 545 679 558 667 q 521 692 533 692 q 507 671 514 685 q 500 645 501 658 q 503 619 498 631 q 521 601 508 606 q 537 626 533 613 q 558 655 542 639 m 591 779 q 537 836 591 836 q 529 817 529 827 q 531 797 529 808 q 535 777 533 787 q 537 762 537 768 q 533 721 525 736 q 558 707 542 707 q 566 744 558 722 q 591 779 575 766 m 608 908 q 597 931 608 919 q 571 943 587 943 q 561 913 566 930 q 556 883 556 897 q 563 859 556 869 q 591 850 570 850 q 593 879 591 865 q 608 908 595 892 m 629 992 q 628 1015 629 1006 q 624 1028 627 1023 q 612 1037 620 1033 q 591 1051 605 1042 q 580 1021 584 1037 q 578 989 577 1005 q 586 961 579 973 q 608 943 593 948 q 626 967 623 954 q 629 992 629 981 m 646 1064 q 651 1109 661 1092 q 629 1137 641 1125 q 607 1131 615 1137 q 597 1117 599 1125 q 598 1100 595 1109 q 608 1085 601 1091 q 620 1062 608 1070 q 646 1064 633 1053 m 700 1175 q 700 1208 666 1208 q 682 1206 691 1206 q 665 1203 673 1206 q 651 1194 657 1201 q 646 1175 646 1187 q 656 1155 651 1163 q 667 1142 662 1148 q 679 1137 673 1137 q 681 1163 679 1152 q 700 1175 684 1175 m 736 1175 q 742 1165 736 1167 q 756 1160 748 1162 q 773 1158 764 1158 q 787 1158 781 1158 q 765 1196 787 1185 q 716 1208 743 1208 q 718 1194 716 1198 q 736 1175 720 1190 m 413 348 q 430 339 426 348 q 434 318 434 331 q 432 290 434 305 q 430 260 430 274 l 430 226 q 416 206 423 212 q 400 199 409 201 q 381 195 392 197 q 358 188 370 194 q 334 200 344 188 q 319 229 324 212 q 315 264 315 245 q 320 297 315 283 q 360 335 335 323 q 413 348 385 348 m 392 241 q 410 278 407 256 q 413 312 413 301 q 375 311 392 319 q 348 289 359 303 q 335 256 338 274 q 341 226 333 238 q 362 223 355 226 q 375 219 370 220 q 383 223 380 219 q 392 241 386 227 "},",":{"x_min":35.0625,"x_max":229.59375,"ha":265,"o":"m 177 216 q 188 214 182 216 q 199 205 199 212 q 226 146 219 183 q 227 83 232 110 q 225 55 227 67 q 217 32 224 42 q 211 20 217 27 q 206 4 206 13 l 206 -41 q 197 -65 203 -52 q 183 -90 192 -78 q 160 -109 174 -101 q 131 -117 147 -117 q 106 -107 122 -117 q 84 -98 89 -98 q 71 -99 76 -102 q 60 -92 65 -96 q 49 -83 54 -88 q 37 -79 43 -79 q 47 -55 37 -63 q 64 -31 57 -47 q 73 -17 64 -25 q 83 4 83 -8 q 78 20 83 13 q 74 32 74 27 q 64 49 66 42 q 56 62 62 56 q 51 73 56 70 q 46 90 46 77 q 38 107 39 99 q 37 130 37 114 q 37 157 32 144 q 50 182 42 170 q 70 202 59 193 q 91 216 81 211 q 121 227 107 221 q 149 233 135 233 q 164 223 157 225 q 177 216 171 221 m 149 216 q 131 218 142 216 q 120 216 120 221 q 134 208 120 208 q 149 216 149 208 m 113 216 q 106 215 113 218 q 93 205 100 212 l 74 189 q 78 177 74 178 q 84 176 80 176 q 96 173 89 168 q 103 189 103 178 q 114 197 115 194 q 113 216 113 201 m 64 166 q 53 151 57 166 q 56 130 49 137 q 61 134 58 131 q 66 137 64 136 q 74 139 69 139 q 76 146 74 141 q 78 155 78 151 q 76 162 79 159 q 64 166 74 166 m 56 90 q 69 83 62 77 q 84 90 76 90 q 78 103 84 98 q 74 109 75 106 q 68 120 74 124 q 56 109 62 116 l 56 90 m 74 62 q 76 52 74 56 q 90 55 78 48 q 99 68 100 60 q 84 83 99 76 q 79 73 84 76 q 74 62 74 70 m 113 16 q 127 32 127 16 q 113 55 127 48 q 98 48 106 55 q 91 32 91 42 q 93 21 91 27 q 113 16 96 16 m 120 -13 q 113 2 120 0 q 91 -3 107 3 q 90 -17 91 -10 q 84 -31 89 -25 q 97 -34 89 -31 q 113 -31 105 -38 q 120 -13 120 -31 m 91 -79 q 97 -65 91 -72 q 103 -53 103 -58 q 87 -47 93 -53 q 73 -41 80 -41 q 64 -47 66 -41 q 56 -59 62 -54 q 56 -73 56 -66 q 64 -88 57 -80 q 78 -87 71 -88 q 91 -79 85 -86 m 217 109 q 215 137 217 124 q 206 166 214 151 q 196 189 206 173 q 177 205 186 205 l 177 196 l 160 196 q 158 191 160 193 q 149 189 155 189 q 142 178 146 180 q 135 178 139 177 q 128 180 132 180 q 120 176 124 180 q 114 170 117 176 q 113 166 113 167 q 108 158 113 160 q 103 147 103 156 q 92 142 93 147 q 91 130 91 137 q 95 120 97 123 q 91 119 93 119 q 96 107 95 112 q 98 97 97 102 q 101 89 99 92 q 113 83 104 85 q 126 62 118 67 q 140 45 133 57 q 142 15 147 29 q 131 -13 137 0 q 129 -40 131 -26 q 120 -59 128 -54 q 112 -68 117 -63 q 105 -77 108 -73 q 103 -85 103 -82 q 113 -88 104 -88 q 130 -99 118 -95 q 149 -98 142 -104 q 160 -93 157 -90 q 170 -88 162 -95 q 173 -73 170 -80 q 177 -59 177 -66 q 192 -31 186 -45 q 199 -3 199 -18 q 202 25 199 11 q 206 55 206 38 q 211 81 206 69 q 217 109 217 94 "},"Y":{"x_min":35,"x_max":936,"ha":971,"o":"m 923 978 q 934 962 933 965 q 936 948 936 958 q 922 931 926 935 q 905 918 919 928 q 894 905 899 911 q 885 896 889 900 q 876 888 880 890 q 861 864 865 875 q 846 840 858 854 q 838 832 841 837 q 833 809 833 820 q 815 782 826 794 q 793 760 805 770 q 771 740 781 750 q 755 719 760 730 q 753 698 755 710 q 743 676 752 687 q 706 654 719 665 q 683 631 694 644 q 667 610 671 621 q 654 587 664 598 q 636 564 654 575 q 605 539 619 554 q 590 517 601 528 q 569 494 580 506 q 547 468 557 481 q 533 437 537 454 q 526 413 519 425 q 533 390 533 402 q 517 347 519 366 q 515 316 515 328 q 509 280 515 294 q 503 256 503 266 l 503 168 q 487 97 487 131 q 487 16 487 62 q 467 11 487 4 q 425 18 448 18 q 396 18 415 18 q 365 31 378 18 q 358 9 355 19 q 352 0 362 0 q 343 2 345 0 q 337 8 340 5 q 335 16 335 12 q 324 28 329 22 q 315 37 319 33 l 305 47 q 293 68 294 57 q 292 90 292 80 q 298 115 298 101 q 298 142 298 129 q 298 165 298 155 q 305 180 298 176 q 303 190 305 187 q 298 196 301 193 q 291 199 294 199 q 300 207 297 199 q 304 229 302 216 q 305 253 305 241 q 305 269 305 265 l 305 316 l 305 377 q 307 394 305 382 q 308 420 309 407 q 300 447 306 434 q 274 468 293 461 q 274 497 274 477 q 262 539 274 517 q 246 550 249 539 q 233 571 242 561 q 223 596 233 583 q 203 631 213 608 q 193 675 203 653 q 174 719 183 697 q 155 744 162 731 q 144 772 148 758 q 135 802 139 787 q 125 827 131 816 q 119 837 120 832 q 116 848 119 843 q 110 855 114 852 q 95 858 106 858 q 86 852 86 844 q 95 871 86 861 q 94 887 95 883 q 83 901 92 890 q 61 917 69 913 q 53 931 53 921 q 37 962 39 944 q 35 992 35 980 q 46 1001 41 997 q 54 1008 50 1005 q 65 1013 58 1011 q 83 1021 72 1016 l 125 1021 l 174 1021 q 194 1032 178 1027 q 229 1037 211 1037 q 261 1030 247 1037 q 275 1008 275 1024 q 186 1008 231 1026 q 202 998 198 1008 q 216 978 205 989 q 239 983 228 978 q 262 978 249 989 q 275 980 274 978 q 275 984 276 982 q 272 989 274 987 q 275 992 271 992 q 291 985 287 992 q 305 978 294 978 q 336 918 318 942 q 365 871 355 894 q 374 848 370 859 q 383 825 379 836 q 394 802 387 813 q 412 780 401 791 q 434 734 422 756 q 455 690 445 712 q 469 686 467 679 q 472 707 472 694 q 493 728 483 717 q 503 750 503 740 q 515 774 512 763 q 533 797 519 784 l 545 809 q 553 834 545 823 q 562 858 562 844 l 576 858 l 576 888 q 614 954 588 919 q 654 1021 640 989 q 674 1030 664 1021 q 696 1039 685 1039 l 743 1039 q 793 1049 764 1049 q 846 1049 822 1049 q 869 1022 858 1041 q 892 992 880 1004 q 905 985 902 992 q 923 978 909 978 m 833 1039 q 796 1036 809 1039 q 772 1021 783 1034 q 779 1007 772 1011 q 786 992 786 1004 q 817 979 798 979 q 846 979 836 979 q 867 986 863 984 q 869 992 872 989 q 859 998 866 994 q 846 1008 851 1001 q 843 1018 846 1012 q 838 1027 841 1023 l 833 1039 m 683 1021 q 704 984 694 998 q 725 948 714 970 q 744 968 738 958 q 772 978 749 978 q 762 998 772 988 q 743 1008 752 1008 l 743 1021 l 683 1021 m 667 1008 q 646 971 656 984 q 636 948 636 958 q 647 931 642 942 q 655 911 651 921 q 665 894 659 901 q 683 888 671 888 q 691 909 683 898 q 712 931 700 921 q 703 955 712 944 q 683 978 694 965 l 683 961 q 675 972 676 966 q 675 984 675 979 q 673 995 675 990 q 667 1008 672 1001 m 593 871 q 589 835 580 847 q 624 809 599 823 q 635 812 628 805 q 650 830 643 819 q 662 854 657 841 q 667 871 667 866 q 644 896 654 883 q 630 916 636 907 q 624 931 624 925 q 601 902 609 921 q 593 871 593 883 m 576 809 q 553 795 564 800 q 533 768 542 790 q 542 752 537 761 q 553 739 548 744 q 564 732 559 733 q 576 738 570 731 q 596 761 588 747 q 605 797 605 775 q 600 807 605 801 q 590 815 595 812 q 580 817 585 818 q 576 809 576 816 m 515 750 q 503 725 510 739 q 490 696 495 711 q 482 664 484 680 q 486 631 480 647 q 495 635 493 631 q 500 645 497 639 q 503 661 501 651 q 523 688 513 677 q 537 707 534 699 q 537 724 541 715 q 515 750 532 733 m 95 1008 q 119 992 107 996 q 143 978 130 989 q 156 965 152 965 q 174 978 159 965 q 178 982 178 978 q 176 993 179 987 q 168 1003 173 998 q 155 1008 162 1008 l 95 1008 m 83 931 q 111 889 92 908 q 143 871 130 871 q 163 876 159 871 q 164 890 166 882 q 154 909 161 898 q 142 931 147 919 l 142 948 q 132 959 142 958 q 112 961 123 961 q 89 984 99 973 q 65 1008 79 996 q 52 988 54 1001 q 56 963 51 976 q 68 940 61 950 q 83 931 76 931 m 143 858 q 148 828 143 847 q 162 792 154 809 q 181 762 170 775 q 202 750 191 750 q 223 757 219 750 q 223 775 226 765 q 214 795 220 784 q 203 809 208 805 q 190 832 195 820 q 177 850 184 843 q 162 859 170 857 q 143 858 154 862 m 186 738 q 211 688 198 701 q 245 676 223 676 q 270 683 268 676 q 266 701 273 690 q 248 726 259 712 q 233 750 237 739 q 228 735 233 739 q 215 733 223 732 q 200 735 208 733 q 186 738 191 738 m 216 661 q 228 634 222 649 q 240 604 234 618 q 255 580 246 590 q 274 571 263 571 l 305 571 q 318 580 318 571 q 305 601 318 590 q 296 644 305 624 q 275 676 287 665 q 268 661 275 665 q 251 658 261 658 q 232 659 242 658 q 216 661 222 661 m 305 480 q 315 469 305 470 q 335 468 324 468 q 350 466 348 468 q 353 450 353 463 q 341 448 347 450 q 322 437 330 445 q 325 416 322 425 q 352 407 328 407 q 375 413 369 407 q 382 432 382 420 q 376 456 382 443 q 365 480 370 469 q 356 505 365 492 q 335 539 348 517 q 324 554 330 552 q 311 554 319 556 q 295 552 303 552 q 275 558 286 552 q 272 536 270 547 q 280 514 275 525 q 293 495 286 504 q 305 480 300 486 m 365 300 l 322 300 q 315 271 322 290 q 322 238 309 252 q 330 227 322 228 q 353 226 338 226 q 359 239 353 235 q 365 256 365 242 l 365 300 m 323 331 q 343 325 332 319 q 365 331 355 331 q 371 353 365 343 q 365 377 378 364 q 356 388 365 387 q 335 390 348 390 q 323 362 323 380 q 323 331 323 343 m 335 47 q 343 68 335 57 q 352 90 352 80 q 330 92 339 90 q 322 106 322 94 q 317 70 309 84 q 335 47 325 57 m 862 901 q 874 913 867 907 q 888 926 881 919 q 900 941 895 933 q 905 961 905 950 q 898 957 900 961 q 892 948 895 953 q 885 943 889 944 q 876 948 881 941 l 892 961 l 862 961 l 785 961 q 758 953 774 961 q 743 931 743 944 q 740 925 743 926 q 734 924 737 924 q 727 923 730 924 q 725 918 725 922 q 711 896 714 905 q 696 888 707 888 q 651 806 673 843 q 605 738 628 769 q 585 727 595 738 q 576 707 576 717 q 576 699 576 700 q 574 699 576 699 q 570 697 573 699 q 562 690 567 696 q 526 661 539 678 q 502 631 512 644 q 499 619 502 626 q 492 605 497 611 q 483 598 488 600 q 471 601 477 596 q 457 632 459 614 q 455 661 455 651 q 434 691 445 671 q 412 719 422 710 q 395 759 412 743 q 365 797 378 775 q 335 870 355 829 q 292 948 315 912 q 289 966 292 958 q 275 961 287 973 q 254 956 265 951 q 233 961 242 961 q 202 953 220 961 q 174 931 183 944 l 174 918 q 184 908 183 918 q 186 888 186 898 q 233 827 209 844 q 268 743 255 783 q 305 661 282 704 q 343 588 327 629 q 382 510 359 547 q 383 496 382 499 q 396 480 384 492 q 398 467 396 470 q 413 450 400 463 q 404 413 413 427 q 396 377 396 400 q 392 302 396 342 q 365 238 389 262 q 378 213 378 228 q 365 199 378 199 q 353 203 360 199 q 337 209 346 207 q 320 209 329 211 q 305 199 311 208 q 307 166 305 184 q 322 137 309 147 q 337 123 330 129 q 348 117 343 119 q 352 120 352 115 l 352 149 q 365 150 362 156 q 369 133 369 144 q 367 108 369 122 q 365 90 365 95 l 365 47 q 404 33 388 35 q 443 31 419 31 l 472 31 l 472 77 q 479 128 472 99 q 486 180 486 156 q 487 224 486 204 q 502 269 489 245 l 502 331 q 508 375 502 353 q 515 420 515 397 q 517 456 515 443 q 533 480 519 470 q 553 511 542 492 q 576 539 564 530 q 624 587 598 565 q 651 616 647 598 q 667 648 656 635 q 704 676 689 658 q 743 707 719 694 q 763 743 752 731 q 786 780 774 756 q 801 811 798 793 q 815 840 805 830 q 839 866 828 854 q 862 901 849 877 m 365 168 q 360 183 358 168 q 365 199 362 189 q 371 176 365 184 q 365 168 377 168 "},"E":{"x_min":36.4375,"x_max":750.609375,"ha":787,"o":"m 47 106 q 36 150 36 126 q 36 200 36 175 q 41 251 36 226 q 47 300 47 276 l 47 549 l 47 649 l 47 768 q 43 822 47 797 q 38 873 39 848 q 37 924 37 898 q 47 979 37 950 q 71 1021 47 1008 q 124 1018 95 1034 q 141 1021 131 1018 q 161 1029 150 1025 q 183 1036 172 1033 q 201 1040 193 1040 l 296 1040 l 357 1040 l 435 1040 l 492 1040 q 522 1029 508 1040 q 553 1018 536 1018 q 597 1007 582 1018 q 631 979 612 996 q 642 976 636 978 q 653 971 647 973 q 670 963 660 969 q 684 960 682 963 q 687 940 687 957 q 716 921 702 926 q 747 902 731 916 l 747 822 q 749 790 747 806 q 750 758 750 773 q 745 729 750 743 q 726 707 739 715 q 619 695 666 695 q 514 707 572 695 q 452 680 469 707 q 436 611 436 654 q 430 622 436 618 q 419 632 424 626 q 411 645 413 637 q 415 668 408 652 q 444 707 430 685 q 475 729 459 729 q 527 723 496 729 q 589 715 557 718 q 652 713 621 713 q 707 729 684 713 q 730 750 723 734 q 740 786 738 766 q 738 826 742 806 q 726 862 734 847 q 694 896 712 891 q 646 901 677 901 l 607 901 q 594 904 601 901 q 580 909 587 907 q 566 910 574 911 q 553 901 558 909 l 475 901 q 446 904 460 901 q 418 908 431 907 q 394 909 405 909 q 374 902 383 909 q 331 902 359 902 q 273 899 302 902 q 223 884 245 896 q 202 845 202 873 q 208 800 214 827 q 202 745 202 773 l 202 629 q 208 509 202 569 q 200 378 214 448 q 200 278 200 331 q 181 182 200 225 q 185 134 181 159 q 198 86 189 108 q 222 47 207 64 q 258 25 237 30 q 363 25 316 25 q 453 5 411 25 q 501 -7 476 -1 q 552 -17 527 -14 q 601 -21 578 -21 q 646 -11 625 -21 q 709 13 692 -11 q 726 66 726 37 q 711 158 726 125 q 670 222 697 191 q 613 236 640 236 q 569 236 586 236 q 544 231 557 236 q 531 239 531 226 q 503 241 518 239 q 475 261 488 244 q 435 265 459 261 q 397 300 410 270 q 393 315 397 305 q 387 339 390 326 q 387 366 385 352 q 397 396 388 380 q 414 415 404 409 q 437 420 424 420 q 463 419 449 420 q 492 418 477 418 q 554 442 538 418 q 570 495 570 466 q 556 539 570 523 q 514 572 543 555 q 493 572 506 572 q 466 574 480 572 q 444 579 453 576 q 436 588 436 582 q 444 597 436 597 q 466 595 453 597 q 493 591 480 594 q 514 588 506 588 q 551 577 526 588 q 592 549 575 566 l 592 472 q 576 419 592 443 q 531 396 560 396 q 486 398 510 396 q 445 397 463 400 q 417 381 427 394 q 415 338 408 368 q 428 300 415 315 q 461 276 441 285 q 505 263 481 267 q 553 260 529 260 q 595 260 574 260 q 636 253 615 260 q 675 234 657 247 q 707 200 693 222 q 731 164 723 185 q 743 119 740 143 q 747 72 747 96 q 747 27 747 48 q 730 -10 747 4 q 689 -34 713 -24 q 639 -46 665 -43 q 592 -50 612 -50 q 548 -41 575 -50 q 492 -33 521 -33 q 475 -22 480 -33 q 453 -11 470 -11 l 397 -11 q 297 7 344 2 q 206 18 249 11 q 122 43 162 25 q 47 106 83 61 m 86 106 q 98 112 91 111 q 108 114 105 114 q 111 114 112 114 q 102 122 110 115 q 85 152 90 137 q 63 182 80 166 q 65 142 63 166 q 86 106 68 118 m 63 746 q 74 707 63 733 q 86 650 86 680 q 101 643 91 650 q 123 627 112 637 q 144 607 134 618 q 163 588 154 597 q 178 620 176 605 q 181 650 181 634 q 178 693 181 680 q 163 707 176 707 q 136 713 147 707 q 113 726 124 719 q 89 739 102 733 q 63 746 77 746 m 63 629 q 66 572 63 598 q 86 533 69 545 q 133 503 115 516 q 178 472 152 490 q 178 528 178 501 q 163 572 178 555 q 136 578 147 572 q 113 593 124 584 q 89 612 102 602 q 63 629 77 622 m 63 261 q 59 230 50 244 q 86 200 69 216 q 115 146 98 171 q 163 122 133 122 q 165 143 163 130 q 167 169 167 157 q 161 191 167 182 q 142 200 156 200 q 116 206 127 200 q 96 222 105 212 q 79 242 87 231 q 63 261 72 253 m 86 378 q 76 344 76 362 q 79 307 76 326 q 89 270 83 289 q 102 239 95 252 q 143 225 130 218 q 160 252 156 232 q 165 298 165 273 q 165 338 165 323 q 116 350 134 338 q 86 378 98 362 m 102 106 q 108 82 102 90 q 127 68 115 75 q 152 57 138 62 q 181 43 166 51 q 149 89 167 72 q 102 106 132 106 m 142 378 q 176 375 171 362 q 181 418 181 387 q 178 443 181 429 q 163 456 176 456 q 133 472 147 467 q 102 495 119 477 q 94 474 102 480 q 86 472 90 472 q 82 463 86 466 q 76 456 79 459 q 76 447 74 452 q 86 433 77 441 q 142 378 86 378 m 570 978 q 552 999 557 996 q 531 1002 547 1002 q 561 980 547 985 q 592 963 575 975 q 608 942 603 945 q 631 940 612 940 l 670 940 q 657 962 670 954 q 628 974 644 970 q 595 978 611 978 q 570 978 578 978 m 397 1018 q 428 990 410 1005 q 475 963 445 975 q 493 933 488 945 q 514 922 497 922 q 542 924 527 922 q 570 940 557 926 q 553 953 563 948 q 533 964 543 958 q 511 978 522 971 q 492 1002 500 986 q 484 1010 485 1007 q 480 1016 482 1014 q 473 1018 478 1018 q 453 1018 467 1018 l 397 1018 m 243 1018 q 264 961 243 981 q 318 933 286 942 q 387 924 351 924 q 453 924 424 924 q 433 953 446 939 q 402 979 419 967 q 367 1001 385 992 q 335 1018 349 1011 l 281 1018 l 243 1018 m 102 1002 q 98 960 89 985 q 124 922 108 936 q 143 904 138 907 q 163 901 147 901 q 165 891 163 894 q 171 885 168 888 q 181 883 175 883 q 194 889 188 887 q 219 883 206 895 q 231 902 219 896 q 253 911 243 908 q 267 920 263 915 q 258 940 272 924 q 221 973 228 957 q 202 1018 214 989 q 175 1010 186 1010 q 153 1010 165 1010 q 129 1008 141 1010 q 102 1002 117 1007 m 63 940 q 55 900 55 919 q 57 863 55 881 q 61 826 59 845 q 63 783 63 806 q 89 768 77 777 q 115 750 102 759 q 144 735 128 741 q 181 729 160 729 l 181 845 q 172 867 181 859 q 150 880 163 874 q 123 889 136 885 q 102 902 110 894 q 92 907 95 902 q 85 920 88 913 q 76 934 81 928 q 63 940 71 940 "},"y":{"x_min":35.28125,"x_max":658,"ha":693,"o":"m 658 96 q 656 59 658 73 q 645 21 655 45 q 650 -22 645 0 q 645 -68 655 -44 q 636 -90 638 -79 q 634 -112 634 -101 q 634 -135 634 -123 q 628 -158 634 -147 q 621 -182 628 -170 q 614 -217 614 -194 q 597 -233 604 -224 q 586 -249 590 -241 q 577 -265 582 -258 q 568 -277 573 -273 q 559 -303 568 -292 q 537 -326 551 -313 q 530 -329 533 -332 q 528 -322 528 -327 q 530 -308 528 -316 q 537 -297 533 -301 q 569 -231 551 -260 q 598 -158 587 -202 q 612 -127 610 -147 q 615 -84 615 -108 q 626 -39 626 -61 q 626 5 626 -18 q 635 39 626 17 q 645 84 645 61 l 645 156 q 636 182 645 170 q 628 218 628 194 q 622 256 617 240 q 628 294 628 272 q 621 340 617 318 q 612 385 624 363 q 612 438 612 409 q 596 490 612 466 q 596 550 596 512 q 584 610 596 587 q 560 620 573 617 q 534 625 547 623 q 509 628 520 628 q 493 628 498 628 q 479 605 479 613 q 493 597 479 597 q 496 584 498 590 q 489 573 494 579 q 480 561 485 568 q 476 550 476 555 q 482 538 481 545 q 484 522 484 530 q 484 505 484 514 q 493 490 484 496 q 500 444 493 466 q 507 400 507 422 q 507 370 507 388 q 507 332 507 351 q 503 294 507 312 q 493 265 499 276 q 446 218 470 240 q 424 211 435 218 q 402 204 414 204 q 344 198 366 181 q 312 247 323 215 q 297 271 312 261 q 283 294 283 282 q 261 338 269 318 q 253 369 253 359 q 217 438 229 405 q 205 507 205 471 q 175 572 195 551 q 101 581 155 593 q 114 516 111 548 q 130 460 118 483 q 144 424 141 435 q 162 400 148 412 q 162 370 162 388 q 173 337 162 352 q 199 286 191 315 q 217 227 207 256 q 240 171 226 198 q 283 127 254 145 q 333 103 305 103 q 386 114 361 103 q 401 120 391 114 q 424 131 412 126 q 446 137 436 137 q 464 127 457 137 q 468 14 464 72 q 464 -97 473 -43 q 446 -163 464 -133 q 416 -217 429 -194 q 396 -238 405 -228 q 377 -254 387 -247 q 355 -268 367 -262 q 325 -277 344 -273 q 303 -287 314 -277 q 283 -297 293 -297 q 259 -294 269 -297 q 236 -277 248 -292 q 214 -272 226 -277 q 205 -265 209 -269 l 192 -265 q 175 -273 177 -265 q 173 -297 173 -281 q 162 -320 163 -306 q 161 -357 161 -333 q 172 -365 165 -362 q 187 -368 180 -367 q 205 -370 195 -370 q 268 -411 241 -393 q 326 -429 294 -429 q 379 -429 348 -429 q 433 -416 409 -429 q 483 -377 465 -404 q 525 -326 501 -350 q 524 -359 529 -343 q 507 -389 519 -375 q 479 -414 495 -404 q 446 -430 464 -424 q 373 -446 414 -446 q 296 -446 332 -446 q 229 -413 264 -433 q 161 -370 194 -393 q 144 -353 154 -365 q 128 -325 135 -340 q 120 -293 121 -309 q 130 -265 118 -277 q 134 -244 135 -259 q 133 -213 133 -228 q 137 -187 133 -199 q 160 -176 142 -176 q 204 -176 184 -176 q 236 -187 224 -176 q 280 -205 258 -201 q 326 -187 302 -210 q 362 -134 348 -165 q 386 -68 376 -104 l 386 -37 q 388 -20 386 -26 q 390 -10 390 -14 q 387 -2 391 -6 q 373 5 384 0 q 327 7 349 5 q 283 21 305 9 q 261 44 269 33 q 253 66 253 56 q 237 77 245 73 q 220 86 229 82 q 204 96 212 90 q 193 114 197 103 q 166 148 180 130 q 139 189 152 167 q 115 233 126 210 q 101 278 105 255 q 98 317 101 301 q 83 356 96 333 q 72 385 72 366 q 72 416 72 404 q 55 453 58 439 q 53 490 53 466 q 46 513 53 502 q 40 537 40 523 l 40 581 q 46 644 27 617 q 101 672 65 672 l 193 672 q 202 655 197 666 q 212 633 208 644 q 219 611 216 622 q 222 597 222 601 q 229 553 222 573 q 236 519 236 533 q 256 475 248 497 q 265 428 265 452 q 263 400 261 418 q 270 362 265 382 q 283 324 276 343 q 296 294 291 305 q 329 258 308 272 q 373 235 349 244 q 381 258 373 244 q 402 294 390 272 q 409 325 402 305 q 416 369 416 345 q 421 414 421 391 q 416 459 421 437 q 407 505 411 482 q 402 550 402 527 l 402 627 q 406 663 402 650 q 433 689 409 676 l 476 689 q 500 695 488 689 q 525 701 512 701 q 546 672 534 691 q 568 640 558 652 q 591 625 580 630 q 615 597 602 621 l 615 519 q 628 477 624 497 q 645 447 631 457 l 645 325 q 650 291 645 312 q 647 247 655 270 q 647 218 647 237 q 658 187 647 199 l 658 96 m 144 -265 q 157 -256 157 -265 q 144 -248 157 -248 l 144 -265 m 205 -234 q 214 -245 210 -240 q 223 -255 219 -251 q 234 -262 227 -259 q 253 -265 241 -265 q 250 -249 253 -259 q 240 -233 247 -240 q 225 -224 234 -226 q 205 -234 216 -223 m 312 -265 q 334 -256 323 -265 q 355 -248 345 -248 q 346 -227 355 -237 q 325 -217 338 -217 l 312 -217 q 289 -224 300 -230 q 265 -217 278 -217 q 276 -239 271 -228 q 284 -257 280 -249 q 294 -267 288 -265 q 312 -265 300 -269 m 416 -187 q 399 -166 416 -177 q 373 -144 383 -155 q 364 -173 373 -155 q 355 -205 355 -191 q 365 -222 355 -215 q 386 -217 375 -230 q 401 -209 398 -217 q 416 -187 405 -201 m 433 -144 q 434 -123 433 -132 q 446 -115 435 -115 q 441 -97 446 -103 q 429 -86 436 -90 q 415 -78 422 -81 q 402 -68 408 -75 q 394 -88 394 -79 q 394 -103 394 -97 q 392 -117 394 -110 q 386 -128 391 -123 q 397 -134 391 -128 q 409 -147 404 -141 q 420 -154 415 -154 q 433 -144 426 -155 m 444 -54 q 444 -38 444 -48 q 441 -18 444 -28 q 433 -1 438 -8 q 417 5 427 5 l 417 -54 q 430 -65 424 -61 q 439 -66 435 -68 q 444 -54 444 -65 m 433 96 q 403 96 420 96 q 386 85 386 96 q 409 47 398 61 q 433 21 420 33 q 437 42 437 34 q 437 59 438 51 q 435 77 437 68 q 433 96 433 86 m 296 85 q 294 64 296 73 q 295 49 293 55 q 303 39 297 42 q 325 37 309 37 q 357 26 338 26 q 386 37 376 26 q 377 46 383 41 q 367 56 373 51 q 355 66 361 61 q 337 82 355 80 q 296 85 319 85 m 54 628 q 56 596 54 614 q 70 566 58 578 q 81 581 80 578 q 83 597 83 584 q 74 617 83 607 q 54 628 66 628 m 265 66 q 273 88 276 77 q 262 105 270 98 q 244 109 253 111 q 236 97 236 108 q 245 84 236 87 q 265 66 255 80 m 205 187 q 184 180 195 177 q 173 174 173 184 q 184 150 173 160 q 205 127 195 139 q 214 118 205 116 q 236 143 224 120 q 221 165 224 153 q 205 187 217 177 m 144 356 q 113 347 121 360 q 105 317 105 334 q 115 286 105 300 q 144 278 126 273 q 161 282 157 290 q 144 265 166 275 q 135 256 138 258 q 131 254 133 255 q 130 249 130 254 q 130 235 130 245 q 144 225 141 235 q 161 204 148 215 q 165 197 161 197 q 177 199 170 197 q 188 207 183 202 q 193 218 193 212 q 183 240 193 230 q 173 265 173 251 q 178 286 187 275 q 161 308 170 297 q 158 325 159 316 q 153 341 155 332 q 144 356 151 349 m 114 460 q 111 487 114 471 q 101 516 108 502 q 83 540 94 530 q 54 550 72 550 q 69 505 66 526 q 83 460 73 483 q 98 458 96 460 q 101 447 101 457 q 98 438 101 439 q 92 437 95 437 q 85 436 88 437 q 83 428 83 435 q 83 414 83 424 q 85 393 83 403 q 95 376 88 384 q 114 369 102 369 q 126 381 125 369 q 125 409 127 394 q 118 440 122 424 q 114 460 114 455 m 193 610 q 191 632 193 623 q 173 640 188 640 q 166 649 173 645 q 149 654 159 652 q 129 657 139 657 q 113 657 119 657 q 101 657 109 657 q 88 654 94 657 q 80 649 83 652 q 83 640 78 645 q 122 613 106 617 q 161 610 137 610 l 193 610 m 446 657 q 428 663 434 669 q 419 643 422 657 q 416 615 416 630 q 416 597 416 601 q 430 595 422 597 q 446 592 438 593 q 459 595 454 591 q 464 610 464 598 q 468 625 468 621 q 466 634 469 630 q 458 641 464 637 q 446 657 452 645 m 416 581 q 418 545 416 557 q 433 519 421 533 q 437 510 433 515 q 447 504 442 505 q 457 505 452 502 q 462 519 462 508 q 462 541 462 530 q 457 561 462 553 q 443 575 453 569 q 416 581 434 581 m 386 235 q 417 230 398 222 q 446 247 436 237 q 426 255 437 247 q 416 265 421 259 q 411 254 416 258 q 400 247 406 251 q 390 241 395 244 q 386 235 386 239 m 464 265 q 475 293 475 275 q 475 325 475 312 q 458 335 475 335 q 433 325 442 335 q 426 307 427 315 q 433 278 421 290 l 446 278 q 455 275 452 278 q 461 270 458 273 q 464 265 464 268 m 476 400 q 468 414 476 412 q 446 416 459 416 q 440 392 446 404 q 446 369 435 381 q 458 364 452 369 q 469 355 464 359 q 480 350 475 351 q 493 356 486 349 q 490 377 493 366 q 476 400 488 388 m 476 428 q 479 451 481 439 q 471 469 478 462 q 454 479 464 476 q 433 476 444 482 q 434 455 433 463 q 446 447 435 447 q 450 434 446 439 q 461 426 455 428 q 471 424 466 423 q 476 428 476 424 m 476 657 q 494 642 476 644 q 525 640 512 640 q 519 661 525 652 q 507 672 513 669 q 491 672 500 675 q 476 657 482 669 "},"\"":{"x_min":35,"x_max":409.90625,"ha":445,"o":"m 379 917 q 393 874 386 894 q 406 832 400 854 q 404 815 414 817 q 379 813 394 813 q 360 809 372 813 q 341 806 348 806 q 332 800 334 806 q 323 795 330 795 q 326 791 325 792 q 323 786 328 786 q 304 786 315 786 q 286 794 293 786 q 264 831 272 808 q 250 869 255 854 q 234 921 241 896 q 221 973 227 945 q 233 1001 221 992 q 268 1016 245 1011 q 309 1016 287 1025 q 350 999 330 1007 l 350 991 q 355 981 350 983 q 361 973 361 979 q 370 945 368 959 q 379 917 372 931 m 332 999 q 299 1007 317 999 q 268 1010 282 1015 q 275 1004 272 1010 q 277 999 277 1002 q 290 991 283 992 q 306 991 297 991 q 318 989 311 991 q 332 981 325 988 q 339 986 339 981 q 332 999 339 992 m 257 999 q 245 993 251 999 q 239 981 239 987 q 253 977 247 981 q 268 973 259 973 q 265 985 274 978 q 257 999 257 992 m 250 935 q 254 927 250 928 q 268 926 259 926 q 261 947 268 932 q 250 962 255 962 q 245 948 243 962 q 250 935 247 942 m 277 841 q 282 836 278 839 q 294 832 286 832 q 302 834 301 832 q 301 842 303 837 q 297 852 300 847 q 295 862 295 857 q 288 879 292 869 q 279 899 284 889 q 266 914 273 909 q 250 917 259 920 q 256 901 255 908 q 257 888 257 894 q 274 883 265 881 q 277 879 283 886 q 272 870 277 874 q 268 869 269 869 q 268 856 268 863 q 277 841 269 849 m 306 806 q 314 803 313 801 q 315 810 315 806 q 311 819 314 815 q 305 824 308 824 l 286 824 q 291 808 286 810 q 306 806 297 806 m 350 824 q 373 824 358 824 q 388 832 388 824 q 369 894 380 860 q 350 962 358 928 q 340 971 343 970 q 331 973 338 973 l 305 973 q 286 970 297 973 q 268 955 274 968 q 291 898 275 927 q 313 841 307 870 q 318 829 313 834 l 323 824 q 350 824 336 806 m 195 879 q 206 852 200 866 q 213 832 213 839 q 225 805 219 817 q 231 787 231 793 q 212 777 223 779 q 195 769 200 775 q 175 763 186 769 q 157 757 164 757 q 151 753 148 757 q 146 750 154 750 q 140 742 146 742 q 128 750 135 742 q 110 755 121 750 q 91 769 99 760 q 77 777 83 775 q 64 787 71 779 q 58 813 64 801 q 52 832 52 825 q 52 860 52 846 q 46 897 52 875 q 40 917 46 904 q 35 943 35 930 l 35 961 q 37 980 35 977 q 53 991 39 984 q 73 995 61 991 q 102 999 86 999 q 113 1010 104 1010 q 132 1004 122 1010 q 149 992 141 999 q 157 981 157 985 q 172 958 167 971 q 181 930 178 945 q 188 902 185 916 q 195 879 190 889 m 146 981 q 126 997 139 994 q 100 996 114 1000 q 73 986 86 993 q 53 973 60 979 q 72 966 68 973 q 82 955 75 960 q 94 959 89 956 q 102 973 106 964 q 90 982 93 973 q 101 991 86 991 q 109 982 107 991 q 120 973 111 973 q 133 977 126 973 q 146 981 139 981 m 82 906 q 70 930 82 914 q 46 955 59 946 q 46 930 46 939 q 53 906 46 921 l 82 906 m 64 869 q 77 865 71 869 q 91 862 83 862 q 95 874 99 867 q 91 888 91 881 l 64 888 q 60 882 56 888 q 64 869 64 877 m 73 824 q 83 811 73 815 q 102 813 93 807 q 107 823 107 813 q 102 841 107 834 q 90 849 102 849 q 73 849 79 849 q 69 836 66 842 q 73 824 73 830 m 82 795 q 88 785 82 792 q 102 773 94 779 q 117 761 110 766 q 128 757 125 757 q 124 781 121 766 q 120 806 126 797 q 100 796 111 797 q 82 795 89 795 m 175 787 q 184 785 178 787 q 197 785 190 784 q 208 790 203 786 q 213 806 213 795 q 198 837 204 819 q 184 869 192 854 q 178 906 184 890 q 166 935 172 921 q 164 944 166 938 q 159 955 163 950 q 150 963 156 960 q 138 962 144 966 q 115 954 124 956 q 102 944 107 952 q 92 939 95 941 q 89 934 89 937 q 90 928 89 931 q 91 917 91 924 q 101 897 99 908 q 109 879 103 886 q 115 841 109 857 q 128 806 121 825 q 136 790 135 797 q 138 777 138 784 q 153 775 138 770 q 175 787 168 780 "},"g":{"x_min":34.265625,"x_max":611.765625,"ha":647,"o":"m 393 553 q 380 563 381 558 q 383 570 379 568 q 395 572 387 573 q 408 568 402 572 q 429 560 418 568 q 448 553 440 553 q 469 557 460 553 q 478 540 478 561 q 499 537 489 540 q 522 523 509 535 q 534 510 530 515 q 550 485 537 505 q 574 431 558 462 q 590 370 590 401 l 590 315 q 597 278 601 294 q 605 242 594 263 l 605 184 l 605 144 l 605 72 q 610 45 605 63 q 605 15 615 27 q 594 -53 605 -15 q 561 -125 583 -91 q 555 -123 558 -126 q 550 -108 550 -120 q 561 -81 558 -99 q 578 -40 565 -62 q 584 1 578 -19 q 590 44 590 22 q 585 94 590 65 q 590 144 580 123 q 582 186 590 165 q 575 229 575 207 q 575 333 575 281 q 561 427 575 384 q 549 440 552 437 q 533 455 545 444 l 533 496 q 519 507 528 501 q 501 518 511 512 q 484 528 491 524 q 478 540 478 533 l 437 540 q 414 532 425 540 q 393 524 403 524 q 398 544 393 536 q 393 553 403 553 m 393 343 q 398 301 403 322 q 393 256 393 280 q 398 237 393 245 q 393 229 403 229 q 359 217 370 217 q 335 229 348 217 q 302 258 302 240 q 325 298 302 277 q 347 337 332 331 q 393 343 362 343 m 380 298 q 375 312 380 308 q 364 317 370 316 q 349 316 358 317 q 335 315 341 315 q 330 285 335 302 q 325 256 325 267 q 350 238 333 245 q 380 242 367 231 l 380 298 m 69 117 q 44 178 48 147 q 41 242 41 210 q 38 325 28 284 q 69 400 48 366 q 89 391 79 400 q 110 383 100 383 q 120 372 115 378 q 131 361 126 365 q 142 359 137 358 q 154 370 147 359 q 182 411 154 392 q 184 426 191 423 q 165 440 177 430 q 153 437 156 440 q 137 455 149 434 q 116 432 129 444 q 82 400 103 420 q 79 417 77 409 q 86 430 80 424 q 98 437 91 435 q 110 440 105 440 q 125 461 122 451 q 137 485 129 472 q 161 502 147 489 q 189 528 175 515 q 219 550 204 541 q 250 553 234 558 q 234 533 250 543 q 209 524 219 524 q 190 516 198 524 q 182 496 182 508 q 159 476 161 487 q 165 455 156 465 q 195 442 177 444 q 222 440 212 440 q 231 454 222 451 q 250 468 241 458 q 261 484 261 477 q 256 496 261 490 q 245 507 251 501 q 239 524 239 512 q 280 496 256 524 q 300 495 289 491 q 320 505 310 498 q 338 517 330 511 q 353 524 345 524 q 334 544 340 536 q 308 553 328 553 q 306 565 308 563 q 294 568 305 568 q 280 562 282 568 q 266 568 277 557 q 296 585 277 577 q 335 580 314 593 q 352 561 348 570 q 364 553 355 553 q 368 545 364 548 q 378 540 373 543 q 388 533 382 537 q 393 523 393 529 q 388 510 393 512 q 377 509 383 507 q 364 515 371 511 q 353 524 357 519 l 353 512 q 336 498 340 500 q 325 496 332 496 q 309 490 312 496 q 308 485 306 487 q 287 476 296 485 q 266 468 277 468 q 224 431 245 458 q 182 383 202 404 q 146 320 159 352 q 134 256 134 288 q 134 185 134 223 q 154 117 134 147 q 204 69 175 95 q 266 44 233 44 q 296 39 277 34 q 335 45 315 45 q 378 47 357 45 q 421 60 400 49 q 442 77 433 69 q 465 72 452 85 l 465 15 q 455 -46 465 -14 q 437 -108 445 -78 q 405 -165 424 -141 q 364 -211 386 -190 q 330 -217 342 -211 q 293 -224 317 -224 q 272 -227 282 -224 q 250 -211 262 -230 l 222 -211 q 219 -202 217 -205 q 221 -197 220 -199 q 221 -195 223 -195 q 209 -195 220 -195 q 175 -181 188 -195 q 154 -167 162 -167 q 145 -196 154 -179 q 137 -224 137 -213 q 129 -264 129 -244 q 137 -295 129 -283 q 140 -321 137 -316 q 165 -336 144 -326 q 194 -338 177 -336 q 222 -351 211 -340 l 308 -351 q 344 -342 328 -351 q 380 -323 359 -333 q 435 -291 410 -311 q 493 -251 459 -272 q 506 -211 502 -230 q 522 -183 509 -192 q 527 -167 522 -171 q 533 -152 533 -164 q 541 -140 533 -143 q 550 -139 545 -139 q 547 -168 550 -150 q 533 -195 545 -186 q 521 -216 524 -207 q 505 -237 517 -226 q 468 -291 495 -269 q 421 -335 441 -313 q 356 -349 390 -335 q 280 -364 322 -364 q 244 -364 265 -364 q 201 -361 223 -364 q 160 -353 180 -359 q 126 -335 139 -346 q 110 -320 114 -335 q 97 -295 107 -304 q 75 -279 86 -283 q 52 -268 64 -276 q 40 -235 40 -251 q 43 -203 40 -219 q 54 -171 47 -188 q 69 -139 61 -155 q 79 -122 73 -133 q 91 -100 84 -110 q 107 -83 98 -90 q 126 -81 115 -76 q 145 -90 134 -81 q 165 -108 156 -99 q 194 -124 177 -120 q 222 -139 211 -127 l 280 -139 q 308 -116 291 -127 q 325 -97 325 -105 q 335 -70 328 -91 q 343 -26 341 -48 q 342 13 345 -4 q 324 32 338 32 q 287 23 300 32 q 250 15 273 15 q 223 38 241 27 q 194 60 204 49 q 161 54 179 49 q 127 72 144 60 q 94 96 110 83 q 69 117 79 110 m 110 -279 q 112 -246 110 -258 q 126 -224 114 -235 q 103 -204 114 -213 q 81 -195 93 -195 q 70 -204 71 -195 q 69 -224 69 -214 q 110 -279 69 -262 m 126 -195 q 127 -181 126 -185 q 130 -174 129 -176 q 130 -168 131 -172 q 126 -152 130 -164 q 123 -140 124 -145 q 110 -139 119 -130 q 91 -147 100 -139 q 82 -167 82 -155 q 98 -183 82 -179 q 126 -195 114 -186 m 194 -167 q 202 -183 194 -179 q 222 -195 211 -186 q 219 -178 222 -185 q 215 -168 217 -172 q 211 -161 213 -164 q 209 -152 209 -158 q 198 -138 203 -143 q 188 -133 192 -134 q 177 -131 183 -132 q 165 -125 170 -130 q 156 -118 161 -125 q 145 -105 151 -112 q 135 -98 140 -99 q 126 -108 130 -98 q 137 -131 134 -120 q 154 -153 141 -141 q 173 -160 162 -153 q 194 -167 184 -167 m 335 -195 q 340 -183 341 -190 q 334 -168 339 -176 q 321 -152 328 -160 q 308 -139 313 -144 q 292 -147 302 -144 q 272 -151 282 -150 q 252 -152 262 -152 q 239 -152 243 -152 q 266 -195 239 -176 l 307 -195 l 335 -195 m 421 -81 q 435 -61 433 -72 q 437 -40 437 -50 q 428 -26 437 -30 q 406 -22 419 -22 q 381 -23 394 -22 q 364 -25 369 -25 q 359 -54 364 -36 q 364 -81 355 -72 q 379 -85 369 -81 q 398 -91 388 -89 q 414 -92 408 -93 q 421 -81 421 -91 m 364 32 q 359 3 352 11 q 379 -5 365 -4 q 409 -7 393 -7 q 437 -12 426 -7 q 439 26 437 8 q 420 45 441 45 q 393 38 410 45 q 364 32 376 32 m 408 -108 q 394 -103 402 -108 q 379 -96 387 -99 q 363 -92 370 -93 q 353 -97 357 -91 q 342 -112 345 -101 q 340 -134 340 -123 q 342 -151 340 -144 q 353 -152 345 -158 q 365 -157 362 -152 q 370 -167 369 -162 q 372 -172 372 -171 q 380 -167 373 -173 q 398 -143 389 -155 q 408 -108 408 -131 m 154 89 q 137 107 141 97 q 126 117 134 117 l 126 156 q 94 183 114 177 q 52 201 74 188 q 87 127 64 158 q 154 89 110 97 m 69 326 q 66 307 61 315 q 80 293 70 299 q 102 281 90 287 q 126 270 115 276 l 126 326 q 118 352 134 348 q 81 356 102 356 q 70 347 71 356 q 69 326 69 338 m 52 287 q 47 255 43 274 q 52 212 52 235 q 75 206 64 212 q 97 201 86 201 q 116 216 106 201 q 126 242 126 231 q 109 258 119 252 q 89 269 99 265 q 68 276 79 273 q 52 287 57 280 "},"e":{"x_min":35,"x_max":543,"ha":578,"o":"m 42 257 q 39 286 42 273 q 36 313 37 300 q 35 341 35 327 q 42 373 35 355 q 52 443 42 403 q 85 516 63 483 q 128 577 104 547 q 185 630 152 608 q 214 648 196 638 q 243 659 231 659 q 246 648 248 652 q 238 642 244 645 q 226 636 233 639 q 214 630 219 634 q 235 602 225 619 q 257 586 245 586 q 292 594 276 586 q 330 615 308 603 q 307 635 317 625 q 284 659 297 645 q 298 672 290 670 q 311 672 306 675 q 318 660 317 668 q 313 641 319 652 q 349 616 335 632 q 386 600 363 600 q 376 616 386 610 q 357 641 366 621 l 342 641 q 337 656 342 654 q 342 659 333 659 q 363 663 352 667 q 386 659 374 659 q 401 656 391 659 q 421 648 411 653 q 437 639 430 643 q 445 630 445 634 q 450 615 445 619 q 456 600 456 612 q 458 586 456 589 q 473 572 460 582 q 493 555 482 572 q 513 527 505 538 q 539 475 536 505 q 543 413 543 446 q 528 385 531 402 q 513 355 524 368 q 509 345 509 350 q 506 335 508 339 q 500 325 504 330 q 485 316 496 319 q 402 316 443 316 q 330 326 361 316 q 313 321 319 326 q 303 312 307 317 q 295 304 299 308 q 284 300 290 300 q 266 270 275 288 q 257 241 257 252 q 270 227 268 230 q 272 212 272 223 q 273 200 272 204 q 284 183 275 197 q 308 164 297 174 q 341 154 319 154 q 354 156 347 154 q 370 160 362 159 q 386 161 379 162 q 399 154 394 160 q 437 145 434 154 q 430 113 440 136 q 420 78 424 96 q 411 41 417 59 q 396 8 405 24 q 370 -19 387 -7 q 355 -24 365 -24 q 335 -22 346 -24 q 315 -20 325 -21 q 301 -19 306 -19 q 259 -2 279 -4 q 227 0 239 0 q 208 12 216 11 q 192 12 200 13 q 176 8 185 11 q 159 11 168 6 q 120 35 136 24 q 85 69 104 46 q 65 85 74 69 q 56 113 56 102 q 43 148 44 136 q 42 183 42 160 l 42 257 m 85 98 q 126 63 104 76 q 169 40 147 51 q 143 63 161 51 q 111 98 124 75 q 105 108 108 102 q 100 127 100 119 q 90 134 95 130 q 71 143 79 143 q 78 120 71 131 q 85 98 85 109 m 430 601 q 420 621 430 612 q 399 630 411 630 q 414 610 411 619 q 430 601 418 601 m 257 557 q 242 547 245 557 q 227 527 239 538 q 221 527 222 527 q 221 525 221 527 q 220 522 221 524 q 214 516 219 520 q 194 492 203 502 q 185 472 185 483 q 170 442 174 460 q 159 413 167 424 q 136 378 144 391 q 129 344 129 366 q 126 313 129 330 q 112 286 124 297 q 112 214 112 252 q 129 154 112 176 q 135 127 138 145 q 141 98 132 109 q 157 76 141 87 q 185 55 174 66 q 211 29 196 38 q 243 15 226 19 q 275 11 260 11 q 301 11 290 11 q 370 11 348 -7 q 392 35 381 24 q 416 69 404 46 l 416 127 q 413 142 416 138 q 399 154 411 145 q 393 154 394 154 q 393 152 393 154 q 392 149 393 151 q 386 143 391 147 q 340 129 365 126 q 293 147 315 133 q 257 184 272 162 q 243 227 243 206 q 250 249 243 238 q 257 270 257 259 q 268 307 257 293 q 301 344 279 321 q 324 348 310 352 q 357 344 337 344 l 444 344 l 473 344 q 483 345 482 344 q 485 355 485 346 q 508 391 498 377 q 529 429 518 406 q 518 482 529 460 q 485 527 507 505 q 473 549 476 538 q 456 572 469 561 l 430 572 q 407 579 418 572 q 386 586 397 586 q 362 590 373 589 q 344 591 352 591 q 330 586 335 591 q 307 580 317 586 q 284 586 297 575 q 276 577 281 583 q 268 568 273 573 q 257 557 262 562 m 159 586 q 153 568 152 574 q 159 556 154 562 q 172 544 164 551 q 185 527 179 538 q 206 532 196 518 q 227 557 216 545 q 239 571 239 567 q 227 586 239 574 q 213 594 216 586 q 198 615 209 603 q 177 606 187 615 q 159 586 167 597 m 111 516 q 95 492 102 502 q 100 472 89 483 q 111 465 108 472 q 129 458 115 458 q 138 448 133 447 q 148 456 143 449 q 156 471 153 462 q 159 487 159 481 q 169 494 163 491 q 179 499 175 496 q 182 505 183 502 q 169 516 180 509 q 158 527 161 524 q 141 542 154 531 q 131 546 136 548 q 121 538 126 544 q 113 526 116 532 q 111 516 111 520 m 85 458 q 73 426 73 446 q 73 384 73 406 q 80 378 75 381 q 100 373 90 373 q 111 367 108 359 q 129 384 115 375 l 129 413 q 126 426 129 424 q 111 429 124 429 q 99 449 102 440 q 85 458 95 458 m 54 373 q 54 342 54 361 q 56 303 54 323 q 68 270 59 284 q 100 257 78 257 q 105 300 100 279 q 111 344 111 321 q 95 346 101 344 q 84 351 89 348 q 73 360 79 355 q 54 373 67 366 m 56 183 q 62 176 61 179 q 63 170 63 173 q 64 164 63 167 q 71 154 65 160 l 100 154 q 100 190 100 172 q 97 221 100 208 q 85 240 94 234 q 56 241 76 247 l 56 183 m 284 670 q 276 660 284 662 q 257 659 268 659 q 266 668 257 667 q 284 670 275 670 m 416 413 q 393 410 404 408 q 371 417 382 412 q 350 430 361 423 q 330 443 340 437 q 344 481 339 465 q 371 498 348 498 q 400 494 382 498 q 430 472 418 491 q 433 442 440 460 q 416 413 427 424 m 357 443 q 378 437 368 443 q 399 443 388 431 q 411 457 411 448 q 404 472 411 466 q 385 480 397 478 q 357 472 373 481 l 357 443 "},"J":{"x_min":35.15625,"x_max":935,"ha":970,"o":"m 318 1024 q 318 1011 323 1017 q 306 1002 313 1006 q 291 999 298 999 q 284 1007 284 1000 q 288 1016 284 1014 q 300 1021 293 1018 q 318 1024 307 1022 m 199 1007 q 203 1016 199 1012 q 214 1020 208 1020 q 226 1016 221 1020 q 232 1007 232 1012 l 216 1007 l 199 1007 m 600 1007 l 586 1007 l 600 1007 m 667 687 q 685 704 667 701 q 720 707 704 707 q 714 695 720 700 q 700 689 708 691 q 683 687 692 687 q 667 687 673 687 m 552 71 q 541 52 552 55 q 519 50 531 50 q 481 37 504 37 q 432 37 458 37 q 417 20 421 22 q 400 18 414 18 q 388 11 394 12 q 376 11 382 11 q 363 10 369 11 q 351 4 357 9 q 337 -4 344 -3 q 323 -3 330 -5 q 305 1 315 0 q 284 4 296 4 q 258 -18 270 -10 q 232 -16 247 -27 q 158 5 196 0 q 84 36 120 12 q 65 66 70 48 q 58 103 60 84 q 56 141 56 123 q 49 172 56 159 q 49 271 21 220 q 50 278 47 273 q 66 286 53 286 q 76 294 73 293 q 83 296 79 296 q 89 297 86 296 q 98 305 92 298 q 122 309 113 305 q 132 339 132 314 q 142 344 132 344 q 165 343 153 344 q 199 339 181 342 l 284 339 q 301 333 296 339 q 307 319 305 328 q 309 302 308 311 q 318 286 311 293 q 357 330 343 305 q 377 383 371 355 q 383 442 383 410 q 383 505 383 473 q 385 605 355 556 q 387 626 385 616 q 400 621 389 636 q 408 616 407 621 q 407 604 409 611 q 400 587 404 597 q 425 577 414 587 q 452 552 436 568 q 439 629 463 604 q 365 654 415 654 q 315 648 340 643 q 266 654 290 654 q 239 654 253 654 q 212 657 225 654 q 192 667 200 660 q 185 687 185 674 q 130 692 152 681 q 93 723 107 702 q 72 769 78 743 q 66 821 66 796 q 76 873 66 847 q 98 940 86 900 q 103 960 98 952 q 117 972 109 968 q 134 979 125 976 q 151 989 142 983 l 164 989 q 166 1005 164 1003 q 185 1007 169 1007 q 171 991 177 1000 q 164 973 165 982 q 167 959 162 965 q 185 954 172 954 q 234 942 208 942 q 284 942 260 942 q 274 950 278 944 q 266 975 266 961 q 253 989 254 986 q 252 1007 252 993 q 259 1021 252 1017 q 266 1024 261 1022 l 266 1007 l 274 996 q 280 985 277 991 q 284 975 284 980 q 298 949 294 959 q 318 940 303 940 q 324 927 323 928 q 325 927 325 925 q 325 929 325 928 q 332 923 326 929 q 359 916 344 916 q 391 917 375 916 q 423 920 408 918 q 452 923 439 923 q 425 947 436 936 q 400 975 414 959 q 391 984 395 979 q 385 1007 385 995 q 374 1009 379 1005 q 351 1024 362 1011 q 382 1031 369 1028 q 400 1032 393 1034 q 400 1024 407 1031 q 410 998 400 1011 q 432 975 421 986 q 457 947 447 959 q 467 923 467 936 q 491 929 479 929 q 515 929 503 929 q 540 925 528 928 q 566 923 553 923 q 548 947 566 936 q 519 975 531 959 q 500 998 504 986 q 485 1024 496 1011 q 461 1017 471 1024 q 452 1024 452 1011 q 435 1018 444 1016 q 420 1026 426 1020 q 412 1037 414 1032 q 418 1042 411 1042 q 432 1033 429 1042 q 452 1024 436 1024 q 498 1024 476 1053 q 511 1027 507 1024 q 519 1033 515 1029 q 525 1038 522 1036 q 533 1039 528 1039 l 600 1039 q 643 1039 614 1039 q 687 1024 671 1039 q 660 1017 671 1011 q 634 1024 648 1024 q 644 1000 634 1011 q 667 989 655 989 q 675 986 674 989 q 677 979 677 983 q 678 968 677 975 q 687 954 679 962 q 692 943 692 948 q 695 932 693 937 q 702 925 697 928 q 719 923 707 923 l 786 923 q 748 968 771 946 q 700 989 725 989 q 711 1005 700 1003 q 733 1007 722 1007 l 720 1007 q 702 1009 710 1005 q 691 1013 696 1010 q 687 1024 687 1017 l 753 1024 l 786 1024 q 803 1015 799 1016 q 806 1015 807 1015 q 804 1013 806 1015 q 802 1007 802 1012 q 826 1010 814 1012 q 849 1002 838 1008 q 869 988 860 995 q 886 975 879 980 q 892 960 892 966 q 895 949 893 954 q 902 942 897 945 q 921 940 908 940 q 933 914 932 926 q 935 887 935 902 q 929 838 935 864 q 935 789 923 812 l 935 740 q 922 714 923 725 q 921 687 921 702 q 870 681 894 687 q 820 687 846 676 q 794 693 807 694 q 769 689 782 692 q 744 684 757 686 q 720 687 732 682 q 758 711 738 706 q 801 717 779 717 q 845 712 822 717 q 886 707 867 707 q 906 712 899 707 q 916 725 914 718 q 920 741 919 733 q 921 754 921 748 q 911 779 911 767 q 913 804 911 792 q 918 830 915 817 q 921 855 921 843 q 906 890 921 880 q 871 905 892 901 q 827 910 850 910 q 786 910 804 910 l 586 910 l 498 910 l 418 910 q 393 906 405 910 q 368 900 381 902 q 343 899 355 899 q 318 908 330 899 q 267 915 292 908 q 217 923 243 923 q 195 906 204 923 q 181 867 186 889 q 177 824 177 846 q 185 789 177 801 l 185 721 q 194 693 190 702 q 201 679 197 683 q 212 679 205 676 q 232 687 219 681 q 332 677 282 687 q 432 654 382 667 q 485 605 485 654 q 476 556 485 581 q 467 505 467 530 q 464 455 467 480 q 452 405 462 430 l 452 371 q 434 353 436 356 q 432 339 432 349 q 430 298 432 314 q 418 271 429 282 q 406 248 418 257 q 385 239 395 239 q 321 227 344 223 q 299 271 299 230 q 286 295 288 282 q 284 319 284 308 q 248 313 264 313 q 217 313 232 313 q 190 313 203 313 q 164 306 177 313 q 157 296 157 306 q 158 274 157 287 q 161 245 159 261 q 164 218 164 230 q 164 204 164 212 q 168 189 165 197 q 178 176 171 181 q 199 172 186 172 q 204 168 205 172 q 198 159 203 164 q 189 148 194 153 q 185 137 185 142 q 176 128 177 137 q 179 109 175 120 q 187 87 182 98 q 199 71 193 76 q 260 31 223 44 q 332 18 296 18 q 360 14 347 7 q 400 36 374 22 q 449 45 424 36 q 498 71 475 55 q 526 75 514 71 q 552 102 538 79 q 564 127 563 115 q 566 151 566 139 q 571 173 566 163 q 583 192 577 184 q 594 206 589 199 q 600 218 600 212 q 602 269 600 244 q 618 319 604 294 q 632 395 632 359 q 632 472 632 431 l 632 573 l 632 654 q 632 670 632 660 q 635 685 632 679 q 645 693 638 692 q 667 688 653 694 q 660 686 662 688 q 653 672 653 683 q 644 669 646 672 q 645 661 643 666 q 650 651 647 656 q 653 640 653 645 l 653 552 q 658 501 664 529 q 653 438 653 474 q 643 412 653 423 q 634 385 634 401 q 642 371 640 380 q 641 354 643 363 q 636 336 639 345 q 634 319 634 326 q 625 289 625 307 q 625 252 625 271 q 618 215 625 233 q 600 185 612 198 q 590 137 600 159 q 566 102 581 115 q 564 85 566 88 q 552 71 563 82 m 767 975 q 813 936 793 949 q 869 923 832 923 q 859 960 869 946 q 834 975 849 975 q 812 986 822 986 q 802 975 802 986 q 786 987 790 986 q 767 989 782 989 l 767 975 m 519 1007 q 551 980 531 993 q 586 940 571 966 q 603 930 592 933 q 629 927 614 927 q 659 930 643 927 q 687 940 674 933 q 662 949 671 940 q 653 975 653 959 q 626 989 638 986 q 600 1007 614 993 l 618 1007 q 599 1011 605 1013 q 588 1006 593 1010 q 578 1001 582 1003 q 566 1007 574 1000 q 542 1013 554 1007 q 519 1007 531 1020 m 98 874 q 95 858 98 867 q 92 839 93 849 q 91 821 91 829 q 98 807 92 812 q 112 821 106 819 q 124 817 118 822 q 136 804 130 812 q 151 789 142 796 l 151 840 q 124 855 136 851 q 98 874 113 860 m 151 721 q 151 774 170 747 q 124 783 136 774 q 98 807 113 793 q 101 778 98 794 q 111 746 104 761 q 128 723 118 732 q 151 721 138 715 m 164 922 q 154 939 164 936 q 132 954 145 943 q 120 931 121 942 q 119 908 119 919 q 129 891 124 900 q 141 876 134 882 q 152 868 147 869 q 164 874 158 867 l 164 922 m 400 520 q 408 504 400 515 q 426 485 416 494 q 443 475 435 477 q 452 485 452 473 q 449 513 452 501 q 432 538 447 524 l 422 548 q 412 558 418 552 q 400 573 406 565 l 400 520 m 400 472 q 397 437 400 458 q 385 405 395 416 q 400 386 396 389 q 419 371 404 382 q 425 410 419 396 q 432 438 432 423 q 437 447 439 444 q 430 453 436 451 q 415 460 424 456 q 400 472 407 465 m 385 371 q 373 331 385 346 q 351 306 362 317 q 365 292 357 298 q 381 282 373 286 q 394 279 388 279 q 400 286 400 280 q 412 304 407 293 q 417 329 417 316 q 410 353 417 341 q 385 371 403 364 m 365 253 q 357 271 365 265 q 341 278 350 278 q 325 271 333 278 q 318 253 318 265 l 365 253 m 66 185 q 76 174 66 180 q 100 165 86 168 q 127 162 113 162 q 147 172 140 162 q 147 228 147 195 q 132 286 147 260 q 130 278 132 282 q 118 271 128 271 q 91 276 103 271 q 66 271 79 282 l 66 185 m 185 18 q 218 -1 196 7 q 266 4 240 -10 q 241 18 254 15 q 216 36 227 22 q 194 51 203 47 q 185 71 185 55 q 165 96 169 82 q 151 137 161 110 q 142 145 151 142 q 123 149 134 148 q 100 151 111 151 q 84 151 89 151 q 86 113 84 133 q 97 79 89 92 q 117 62 104 66 q 151 71 130 58 q 157 52 151 57 q 164 50 159 50 q 152 43 158 44 q 142 43 147 43 q 134 42 137 43 q 132 36 132 41 q 151 26 140 30 q 168 20 159 23 q 185 18 176 18 "},"|":{"x_min":35.15625,"x_max":306.484375,"ha":340,"o":"m 135 -6 q 107 0 113 -6 q 91 6 102 6 q 69 34 79 23 q 52 56 59 45 q 39 81 44 67 q 35 116 35 95 q 40 201 45 159 q 35 284 35 243 q 42 368 35 324 q 50 466 50 412 l 50 549 q 44 591 50 570 q 51 633 39 612 q 51 716 51 675 q 62 799 51 758 q 70 888 62 841 q 78 977 78 936 l 78 1062 q 82 1068 82 1062 q 83 1083 83 1075 q 85 1098 83 1091 q 91 1105 86 1105 q 112 1110 102 1115 q 134 1105 122 1105 q 176 1111 156 1105 q 218 1118 197 1118 q 237 1097 226 1108 q 257 1077 248 1087 q 270 1068 268 1077 q 272 1062 272 1064 q 291 1060 282 1062 q 300 1050 300 1059 q 304 967 309 1008 q 300 883 300 926 l 300 716 q 292 675 300 695 q 285 633 285 655 l 285 562 q 274 478 274 520 q 274 393 274 437 q 255 235 261 310 q 257 77 248 161 q 253 30 257 56 q 229 -6 250 3 l 163 -6 l 135 -6 m 272 1034 q 237 1029 252 1034 q 202 1034 222 1024 q 210 1016 202 1027 q 218 1007 214 1011 q 192 1014 197 1007 q 172 1022 186 1022 q 160 1030 163 1031 q 158 1023 157 1029 q 161 1007 158 1016 q 163 994 163 998 q 161 953 163 973 q 140 911 158 933 l 140 605 q 140 446 140 522 q 140 299 140 370 q 129 216 140 258 q 119 132 119 174 l 119 60 q 121 42 119 52 q 135 22 123 31 l 146 22 q 202 22 185 0 q 226 31 222 22 q 231 60 231 41 q 231 132 231 95 q 246 201 231 170 l 246 354 q 251 436 246 396 q 257 506 257 476 q 270 588 270 548 q 270 662 270 627 q 277 700 270 682 q 285 729 285 719 l 285 799 l 285 966 q 287 981 285 970 q 289 1004 289 993 q 285 1025 289 1016 q 272 1034 282 1034 m 257 1050 q 241 1071 252 1059 q 216 1090 230 1082 q 187 1098 201 1098 q 163 1090 172 1098 q 168 1077 167 1085 q 170 1062 168 1070 q 175 1047 171 1054 q 190 1034 179 1039 q 219 1041 206 1037 q 241 1047 230 1044 q 257 1050 252 1050 m 106 1034 q 119 1025 116 1034 q 135 1007 122 1017 q 140 1028 135 1017 q 146 1050 146 1038 q 154 1044 150 1045 q 160 1043 157 1043 q 163 1049 163 1043 q 156 1063 163 1059 q 140 1068 148 1067 q 125 1070 132 1068 q 119 1077 119 1071 l 123 1082 q 125 1087 125 1085 q 118 1090 125 1090 l 106 1090 l 106 1034 m 106 1007 q 98 979 106 997 q 91 950 91 962 q 106 918 91 929 q 135 894 122 906 l 135 966 q 125 992 135 987 q 106 1007 116 997 m 91 894 q 84 870 86 884 q 86 843 82 856 q 102 821 91 830 q 135 812 114 812 l 135 855 q 118 875 135 865 q 91 894 102 886 m 91 812 q 85 770 80 791 q 91 729 91 749 q 99 709 91 719 q 118 700 108 700 q 132 745 130 722 q 135 799 135 768 q 107 795 113 788 q 91 812 102 802 m 91 700 q 84 658 91 679 q 78 616 78 637 q 93 599 78 608 q 118 590 108 590 l 118 662 q 120 668 118 666 q 122 672 122 670 q 120 678 123 675 q 106 689 116 682 q 97 690 102 689 q 91 700 91 693 m 78 590 q 72 556 78 569 q 78 522 67 542 q 89 513 82 522 q 102 499 96 505 q 113 492 108 492 q 118 506 118 491 l 118 562 q 103 576 118 573 q 78 590 88 580 m 78 494 q 70 458 78 473 q 63 421 63 444 q 80 402 63 413 q 118 384 97 391 l 118 451 q 103 472 118 462 q 78 494 88 483 m 63 311 q 84 293 74 302 q 106 284 95 284 q 112 314 106 295 q 118 354 118 334 q 111 364 118 359 q 96 375 105 370 q 78 384 88 380 q 63 393 68 389 l 63 311 m 63 284 q 56 254 58 272 q 58 218 54 236 q 74 186 63 199 q 106 173 85 173 l 106 229 q 111 248 106 240 q 106 257 116 257 q 84 271 95 267 q 63 284 73 274 m 61 161 q 61 130 61 149 q 64 92 61 112 q 76 56 67 73 q 106 34 85 40 l 106 116 q 104 140 106 137 q 91 144 102 144 q 77 152 80 144 q 61 161 73 161 "},"^":{"x_min":35,"x_max":482,"ha":517,"o":"m 41 712 q 80 758 61 738 q 111 800 99 778 q 146 845 130 826 q 181 886 161 865 q 206 911 195 898 q 223 937 217 925 q 236 954 229 943 q 257 972 244 964 q 282 978 266 974 q 311 982 297 982 q 338 976 326 982 q 354 955 349 970 q 361 956 354 960 q 361 945 368 952 q 365 936 362 941 q 371 921 371 925 q 392 880 384 900 q 412 842 400 861 q 427 803 420 822 q 440 765 433 784 q 447 743 445 751 q 456 730 450 736 q 465 704 463 716 q 475 686 468 693 q 478 672 475 679 q 482 661 482 666 l 430 661 q 395 657 416 661 q 361 661 373 654 q 341 691 348 673 q 326 730 333 709 q 315 747 321 736 q 310 772 310 759 q 306 790 310 778 q 310 807 303 801 q 294 792 303 807 q 285 772 285 778 q 266 751 278 759 q 250 730 255 743 q 237 716 243 723 q 232 703 232 709 q 219 702 225 703 q 206 695 213 701 q 193 676 200 688 q 181 651 186 663 q 158 653 173 645 q 136 661 143 661 q 110 662 123 661 q 85 651 97 663 q 81 660 85 658 q 77 668 77 662 l 67 661 q 62 666 67 662 q 60 668 61 668 q 54 676 60 673 q 50 678 51 678 q 35 695 35 684 q 41 712 35 705 m 77 686 q 82 699 77 693 q 95 712 87 705 l 102 720 q 98 734 102 727 q 95 747 95 740 q 76 730 87 740 q 59 710 65 720 q 55 692 53 699 q 77 686 57 686 m 371 903 q 360 923 364 916 q 344 937 357 930 q 331 932 337 937 q 320 928 325 928 q 306 921 312 922 q 292 921 299 921 q 285 911 286 913 q 285 903 285 909 q 276 900 278 903 q 267 886 273 898 q 236 848 254 865 q 206 816 218 830 q 185 796 192 804 q 171 781 178 788 q 153 756 165 769 q 129 737 141 744 q 127 729 129 732 q 119 720 126 727 l 102 703 q 90 689 96 697 q 85 668 85 681 q 103 671 92 668 q 129 668 115 675 q 142 667 134 668 q 164 661 150 666 q 175 665 169 661 q 181 678 181 670 q 195 698 186 691 q 216 712 203 705 q 260 758 242 726 q 292 816 279 790 q 309 827 306 835 q 320 807 312 819 q 324 772 320 787 q 336 737 329 758 q 347 700 343 718 q 371 668 351 682 l 465 668 q 452 708 458 688 q 440 747 445 727 q 423 786 427 766 q 405 823 419 805 q 387 864 398 844 q 371 903 376 883 m 354 955 q 328 968 340 960 q 302 962 315 976 q 304 950 302 956 q 320 937 306 943 l 333 942 q 354 955 347 948 m 275 962 q 242 939 256 956 q 216 903 228 922 q 224 889 221 895 q 241 876 226 883 q 254 893 241 883 q 267 911 267 904 q 254 916 259 911 q 250 928 250 922 q 255 935 252 935 q 262 931 258 935 q 269 924 265 928 q 275 921 272 921 q 287 929 282 921 q 292 937 290 933 q 291 949 292 943 q 285 955 290 955 q 283 961 285 960 q 275 962 282 962 m 146 823 q 140 819 143 822 q 136 807 136 815 q 145 802 143 807 q 154 790 147 797 q 163 786 161 790 q 171 790 165 783 q 176 803 171 797 q 188 816 182 809 q 190 820 192 819 q 183 824 187 822 q 172 828 178 826 q 164 835 166 830 q 165 837 164 836 q 167 840 166 839 q 171 842 168 842 q 180 844 178 848 q 188 835 182 840 q 209 835 202 826 q 223 851 217 844 q 229 859 229 857 q 223 868 229 861 q 206 893 223 880 q 202 895 200 893 q 199 886 204 898 l 193 880 q 188 868 188 872 q 167 849 175 861 q 146 823 159 837 m 146 781 q 136 794 138 788 q 129 800 134 800 q 118 784 124 792 q 106 767 111 776 q 102 752 102 759 q 111 737 102 744 q 131 751 124 744 q 146 765 138 758 q 149 772 152 770 q 146 781 146 774 "},"q":{"x_min":34.5,"x_max":712,"ha":645,"o":"m 433 -576 q 408 -564 422 -572 q 382 -544 394 -555 q 362 -518 370 -533 q 355 -487 355 -504 q 345 -422 345 -455 q 345 -356 345 -389 q 337 -275 330 -312 q 344 -205 344 -238 q 354 -138 354 -172 q 354 -71 354 -105 q 364 -54 362 -66 q 366 -26 366 -41 q 360 4 366 -11 q 344 30 355 19 q 331 38 337 37 q 320 37 326 39 q 308 33 315 36 q 296 31 302 31 q 254 33 274 31 q 224 48 234 35 q 159 86 190 58 q 106 138 128 114 q 71 186 84 159 q 52 244 58 213 q 46 307 46 274 q 46 373 46 340 q 34 401 34 383 q 47 433 34 419 l 47 462 q 53 484 47 473 q 59 507 59 496 q 64 527 59 512 q 78 555 70 541 q 97 578 87 569 q 119 583 108 587 q 137 610 119 605 q 179 625 155 615 q 192 640 184 636 q 209 649 201 645 q 225 657 217 653 q 237 672 233 661 q 252 666 244 665 q 269 670 261 668 q 284 674 277 673 q 296 672 292 676 q 341 670 319 672 q 389 656 364 668 q 425 629 410 645 q 462 612 440 612 q 483 607 475 612 q 500 598 491 602 q 516 588 508 593 q 536 583 525 583 q 568 551 557 571 q 584 504 579 530 q 589 452 589 478 q 583 404 589 426 q 566 192 583 301 q 536 -27 550 83 l 536 -129 q 525 -177 525 -152 q 525 -236 525 -202 q 522 -270 525 -252 q 520 -306 520 -288 q 528 -340 520 -324 q 554 -368 535 -356 q 565 -360 562 -368 q 583 -339 569 -352 q 591 -362 594 -350 q 577 -384 587 -375 q 555 -395 568 -393 q 536 -386 543 -397 q 510 -361 513 -372 q 507 -326 507 -350 l 507 -297 l 507 -236 q 515 -159 507 -202 q 523 -71 523 -115 q 529 24 523 -26 q 536 120 536 75 q 553 217 553 163 q 565 315 553 270 q 568 351 565 330 q 572 397 572 373 q 572 445 572 420 q 565 492 572 469 q 538 547 565 524 q 476 583 512 570 q 447 589 465 583 q 417 596 428 596 l 326 596 q 298 589 316 596 q 268 583 280 583 q 232 573 244 583 q 208 554 220 563 q 194 551 198 554 q 179 535 191 549 q 177 528 179 531 q 166 522 174 522 q 148 478 152 498 q 136 447 145 458 q 124 416 129 434 q 116 379 119 398 q 114 343 114 360 q 119 315 114 326 q 145 249 131 279 q 195 196 159 219 q 241 153 217 173 q 297 119 265 133 q 335 114 319 109 q 373 120 351 120 q 389 134 379 126 q 409 147 399 142 q 426 154 419 153 q 433 150 433 155 q 446 105 446 126 q 446 61 446 83 l 446 -27 q 434 -64 435 -51 q 433 -100 433 -78 q 430 -122 433 -112 q 417 -147 428 -133 l 417 -191 q 404 -322 404 -258 q 404 -444 404 -386 q 413 -489 404 -468 q 433 -533 422 -511 q 472 -560 444 -557 q 523 -564 501 -564 q 632 -539 589 -564 q 684 -457 674 -515 q 689 -428 684 -446 q 694 -394 694 -411 q 690 -361 694 -376 q 671 -339 686 -345 q 647 -337 657 -339 q 624 -326 636 -336 q 617 -321 620 -320 q 611 -326 614 -321 q 605 -334 609 -330 q 595 -339 600 -339 q 605 -319 595 -323 q 627 -316 614 -314 q 652 -321 639 -317 q 671 -326 664 -326 q 690 -323 682 -326 q 703 -321 698 -321 q 710 -323 708 -320 q 712 -338 712 -327 q 712 -383 712 -361 q 701 -428 712 -405 q 689 -482 701 -450 q 653 -545 677 -514 q 629 -561 642 -557 q 602 -568 616 -566 q 570 -570 587 -569 q 536 -576 554 -572 q 484 -589 513 -589 q 433 -576 455 -589 m 403 -516 q 396 -489 403 -507 q 389 -457 389 -471 l 389 -415 q 386 -401 389 -403 q 373 -399 384 -399 q 364 -423 364 -405 q 371 -460 364 -440 q 387 -496 378 -479 q 403 -516 397 -512 m 373 -161 q 398 -157 389 -166 q 408 -136 406 -148 q 404 -111 409 -123 q 388 -100 399 -100 q 379 -107 383 -100 q 374 -125 376 -115 q 373 -145 373 -136 q 373 -161 373 -155 m 403 -88 q 411 -71 408 -82 q 412 -51 414 -61 q 405 -34 411 -41 q 389 -27 400 -27 q 389 -42 389 -31 q 390 -62 389 -52 q 394 -80 391 -72 q 403 -88 397 -88 m 403 -11 q 417 2 413 -11 q 422 34 422 16 q 420 69 422 52 q 418 90 418 85 q 405 81 407 90 q 403 61 403 73 q 382 48 391 51 q 373 31 373 44 q 388 10 384 21 q 403 -11 391 -1 m 268 656 q 265 646 263 651 q 273 635 268 640 q 285 627 278 630 q 296 625 292 625 q 341 620 319 615 q 389 625 364 625 q 357 640 377 638 q 314 643 337 643 q 290 649 301 643 q 268 656 280 656 m 224 643 q 189 632 202 643 q 166 613 175 622 q 180 586 175 590 q 208 583 185 583 q 224 590 213 587 q 244 595 234 593 q 261 602 254 598 q 268 613 268 605 q 260 617 263 613 q 252 627 256 622 q 242 638 248 633 q 224 643 235 643 m 106 535 q 103 515 94 524 q 135 507 113 507 q 155 523 145 507 q 166 554 166 540 q 169 574 176 563 q 148 596 162 586 q 127 561 138 573 q 106 535 116 549 m 89 492 q 80 482 85 492 q 69 459 74 472 q 61 434 64 447 q 59 415 59 422 q 106 415 84 399 q 114 454 106 438 q 136 492 123 469 l 89 492 m 59 386 q 61 341 59 363 q 78 297 63 319 q 92 300 88 297 q 94 310 95 303 q 92 324 94 316 q 90 344 90 333 l 90 373 q 82 379 87 376 q 72 383 78 381 q 59 386 66 386 m 78 267 q 80 242 78 256 q 89 216 83 227 q 107 201 95 205 q 136 208 119 197 q 127 232 136 222 q 119 255 119 243 q 98 272 109 265 q 78 267 87 280 m 107 179 q 113 163 107 174 q 131 140 120 151 q 154 122 141 129 q 179 120 167 115 q 183 132 179 126 q 191 143 187 138 q 197 154 195 148 q 195 166 199 159 q 172 186 183 176 q 148 196 161 196 q 127 187 138 196 q 107 179 116 179 m 268 107 q 246 122 258 107 q 224 138 234 138 q 201 122 212 138 q 179 107 191 107 q 268 61 224 61 l 268 107 m 344 61 q 362 63 352 61 q 373 77 373 65 q 393 94 384 77 q 403 120 403 110 q 349 100 380 109 q 296 90 319 90 q 292 81 293 87 q 291 72 291 77 q 296 61 291 68 l 344 61 m 355 -205 q 355 -221 355 -211 q 358 -242 355 -231 q 368 -260 361 -252 q 389 -268 375 -268 q 396 -229 389 -244 q 403 -191 403 -213 q 380 -187 391 -180 q 355 -205 369 -194 m 355 -279 q 353 -305 355 -290 q 354 -334 352 -320 q 364 -358 356 -348 q 389 -368 372 -368 l 389 -326 q 384 -291 389 -304 q 355 -279 380 -279 m 314 404 q 326 414 314 408 q 355 425 338 421 q 389 429 372 429 q 417 415 406 429 q 404 371 406 392 q 403 326 403 349 q 401 306 403 317 q 389 284 400 294 q 365 295 377 294 q 344 297 352 297 q 304 343 308 319 q 314 404 301 367 m 389 404 q 374 406 383 408 q 358 399 366 404 q 341 390 349 394 q 326 386 332 386 q 324 366 326 374 q 324 351 323 358 q 328 339 324 345 q 344 326 332 333 q 361 312 355 315 q 371 312 367 309 q 379 324 376 316 q 389 344 383 333 l 389 404 "},"b":{"x_min":33.046875,"x_max":767,"ha":805,"o":"m 605 29 q 515 0 564 0 q 423 13 465 0 q 380 11 403 13 q 334 6 358 8 q 286 4 310 4 q 241 14 262 4 q 212 24 229 14 q 167 49 195 34 l 153 66 l 116 66 q 87 77 101 66 q 59 102 74 89 q 40 120 44 110 q 37 140 37 130 q 39 159 37 150 q 42 174 42 168 q 36 284 27 228 q 59 393 46 339 q 69 485 59 437 q 80 575 80 534 q 104 702 92 645 q 116 813 116 758 q 131 913 126 869 q 153 1011 136 957 q 160 1052 153 1026 q 167 1106 167 1078 q 187 1130 184 1117 q 190 1157 190 1144 l 190 1213 q 210 1242 195 1234 q 244 1254 226 1251 q 281 1258 262 1258 q 315 1265 300 1258 q 335 1270 327 1265 q 349 1282 342 1276 q 364 1290 356 1288 q 385 1288 371 1293 q 432 1295 413 1288 q 479 1302 452 1302 q 495 1295 490 1302 q 516 1288 500 1288 q 509 1201 516 1246 q 495 1112 503 1157 q 477 1023 486 1068 q 459 939 467 979 q 433 832 447 883 q 408 740 418 780 q 404 714 408 726 q 401 692 401 701 q 405 676 401 682 q 423 670 409 670 l 495 670 q 489 656 495 661 q 477 647 484 651 q 464 640 470 644 q 459 632 459 637 l 385 632 q 382 723 374 672 q 408 829 391 775 q 433 941 418 884 q 459 1068 447 997 q 477 1159 477 1108 q 477 1265 477 1211 q 453 1277 468 1273 q 421 1282 437 1282 q 391 1277 405 1282 q 371 1265 377 1273 q 349 1223 358 1245 q 336 1179 341 1201 q 326 1137 331 1157 q 315 1106 321 1118 q 293 1047 299 1078 q 288 985 288 1016 q 288 923 288 954 q 277 865 288 893 q 251 757 266 811 q 225 647 236 703 l 225 559 q 215 504 225 531 q 205 451 205 477 q 202 403 205 423 q 190 355 200 383 q 178 302 190 329 q 167 247 167 274 q 160 207 167 227 q 148 166 153 187 q 145 125 143 145 q 166 85 147 105 q 224 43 194 58 q 298 29 255 29 q 407 23 353 29 q 516 29 461 18 q 602 71 571 44 q 662 137 634 98 q 713 215 688 180 q 751 304 738 251 q 753 391 753 345 q 738 479 753 437 q 694 557 723 522 q 625 611 666 591 q 597 631 610 626 q 567 647 584 636 q 542 641 556 647 q 516 647 528 636 q 540 663 521 663 q 579 658 559 663 q 617 645 599 653 q 641 632 635 637 q 677 604 662 618 q 704 574 692 590 q 726 541 716 559 q 751 502 737 523 q 767 413 767 463 q 767 320 767 363 q 766 283 767 308 q 751 233 765 259 q 744 214 751 224 q 730 193 738 203 q 712 173 721 182 q 698 159 703 164 q 650 93 670 131 q 605 29 631 56 m 315 1250 q 288 1236 307 1241 q 250 1227 268 1231 q 221 1214 231 1222 q 225 1193 211 1206 q 251 1169 236 1181 q 277 1156 266 1156 q 291 1166 285 1156 q 303 1190 298 1176 q 312 1220 309 1204 q 315 1250 315 1236 m 225 1157 q 211 1130 217 1143 q 206 1106 206 1117 q 213 1090 206 1096 q 241 1084 221 1084 q 266 1078 256 1084 q 277 1084 277 1072 q 287 1112 277 1100 q 298 1140 298 1125 q 273 1134 283 1133 q 254 1141 263 1136 q 238 1151 245 1145 q 225 1157 231 1157 m 205 1067 q 193 1046 199 1058 q 183 1021 186 1034 q 180 995 180 1008 q 190 975 180 983 q 204 957 195 961 q 223 950 213 952 q 243 947 234 948 q 262 939 253 945 q 269 991 262 966 q 277 1032 277 1016 q 268 1053 277 1046 q 248 1063 260 1060 q 225 1067 236 1067 q 205 1067 213 1067 m 167 939 q 162 909 167 925 q 154 877 157 893 q 151 850 150 862 q 167 829 153 837 q 213 820 194 815 q 242 841 231 825 q 257 879 253 857 q 262 922 262 901 q 214 930 234 922 q 167 939 195 939 m 116 538 q 106 512 116 526 q 97 485 97 498 q 125 467 112 470 q 167 465 139 465 q 187 493 184 480 q 190 522 190 506 q 197 579 200 549 q 205 647 194 608 q 228 721 220 690 q 225 793 236 752 q 187 795 210 793 q 153 813 164 798 q 133 767 136 786 q 131 721 131 748 q 151 703 139 707 q 176 696 164 699 q 196 693 188 694 q 205 685 205 692 q 196 665 205 670 q 178 663 188 661 q 153 670 167 664 q 131 678 136 681 q 116 647 126 675 q 117 627 116 637 q 121 610 118 619 q 131 596 124 601 l 167 596 q 173 581 175 587 q 165 571 172 575 q 148 568 158 568 q 131 575 139 568 q 118 570 120 575 q 116 538 116 566 m 97 465 q 88 413 97 437 q 80 377 80 388 q 114 351 92 361 q 153 342 136 342 q 165 375 165 353 q 165 413 165 398 q 169 422 165 419 q 173 427 172 426 q 170 429 174 429 q 153 429 167 429 q 124 449 136 445 q 97 465 111 453 m 116 102 q 118 132 116 117 q 131 174 120 146 q 97 187 120 174 q 59 210 74 199 q 59 172 59 191 q 64 137 59 152 q 82 112 70 122 q 116 102 94 102 m 153 233 q 155 250 153 238 q 158 275 157 262 q 159 301 159 288 q 153 321 159 314 q 114 323 136 321 q 80 342 92 326 q 61 303 64 326 q 59 268 59 280 q 80 242 67 259 q 105 215 92 226 q 131 204 118 204 q 153 233 144 204 m 423 377 q 443 404 431 397 q 469 411 456 412 q 495 400 482 409 q 516 377 507 391 q 533 356 529 369 q 533 329 536 343 q 519 304 529 316 q 495 284 509 291 q 492 270 495 272 q 480 268 490 268 q 477 249 480 252 q 459 247 474 247 q 444 247 453 247 q 427 249 435 247 q 413 255 419 251 q 408 268 408 259 q 415 323 418 295 q 423 377 412 350 m 445 268 q 481 285 463 268 q 505 322 499 302 q 502 360 511 343 q 459 377 493 377 q 445 328 445 361 q 445 268 445 295 "},"D":{"x_min":37,"x_max":854,"ha":892,"o":"m 58 377 q 47 480 58 422 q 37 601 37 538 q 37 715 37 663 q 55 830 37 768 q 97 919 69 875 q 157 996 125 964 q 201 1010 175 1010 q 240 1010 227 1010 q 269 1013 257 1010 q 281 1036 281 1017 l 322 1036 q 377 1039 353 1036 q 422 1042 401 1042 q 464 1042 443 1042 q 509 1036 484 1042 q 557 1004 541 1018 q 591 972 573 990 q 631 942 605 958 q 674 912 656 925 q 712 885 696 904 q 742 845 728 866 q 769 802 756 823 q 798 765 782 780 q 840 664 827 720 q 854 559 854 608 q 854 495 854 527 q 838 418 854 462 q 806 335 820 370 q 774 255 792 299 q 746 222 760 237 q 733 190 733 208 q 718 173 726 183 q 703 154 710 163 q 687 138 695 145 q 674 132 680 132 l 609 66 q 570 38 595 54 q 527 8 545 22 q 479 -12 504 -6 q 426 -18 453 -18 q 373 -18 399 -18 q 322 -18 346 -18 q 305 -10 315 -18 q 281 3 294 -2 q 253 12 267 9 q 223 8 238 15 q 190 10 204 8 q 157 26 175 12 q 110 49 127 34 q 84 84 92 65 q 77 126 77 104 q 77 173 77 148 q 73 200 77 188 q 66 223 70 212 q 60 246 63 234 q 58 273 58 258 l 58 377 m 199 436 q 168 442 183 436 q 137 457 152 448 q 106 471 122 465 q 76 478 91 478 q 76 457 76 471 q 78 427 76 443 q 85 398 80 412 q 100 377 90 384 q 139 348 112 360 q 199 337 167 337 l 199 436 m 200 149 q 178 166 192 158 q 148 181 164 174 q 119 196 133 188 q 99 213 105 205 q 99 176 99 198 q 102 131 99 155 q 115 86 106 108 q 140 50 123 65 l 200 50 l 200 149 m 200 190 q 203 210 200 198 q 208 237 206 223 q 209 266 210 251 q 200 297 208 281 q 139 308 167 297 q 100 337 112 319 q 89 316 90 328 q 90 291 87 305 q 96 262 92 277 q 100 231 100 247 q 117 250 112 250 q 140 231 122 250 q 169 203 153 217 q 200 190 185 190 m 551 972 q 507 1000 533 989 q 468 1012 481 1012 q 479 995 468 1000 q 509 972 491 990 l 551 972 m 429 996 q 424 1023 434 1018 q 399 1023 415 1027 q 368 1010 384 1019 q 345 996 352 1001 q 354 980 345 987 q 377 971 364 973 q 405 975 391 969 q 429 996 420 980 m 386 954 q 343 942 368 954 q 304 930 318 930 q 274 918 286 930 q 263 889 263 906 q 251 860 263 876 q 240 830 240 844 q 231 786 240 812 q 223 748 223 761 q 225 695 223 716 q 240 641 227 673 l 240 625 q 225 601 227 606 q 223 583 223 596 l 223 418 q 231 376 223 401 q 240 336 240 350 l 240 231 q 227 201 227 217 q 240 173 227 185 q 225 129 225 155 q 225 90 225 104 q 260 29 230 50 q 331 3 291 9 q 413 4 371 -2 q 485 26 455 11 q 636 116 565 56 q 756 255 707 176 q 787 347 771 301 q 811 439 802 392 q 821 532 821 485 q 815 625 821 578 q 801 695 815 655 q 756 765 788 734 l 756 788 q 751 798 756 795 q 743 804 747 801 q 733 807 738 807 q 714 841 719 825 q 691 889 709 858 l 651 889 q 640 902 644 897 q 632 911 635 908 q 623 919 629 914 q 609 930 617 923 q 579 942 595 930 q 551 954 563 954 l 386 954 m 181 972 q 171 965 172 972 q 174 951 170 959 q 185 936 178 942 q 200 930 192 930 q 223 912 214 914 q 237 916 231 910 q 249 934 244 923 q 263 953 254 945 q 285 965 269 960 q 312 972 300 969 q 325 981 324 976 q 304 996 326 987 q 258 1002 286 1008 q 200 996 229 996 l 181 972 m 100 872 q 102 848 100 857 q 111 830 105 838 q 124 813 116 822 q 140 788 131 804 q 168 762 155 772 q 189 752 179 754 q 200 765 200 750 q 202 825 200 797 q 223 872 205 854 q 198 885 208 877 q 181 900 189 893 q 163 915 172 908 q 140 930 155 923 q 126 900 140 916 q 100 872 112 884 m 76 683 q 103 674 90 683 q 130 654 116 665 q 160 634 144 643 q 200 625 177 625 l 200 706 q 159 736 185 720 q 116 765 134 752 q 105 780 111 775 q 92 782 99 784 q 76 765 84 780 l 76 683 m 76 665 q 69 631 69 649 q 69 592 69 612 q 72 552 69 571 q 76 518 76 533 q 103 511 90 518 q 128 498 116 505 q 152 484 140 490 q 181 478 165 478 q 186 504 181 486 q 196 541 192 522 q 198 577 200 560 q 181 601 196 594 q 152 608 165 601 q 128 624 139 615 q 103 645 116 634 q 76 665 90 656 m 485 377 q 455 386 471 377 q 429 396 439 396 q 431 404 429 404 q 439 403 434 405 q 451 398 444 401 q 467 396 459 396 q 495 409 481 396 q 509 436 509 422 q 522 462 515 444 q 531 497 529 480 q 529 528 533 515 q 509 541 524 541 q 485 544 493 548 q 472 533 476 541 q 468 516 468 526 q 468 501 468 506 q 469 468 468 486 q 470 436 470 450 q 464 415 470 422 q 444 418 459 409 q 433 488 433 449 q 444 559 433 527 q 457 587 444 577 q 485 583 471 596 q 515 580 503 583 q 527 559 527 577 q 550 529 545 545 q 568 501 555 513 q 565 477 568 486 q 556 459 562 468 q 543 442 551 451 q 527 418 535 433 q 515 389 527 401 q 485 377 503 377 "},"z":{"x_min":34.71875,"x_max":756.0625,"ha":791,"o":"m 724 629 q 726 621 724 622 q 733 620 729 620 q 743 619 738 620 q 756 611 749 618 q 740 593 749 600 q 724 582 732 587 q 711 569 716 576 q 707 550 707 562 q 694 545 701 550 q 681 535 687 540 q 662 520 672 528 q 638 484 649 496 q 615 458 628 471 q 584 424 603 442 q 548 387 566 407 q 514 347 529 368 q 492 304 498 326 q 482 290 492 294 q 460 273 473 287 q 454 250 460 262 q 448 229 448 239 q 417 203 435 217 q 399 168 399 190 q 531 174 469 168 q 662 181 593 181 q 685 174 674 181 q 707 168 697 168 q 722 165 718 168 q 727 155 727 161 q 724 139 727 149 q 721 118 721 130 q 721 52 721 86 q 707 -4 721 19 q 660 2 683 8 q 615 -4 637 -4 q 583 10 604 8 q 539 13 562 13 q 543 -3 539 0 q 539 -16 548 -6 q 511 -11 527 -11 q 476 -11 494 -11 q 437 -11 457 -11 q 399 -4 417 -11 q 362 3 381 3 q 321 3 342 3 q 277 3 300 3 q 231 13 254 3 q 161 6 195 13 q 90 12 127 0 q 53 39 57 23 q 60 89 48 55 q 77 99 73 89 q 90 118 80 109 q 99 120 94 118 q 105 126 101 123 q 108 136 108 129 q 121 159 120 147 q 123 181 123 171 q 176 250 144 217 q 231 321 208 284 q 268 373 254 344 q 307 414 283 401 q 326 436 318 425 q 336 456 334 447 q 332 470 338 465 q 307 476 325 476 q 284 473 296 476 q 262 458 272 471 q 244 466 253 462 q 229 473 237 469 q 214 477 221 477 q 138 497 181 486 q 60 520 96 508 q 53 555 60 537 q 40 587 47 572 q 34 616 34 602 q 45 643 34 630 q 54 667 45 656 q 78 690 64 677 l 90 690 q 98 692 97 690 q 99 697 99 694 q 100 701 99 699 q 108 704 101 704 q 129 719 114 716 q 162 723 145 723 q 194 717 179 723 q 214 705 210 711 q 305 697 259 705 q 399 690 351 690 q 445 682 422 690 q 492 674 468 674 l 583 674 q 623 667 607 674 q 662 661 639 661 q 706 658 686 661 q 738 643 726 656 q 736 636 738 638 q 724 629 733 629 m 108 690 q 72 651 84 667 q 60 611 60 634 q 84 613 73 611 q 108 629 94 615 l 108 690 m 78 550 q 98 547 87 540 q 108 568 108 554 q 118 586 120 579 q 109 597 117 594 q 92 596 101 600 q 78 582 82 593 l 78 550 m 169 506 q 192 523 181 506 q 214 550 204 540 q 197 576 214 573 q 170 568 181 579 q 123 519 123 568 q 145 512 135 519 q 169 506 156 506 m 275 506 q 277 528 275 516 q 293 550 279 540 q 268 565 279 563 q 244 568 258 568 q 230 545 239 557 q 214 523 221 533 q 210 503 208 512 q 231 489 212 494 q 253 491 242 489 q 275 506 265 493 m 325 489 q 375 498 356 489 q 416 520 393 508 q 390 526 404 520 q 361 539 376 533 q 332 547 346 546 q 307 537 318 548 q 300 520 307 524 q 293 505 293 516 q 295 490 293 494 q 302 486 298 486 q 312 487 307 486 q 325 489 318 489 m 448 520 q 410 497 424 508 q 386 476 395 486 q 376 465 380 470 q 370 455 373 459 q 368 445 368 450 l 416 445 q 438 467 427 456 q 460 489 450 479 q 477 516 484 513 q 448 520 471 520 m 354 426 q 330 406 340 417 q 307 383 321 394 q 330 367 321 369 q 354 365 340 365 q 377 390 365 379 q 399 414 388 401 q 400 419 404 418 q 387 420 396 420 q 369 421 379 420 q 354 426 359 422 m 293 365 q 278 350 286 361 q 265 328 270 340 q 262 306 261 316 q 275 291 263 296 q 317 310 298 291 q 336 353 336 329 q 315 354 327 353 q 293 365 304 355 m 152 181 q 146 159 152 171 q 152 136 141 147 q 165 133 158 129 q 177 146 171 137 q 188 166 182 155 q 202 181 195 176 q 199 190 202 186 q 195 197 196 194 q 194 203 193 200 q 202 213 195 207 l 214 213 q 228 215 226 213 q 231 229 231 217 q 244 237 236 233 q 258 244 251 240 q 270 255 265 248 q 275 273 275 261 q 253 287 265 287 q 231 273 242 287 q 187 227 208 250 q 152 181 165 204 m 695 582 q 695 643 736 623 q 632 645 657 643 q 583 661 607 647 l 460 661 q 391 672 427 672 q 325 672 356 672 q 240 688 277 688 q 170 688 203 688 q 157 690 163 688 q 147 693 152 693 q 141 688 143 693 q 139 673 139 684 l 139 596 q 192 596 163 596 q 244 582 221 596 l 293 582 q 328 575 317 582 q 354 568 340 568 q 397 559 376 559 q 438 559 418 559 q 477 559 457 559 q 521 550 497 559 q 534 540 533 545 q 532 528 536 535 q 521 517 527 522 q 509 506 514 511 q 485 474 496 493 q 460 445 473 455 q 423 405 438 421 q 386 365 408 389 q 363 343 372 355 q 354 321 354 332 q 336 305 340 308 q 325 291 333 301 q 317 280 318 284 q 318 274 316 277 q 322 268 319 270 q 325 260 325 265 l 307 260 q 285 242 295 246 q 275 229 275 239 q 253 205 265 217 q 231 181 242 193 q 207 156 218 171 q 184 118 197 141 q 177 106 184 109 q 170 89 170 102 q 154 66 156 78 q 152 45 152 54 q 149 30 152 32 q 145 33 147 29 q 141 45 143 37 q 139 57 139 53 q 143 73 139 64 q 151 90 147 82 q 157 106 156 98 q 152 118 158 113 q 132 123 140 125 q 119 116 124 122 q 111 103 114 111 q 109 89 109 95 q 93 84 101 89 q 79 71 84 79 q 72 56 73 64 q 78 45 71 49 q 94 30 78 32 q 123 28 111 28 q 194 22 158 17 q 275 28 229 28 l 368 28 q 408 20 391 28 q 447 13 424 13 q 494 20 471 13 q 539 28 516 28 q 592 20 562 28 q 644 13 622 13 l 695 13 q 696 34 695 23 q 707 45 697 45 l 707 117 q 705 140 707 131 q 694 149 704 149 l 644 149 l 552 149 q 476 149 520 149 q 386 136 431 149 q 370 130 373 129 q 367 138 366 132 q 373 153 367 144 q 386 168 379 161 q 391 187 386 176 q 399 197 394 193 q 407 211 399 208 q 416 213 411 213 l 416 229 q 464 305 439 262 q 521 383 489 347 q 547 412 534 394 q 583 445 559 431 q 607 480 596 467 q 632 506 619 493 q 645 528 642 516 q 662 550 649 540 q 684 560 674 550 q 695 582 695 571 m 123 118 q 135 112 135 118 q 123 107 135 107 l 123 118 "},"w":{"x_min":34.234375,"x_max":1079,"ha":1114,"o":"m 1016 696 q 1052 674 1039 686 q 1079 651 1065 662 q 1073 619 1079 631 q 1060 595 1067 606 q 1044 570 1052 583 q 1029 538 1035 557 q 1015 509 1019 528 q 997 476 1012 490 q 983 440 987 452 q 966 413 979 427 q 959 391 966 402 q 952 368 952 379 q 927 328 938 344 q 902 288 917 312 q 865 210 880 254 q 827 130 850 166 q 802 71 813 95 q 779 24 791 47 q 757 0 766 4 q 741 0 748 -3 q 727 14 734 4 q 714 36 721 25 q 700 58 703 49 q 684 68 696 68 q 676 105 684 91 q 669 130 669 119 q 645 168 656 154 q 620 194 634 183 q 599 226 609 206 q 590 257 590 245 q 550 220 566 240 q 520 177 534 200 q 494 132 507 155 q 463 84 481 108 q 455 54 460 68 q 444 33 451 42 q 431 24 438 24 q 417 30 421 24 q 400 36 414 36 q 386 31 389 36 q 368 36 382 26 q 324 55 345 49 q 292 84 303 61 q 275 107 279 95 q 262 130 272 119 q 255 139 257 135 q 253 145 252 142 q 262 149 255 149 q 258 159 262 154 q 252 169 255 165 l 243 179 q 241 201 243 190 q 230 224 240 213 q 214 250 216 238 q 212 274 212 261 q 175 336 188 308 q 148 400 163 364 q 124 447 138 423 q 86 494 109 470 q 84 516 86 504 q 73 538 83 528 q 62 563 73 552 q 41 588 51 575 q 38 632 29 612 q 65 666 47 651 q 108 688 84 680 q 148 696 131 696 q 172 698 160 696 q 194 703 184 701 q 214 704 205 705 q 230 695 223 702 q 243 675 240 686 q 262 665 247 665 q 283 652 272 654 q 306 651 295 651 q 332 595 320 628 q 368 538 345 562 q 393 491 382 515 q 418 444 404 467 q 445 480 431 456 q 476 524 459 504 q 514 557 494 545 q 557 557 534 569 q 572 543 563 545 q 590 539 581 541 q 606 530 599 537 q 620 507 614 524 q 667 460 643 483 q 714 413 691 437 q 722 429 721 420 q 723 446 723 437 q 724 462 723 455 q 732 476 725 470 q 753 509 743 489 q 763 538 763 528 q 776 556 774 552 q 779 571 779 559 q 787 588 779 584 q 795 601 795 591 q 808 628 804 615 q 827 665 813 641 q 877 715 850 702 q 952 728 905 728 q 988 723 976 728 q 1016 696 1001 719 m 984 696 q 990 691 987 693 q 997 696 997 687 l 984 696 m 984 695 l 984 715 l 984 695 m 934 715 q 923 711 928 715 q 913 705 918 708 q 902 696 907 700 q 917 676 902 686 l 934 665 q 967 653 947 653 q 997 653 987 653 q 992 670 997 664 q 980 680 987 676 q 965 688 972 684 q 952 696 957 691 q 943 717 952 710 q 934 715 934 724 m 841 651 q 837 626 829 637 q 858 601 845 616 q 885 608 874 596 q 900 637 896 620 q 897 668 903 653 q 873 683 891 683 q 857 672 862 683 q 841 651 853 662 m 809 601 q 807 579 809 591 q 795 557 806 568 q 818 546 806 557 q 841 526 829 535 q 845 544 841 537 q 855 556 850 551 q 861 569 859 562 q 858 588 863 576 l 855 594 q 850 599 852 597 q 841 601 848 601 q 832 603 835 601 q 826 608 829 606 q 819 609 822 610 q 809 601 815 608 m 779 538 q 776 509 779 528 q 763 476 774 490 q 785 456 774 464 q 809 462 797 448 q 824 485 822 473 q 827 507 827 497 q 802 517 813 507 q 779 538 791 528 m 763 462 q 749 429 751 448 q 747 400 747 411 l 763 400 q 757 383 751 387 q 763 368 763 379 q 787 419 787 391 q 763 462 787 448 m 557 526 q 559 519 556 521 q 574 526 562 512 l 557 526 m 544 476 q 544 496 549 487 q 532 508 539 505 q 518 509 525 512 q 512 494 512 506 q 521 472 512 480 q 544 476 530 464 m 512 462 q 499 463 504 462 q 489 465 493 465 q 482 460 485 465 q 480 444 480 456 q 486 442 482 444 q 495 432 495 440 q 515 440 507 432 q 512 462 523 448 m 463 432 q 452 404 453 418 q 451 368 451 391 q 464 356 460 356 q 480 368 467 356 q 489 404 491 391 q 463 432 486 418 m 148 683 q 172 660 160 670 q 198 643 184 649 q 227 638 211 637 q 262 651 242 639 q 227 672 246 662 q 198 683 209 683 l 148 683 m 148 633 q 145 618 143 620 q 154 616 148 615 q 168 623 160 618 q 180 633 175 629 l 148 633 m 104 665 q 81 650 90 654 q 73 633 73 646 q 89 632 77 633 q 114 631 102 631 q 133 635 126 631 q 136 651 140 639 q 118 663 122 662 q 104 665 115 665 m 104 571 q 126 564 115 571 q 148 557 138 557 q 137 571 138 568 q 136 588 136 575 q 99 600 122 600 q 54 600 77 600 q 63 588 54 591 q 73 571 73 584 l 104 571 m 104 538 q 111 516 104 528 q 118 494 118 504 q 155 483 141 494 q 180 462 170 473 q 172 498 180 485 q 153 519 164 512 q 129 530 142 527 q 104 538 116 534 m 148 462 q 159 424 148 438 q 180 400 170 411 q 198 404 180 409 q 230 400 216 400 q 189 435 216 423 q 148 462 163 448 m 230 337 q 252 324 243 328 q 267 323 260 321 q 275 337 275 324 q 259 359 270 348 q 234 375 248 370 q 206 381 220 381 q 180 368 192 381 q 195 358 193 368 q 198 337 198 348 l 230 337 m 230 274 q 251 269 234 274 q 285 262 269 265 q 309 261 301 260 q 306 273 317 262 q 282 290 294 286 q 258 295 270 294 q 235 297 247 297 q 212 305 223 297 q 220 283 212 294 q 230 274 224 278 m 306 162 q 314 173 313 167 q 315 182 315 179 q 316 185 315 185 q 324 179 317 184 q 337 170 334 179 q 356 162 340 162 q 337 194 340 174 q 324 224 334 213 q 288 240 310 238 q 243 243 266 243 q 262 196 243 219 q 306 162 282 174 m 306 149 q 334 102 319 125 q 387 68 349 80 q 365 126 387 104 q 306 149 343 149 m 1029 588 q 1040 611 1035 601 q 1045 628 1045 622 q 1039 633 1045 635 q 1016 621 1033 632 q 989 630 1003 625 q 961 636 974 634 q 936 635 947 638 q 921 621 925 632 q 887 573 906 597 q 858 526 869 549 q 848 489 858 507 q 826 453 838 471 q 804 418 814 436 q 795 383 795 401 q 785 367 788 378 q 776 347 781 357 q 765 334 771 338 q 747 337 759 330 q 723 368 735 348 q 701 400 712 387 q 663 429 677 411 q 638 462 649 448 q 613 490 624 478 q 596 502 603 499 q 590 494 590 505 q 590 486 590 487 q 588 485 590 485 q 583 484 587 485 q 574 476 580 483 q 558 466 562 476 q 544 444 555 457 q 541 431 544 434 q 526 413 539 427 q 519 391 526 402 q 512 368 512 379 q 495 337 499 356 q 480 319 490 319 q 459 318 468 313 q 444 332 450 323 q 434 351 438 341 q 431 368 431 361 q 409 417 421 391 q 387 476 398 442 q 353 516 372 499 q 324 557 334 533 q 314 566 319 561 q 306 588 306 577 q 297 607 300 601 q 289 616 293 614 q 279 620 285 619 q 262 621 273 621 q 214 598 238 605 q 167 601 191 591 q 173 579 177 591 q 180 557 170 568 q 197 530 193 542 q 212 494 200 517 q 245 429 226 470 q 275 351 264 387 q 315 281 297 316 q 356 211 332 245 q 360 189 356 198 q 371 170 365 180 q 382 152 377 160 q 387 130 387 143 q 395 93 387 107 q 418 68 404 80 q 441 93 428 80 q 463 130 453 107 q 485 157 475 144 q 495 194 495 170 q 526 222 513 205 q 550 257 539 238 q 575 291 562 275 q 606 319 588 308 l 606 288 l 606 257 q 629 220 617 233 q 652 194 641 206 q 676 155 664 170 q 701 116 688 140 q 710 71 701 93 q 732 36 719 49 q 753 36 744 31 q 767 49 762 40 q 776 68 773 58 q 779 84 779 77 q 802 123 791 108 q 827 162 813 139 q 865 255 850 209 q 902 337 880 301 q 927 375 917 361 q 952 413 938 390 q 956 434 952 425 q 968 453 961 444 q 979 472 974 462 q 984 494 984 482 q 1006 541 994 517 q 1029 588 1019 565 m 1029 665 q 1037 652 1029 655 q 1047 651 1041 651 q 1043 658 1047 653 q 1038 663 1041 661 q 1029 665 1035 665 "},"$":{"x_min":34.828125,"x_max":639,"ha":674,"o":"m 280 23 q 262 15 271 15 q 237 15 253 15 q 221 10 227 5 q 205 15 214 15 q 203 16 205 17 q 198 13 202 15 q 191 11 195 11 q 183 15 187 11 q 180 34 176 21 q 184 57 184 47 q 189 82 184 72 q 195 108 195 93 q 183 122 195 116 q 155 133 171 128 q 123 142 139 138 q 99 151 107 147 q 87 153 94 151 q 73 158 80 155 q 61 164 67 160 q 56 172 56 168 q 37 203 40 187 q 34 236 34 219 q 46 267 44 251 q 56 298 48 283 l 56 319 l 76 319 q 97 333 93 328 q 110 331 101 338 q 121 338 118 336 q 126 343 124 341 q 130 342 128 344 q 141 331 133 340 q 178 306 156 316 q 217 290 200 296 q 242 288 232 282 q 258 307 252 294 q 265 335 263 319 q 268 362 268 351 q 278 392 277 377 q 280 416 280 406 q 287 431 286 423 q 289 447 289 440 q 274 453 282 447 q 259 460 265 460 q 236 470 249 466 q 217 488 223 473 q 186 492 200 481 q 162 510 171 504 q 138 548 146 526 q 120 586 130 570 q 117 643 113 609 q 133 701 122 677 q 143 728 133 716 q 153 755 153 740 q 158 775 153 762 q 174 797 164 788 q 189 821 181 812 q 205 840 197 830 q 215 845 214 840 q 217 861 217 850 l 237 861 q 246 868 244 867 q 259 869 249 869 q 264 874 260 871 q 271 879 266 877 q 280 882 275 882 q 293 893 286 888 q 300 912 300 897 q 308 936 307 922 q 310 966 310 951 q 322 992 319 981 q 331 1018 324 1002 q 353 1031 340 1026 q 373 1037 366 1037 q 395 1037 382 1037 q 416 1030 408 1037 q 438 1033 425 1037 q 458 1030 451 1030 q 467 1024 463 1030 q 475 1012 471 1019 q 483 998 479 1005 q 492 987 487 991 q 500 972 500 982 q 498 950 500 962 q 494 927 497 938 q 492 912 492 916 q 490 886 492 897 q 479 861 489 876 q 486 849 479 850 q 500 848 493 848 l 534 848 q 584 830 566 841 q 619 797 603 820 q 625 769 625 781 q 625 743 625 758 q 637 717 636 727 q 639 691 639 706 q 632 664 639 676 q 619 637 625 652 q 604 629 609 630 q 575 628 599 628 q 554 623 567 628 q 534 628 540 619 l 534 637 q 527 656 534 652 q 521 670 521 661 q 503 703 514 685 q 469 722 493 722 q 455 705 461 722 q 449 679 449 689 q 437 647 439 663 q 435 616 435 631 q 435 585 435 599 q 428 565 435 571 q 422 537 418 548 q 416 510 425 526 q 415 490 409 494 q 437 480 421 487 q 459 456 446 470 q 479 426 472 441 q 509 389 494 409 q 534 353 524 369 q 538 327 534 337 q 543 310 543 317 q 542 295 543 301 q 534 290 540 290 q 534 257 548 272 q 532 226 534 241 q 521 205 531 212 q 504 174 514 180 q 479 162 494 168 q 464 156 472 162 q 449 151 456 151 l 416 151 q 401 147 413 147 q 377 147 390 147 q 351 149 364 147 q 331 151 339 151 q 322 134 324 151 q 310 108 319 117 q 303 82 310 93 q 289 57 297 72 q 291 35 289 47 q 280 23 294 23 m 385 996 q 394 988 392 989 q 407 987 397 987 q 438 982 422 987 q 470 987 454 978 q 457 1006 461 994 q 437 1018 453 1018 q 411 1024 421 1018 q 385 1030 401 1030 l 385 996 m 364 1018 q 354 1019 359 1022 q 344 1010 348 1016 q 339 998 340 1005 q 343 987 339 991 q 364 954 343 954 q 373 965 372 958 q 371 982 373 973 q 366 1000 369 991 q 364 1018 364 1009 m 331 954 q 327 939 331 947 q 323 924 323 931 q 337 904 329 908 q 352 891 344 900 q 362 907 361 900 q 364 924 364 915 q 352 939 364 931 q 331 954 340 947 m 323 902 q 302 886 312 894 q 300 869 291 879 q 312 860 300 862 q 331 848 324 858 q 342 855 341 848 q 344 869 344 862 q 331 886 334 879 q 323 902 329 894 m 280 869 q 261 856 271 861 q 244 848 251 852 q 235 840 236 844 q 246 828 234 836 q 256 825 250 823 q 269 830 263 827 q 280 836 275 833 q 289 840 285 840 q 298 847 297 842 q 295 857 298 852 q 288 865 293 862 q 280 869 283 869 m 205 828 q 200 812 205 820 q 195 796 195 804 l 195 776 q 204 777 201 776 q 217 785 207 778 q 224 794 219 790 q 233 801 229 798 q 239 809 237 805 q 237 818 240 813 q 229 821 233 818 q 221 827 225 825 q 212 831 217 830 q 205 828 208 832 m 195 763 q 180 769 186 771 q 170 758 174 766 q 164 740 166 751 q 162 722 162 730 l 174 722 q 179 732 174 726 q 188 744 184 738 q 196 755 193 749 q 195 763 199 760 m 153 712 q 141 690 143 703 q 133 670 139 677 q 146 661 139 661 q 153 670 153 661 q 159 680 156 673 q 164 694 162 687 q 163 706 165 701 q 153 712 161 712 m 141 594 q 148 580 141 587 q 162 573 155 573 q 153 599 153 588 q 153 616 153 609 q 150 640 153 631 q 133 650 147 650 q 133 618 133 633 q 141 594 133 603 m 153 565 q 160 535 153 548 q 184 522 167 522 q 177 533 179 526 q 172 546 175 540 q 165 559 169 553 q 153 565 161 565 m 280 353 q 281 331 280 344 q 289 319 282 319 q 297 322 293 316 q 305 339 301 328 q 314 360 310 350 q 323 374 318 370 q 320 383 323 381 q 300 396 317 386 q 294 394 297 396 q 289 383 289 391 q 298 368 289 376 q 300 353 307 359 q 289 356 291 353 q 280 353 286 359 m 300 416 q 306 405 300 406 q 323 404 312 404 l 323 426 q 321 437 323 441 q 310 426 319 434 q 301 428 303 434 q 300 416 300 423 m 289 298 q 276 305 280 306 q 269 300 272 304 q 264 288 266 295 q 259 278 262 282 q 281 284 274 278 q 289 298 289 291 m 99 298 q 83 299 90 302 q 69 289 75 296 q 59 274 62 282 q 56 257 56 265 q 72 261 65 257 q 89 257 79 265 q 94 281 89 272 q 99 298 99 291 m 56 236 q 54 216 56 228 q 68 205 53 205 l 89 205 l 89 236 q 72 247 79 251 q 56 236 65 244 m 68 184 q 80 172 71 176 q 99 168 89 168 q 118 174 109 168 q 133 193 128 181 q 99 197 116 202 q 68 184 83 191 m 162 172 q 160 182 171 181 q 141 184 150 184 q 139 175 141 178 q 137 169 138 172 q 133 162 134 165 q 138 152 133 154 q 153 151 144 151 q 161 158 160 151 q 162 172 162 165 m 141 193 q 157 188 150 193 q 174 184 164 184 q 183 187 181 184 q 195 184 186 191 q 210 182 202 184 q 225 172 218 181 q 246 175 234 172 q 259 162 259 178 q 255 140 262 154 q 239 111 247 126 q 227 83 230 95 q 237 66 225 70 q 246 57 240 62 q 258 50 251 52 q 270 47 264 47 q 280 57 275 48 q 285 82 280 72 q 300 108 291 93 q 309 140 307 123 q 323 172 312 156 q 331 167 329 172 q 343 162 334 162 l 385 162 l 416 162 l 437 162 q 459 172 446 169 q 479 184 472 174 q 500 196 492 187 q 512 215 508 205 q 518 237 516 226 q 521 257 521 248 q 522 271 521 265 q 534 278 523 278 l 534 311 q 521 331 523 317 q 512 353 519 344 q 488 394 502 376 q 458 437 473 412 l 428 468 q 406 470 418 468 q 395 488 395 473 q 405 513 404 498 q 407 542 407 527 q 421 569 414 559 q 428 594 428 578 q 424 653 418 626 q 437 712 429 680 q 450 735 446 728 q 470 735 454 741 q 494 727 486 735 q 512 712 502 719 q 526 685 519 697 q 534 658 534 673 l 544 650 q 550 638 544 639 q 564 637 557 637 q 586 638 573 637 q 606 650 599 639 q 617 669 616 656 q 619 692 619 681 q 619 742 625 715 q 598 785 613 769 q 556 829 581 818 q 500 840 532 840 q 481 827 493 830 q 470 840 470 823 q 474 863 470 855 q 479 881 479 871 l 479 932 l 479 966 l 449 966 q 437 968 445 966 q 421 973 429 971 q 406 975 414 975 q 395 966 399 974 q 382 952 386 962 q 376 931 378 942 q 374 910 374 920 q 374 891 374 900 q 365 876 366 884 q 364 861 364 867 l 352 848 q 348 839 344 841 q 352 828 352 837 l 323 828 q 296 826 305 828 q 280 818 286 825 q 219 769 247 794 q 182 712 190 744 q 175 669 175 687 q 175 628 175 651 q 170 590 164 612 q 184 552 176 567 q 199 519 188 533 q 224 495 210 505 q 255 479 239 486 q 289 468 272 472 q 304 460 297 461 q 323 460 312 460 q 336 457 329 460 q 344 437 344 454 l 344 404 q 329 384 334 397 q 331 362 324 372 q 317 335 324 347 q 310 298 310 323 q 301 271 310 283 q 268 268 291 259 q 194 282 229 268 q 120 319 160 296 q 115 294 120 303 q 110 268 110 284 l 110 247 l 110 226 q 111 209 110 216 q 120 193 112 202 l 141 193 m 195 129 q 208 132 203 129 q 215 139 212 135 q 220 147 218 144 q 225 151 222 151 q 237 152 234 151 q 246 162 239 154 q 232 166 239 169 q 225 162 227 165 q 211 165 217 162 q 201 170 206 168 q 192 171 196 172 q 184 162 188 170 q 177 146 176 154 q 195 129 179 138 m 195 36 q 210 40 203 36 q 217 44 214 41 l 217 57 q 213 66 210 57 q 217 77 214 72 q 225 110 223 94 q 237 141 227 126 q 225 135 229 141 q 217 121 221 130 q 211 104 214 113 q 205 87 209 95 q 200 65 205 80 q 195 36 195 51 m 225 23 q 247 24 234 23 q 268 36 261 25 q 256 45 263 44 q 243 45 249 47 q 230 37 236 42 q 225 23 225 31 m 352 606 q 340 576 352 581 q 323 565 329 571 q 311 563 312 565 q 310 552 310 562 q 295 563 300 562 q 289 565 291 565 q 274 569 282 565 q 259 573 265 573 q 238 632 234 598 q 259 692 243 666 q 278 706 265 698 q 300 722 291 715 q 317 733 307 732 q 343 734 328 734 q 352 738 350 734 q 364 743 354 743 q 361 707 371 727 q 352 670 352 686 q 347 647 352 661 q 343 628 343 634 q 350 616 347 628 q 352 606 352 611 m 310 628 q 310 643 310 632 q 308 667 310 655 q 305 690 307 680 q 300 701 304 701 q 286 695 292 701 q 280 679 280 689 q 261 664 264 672 q 259 650 259 656 q 251 608 249 625 q 280 586 254 592 q 293 576 286 576 q 300 586 300 576 q 301 606 300 592 q 310 628 303 619 m 323 692 q 328 703 323 698 q 343 701 334 709 q 344 712 345 709 q 339 715 343 715 q 330 713 335 715 q 323 712 325 712 l 323 692 m 323 586 q 330 586 329 586 q 331 594 331 587 q 323 593 324 594 q 323 586 323 592 m 323 628 q 334 626 331 623 q 339 635 337 629 q 337 648 340 641 q 331 658 335 655 q 320 658 322 662 q 318 647 318 654 q 323 628 318 639 m 343 692 q 334 685 334 692 q 343 679 334 679 l 343 692 m 428 236 q 377 247 387 228 q 374 298 366 266 q 379 322 374 308 q 385 353 385 337 q 390 359 392 353 q 395 374 387 365 l 407 383 q 437 362 422 383 q 453 336 446 347 q 470 311 461 326 q 470 290 474 302 q 460 265 467 277 q 444 245 453 254 q 428 236 436 236 m 437 257 q 441 270 437 265 q 437 268 446 275 l 437 257 m 449 290 q 447 297 449 296 q 437 298 446 298 q 442 291 437 294 q 449 290 445 290 m 437 311 q 445 314 445 311 q 444 322 446 317 q 439 332 442 327 q 437 341 437 337 l 437 311 m 385 290 q 386 268 385 280 q 395 257 387 257 q 407 249 403 248 q 413 256 411 251 q 416 267 416 261 q 416 278 416 273 q 420 308 425 292 q 416 341 416 324 q 417 347 416 350 q 428 353 418 344 q 416 359 422 355 q 407 374 407 366 q 399 331 407 350 q 385 290 392 312 "},"\\":{"x_min":35,"x_max":683.5,"ha":718,"o":"m 536 -7 q 489 18 515 4 q 453 64 464 32 q 411 140 432 107 q 369 217 390 173 q 335 293 348 258 q 301 370 322 328 q 279 412 290 391 q 258 454 269 433 q 233 489 249 476 q 218 522 218 501 q 181 600 196 565 q 146 677 167 635 q 118 760 137 719 q 78 845 98 802 q 63 885 67 866 q 50 913 60 904 q 42 942 50 925 q 35 970 35 960 q 56 982 46 980 q 78 985 67 985 q 118 1017 98 1005 q 146 1040 137 1029 q 179 1032 167 1040 q 201 1025 192 1025 q 210 1018 205 1021 q 231 1013 222 1013 q 240 1017 235 1015 q 258 1013 250 1019 q 293 939 279 980 q 329 856 308 898 q 370 786 349 826 q 413 705 391 746 q 419 674 413 694 q 425 634 425 655 q 446 600 436 613 q 468 566 457 587 q 490 493 478 533 q 525 411 503 452 q 588 267 554 338 q 664 132 622 196 q 680 84 673 111 q 676 36 687 57 q 642 21 655 25 q 608 8 629 18 l 591 -7 l 536 -7 m 231 985 q 207 971 220 985 q 174 957 194 957 q 178 946 174 949 q 186 940 182 942 q 192 935 190 938 q 190 929 194 933 q 168 930 177 929 q 146 940 158 931 q 134 935 134 940 q 135 924 133 930 q 141 911 137 918 q 146 901 146 905 q 168 859 158 880 q 190 816 178 838 q 252 682 220 753 q 314 538 283 611 q 388 404 355 475 q 453 272 422 334 q 483 196 464 231 q 525 121 503 162 q 532 91 525 108 q 553 64 540 73 q 558 42 553 52 q 564 21 564 32 l 591 21 q 621 35 604 32 q 648 48 639 39 q 660 71 660 59 q 648 104 660 83 q 616 169 628 137 q 591 232 604 200 q 577 264 587 247 q 557 299 568 282 q 538 335 547 317 q 525 370 529 354 q 490 441 503 401 q 468 522 478 480 q 439 587 457 555 q 413 662 422 620 q 393 690 401 673 q 385 717 385 708 q 362 753 373 738 q 341 788 352 767 q 313 857 331 819 q 274 929 294 895 q 271 944 274 933 q 262 966 268 955 q 249 982 257 976 q 231 985 240 989 m 218 997 q 190 1006 206 1002 q 156 1011 173 1011 q 124 1005 138 1011 q 105 985 109 1000 q 126 971 115 985 q 146 957 137 957 q 161 961 151 957 q 181 973 170 966 q 201 986 191 979 q 218 997 210 993 m 63 957 q 70 934 63 944 q 78 913 78 925 q 98 907 87 913 q 118 901 108 901 l 118 940 q 113 955 118 951 q 102 960 108 960 q 89 958 95 960 q 78 957 82 957 q 75 968 78 967 q 63 970 73 970 l 63 957 m 90 884 q 104 858 101 876 q 118 828 108 841 q 135 804 118 807 q 174 801 153 801 q 162 830 165 812 q 146 856 158 848 q 134 870 141 866 q 119 876 127 874 q 103 879 111 878 q 90 884 95 880 m 135 788 q 153 732 135 756 q 201 717 172 708 q 199 739 201 728 q 190 760 198 749 q 160 773 178 770 q 135 788 143 777 m 174 705 q 187 663 174 684 q 201 622 201 642 l 258 622 q 238 663 249 642 q 218 705 228 684 q 174 705 195 684 m 231 606 q 233 566 231 585 q 246 538 235 547 q 273 524 255 526 q 301 522 290 522 q 292 556 301 542 q 274 578 283 569 q 271 598 274 590 q 258 607 269 607 q 240 597 249 597 q 231 606 231 597 m 274 511 q 280 470 274 490 q 286 439 286 450 q 308 435 295 439 q 329 430 320 432 q 342 433 338 429 q 341 454 347 437 q 328 475 331 464 q 314 494 325 486 q 308 501 314 500 q 297 503 303 503 q 284 503 291 503 q 274 511 278 504 m 301 410 q 314 384 311 401 q 329 355 318 366 q 357 338 338 345 q 397 342 376 331 q 378 370 387 352 q 369 398 369 387 q 340 410 359 410 q 301 410 321 410 m 341 315 q 362 284 352 304 q 385 245 373 265 l 440 245 q 425 275 429 255 q 413 315 422 294 q 381 319 401 324 q 341 315 362 315 m 397 232 q 404 196 397 215 q 424 164 412 178 q 450 143 436 150 q 481 148 465 137 q 472 175 481 157 q 453 204 464 193 q 451 215 453 214 q 440 217 450 217 q 418 219 429 217 q 397 232 408 221 m 453 121 q 466 86 458 104 q 485 53 475 68 q 508 30 495 39 q 536 21 520 21 q 524 62 527 41 q 508 104 520 83 q 495 118 498 116 q 480 121 491 121 l 453 121 "},"-":{"x_min":33.515625,"x_max":549.875,"ha":585,"o":"m 545 519 q 548 475 551 503 q 545 431 545 447 q 549 413 547 420 q 549 401 550 406 q 545 396 547 396 q 533 387 545 387 q 510 387 521 387 l 479 387 l 435 387 q 385 387 409 387 q 335 376 361 387 q 248 370 294 370 q 160 365 201 370 q 151 360 156 361 q 140 359 146 359 q 131 358 135 359 q 128 353 128 357 q 110 349 117 346 q 93 353 103 353 l 85 353 q 77 365 85 363 q 63 376 69 368 q 46 389 52 385 q 40 409 40 393 q 35 447 30 425 q 40 485 40 468 q 45 509 40 502 q 59 519 51 516 q 75 523 66 523 q 93 528 85 523 q 105 529 103 528 q 115 541 108 530 q 122 538 115 548 q 138 528 130 528 q 171 531 154 521 q 203 541 188 541 q 219 546 212 541 q 237 551 227 551 l 282 551 l 335 551 l 379 551 q 429 555 405 551 q 479 551 453 560 q 494 544 486 551 q 510 528 503 538 q 525 520 520 521 q 545 519 529 519 m 501 519 q 468 541 484 535 q 435 541 451 548 q 454 509 435 509 q 501 519 474 509 m 414 541 q 395 534 404 531 q 370 528 386 538 q 388 505 370 512 q 422 506 406 499 q 418 524 422 516 q 414 541 414 531 m 347 541 q 316 539 331 541 q 292 528 301 538 q 325 498 292 511 l 347 498 q 355 492 350 492 q 363 493 360 492 q 370 498 367 495 q 357 518 360 505 q 347 541 354 531 m 282 528 q 242 532 265 528 q 203 519 219 535 q 215 512 212 519 q 224 498 217 505 q 248 487 234 488 q 269 485 262 485 q 285 487 279 485 q 292 498 292 488 q 278 513 285 505 q 282 528 272 521 m 195 519 q 166 517 178 519 q 138 506 154 516 q 150 493 138 499 q 172 498 163 488 q 185 494 181 498 q 194 488 190 490 q 202 483 198 485 q 215 485 206 481 q 205 502 215 495 q 195 519 195 509 m 115 519 q 100 517 110 519 q 80 511 90 515 q 64 504 71 508 q 63 498 58 501 q 66 486 63 488 q 72 485 69 485 q 84 475 82 478 q 93 463 86 473 q 116 475 103 473 q 138 485 130 478 q 127 502 130 495 q 115 519 125 509 m 50 409 q 65 394 59 399 q 72 397 72 390 l 65 403 l 50 419 l 50 409 m 50 431 q 81 427 66 438 q 106 409 95 416 q 92 444 106 432 q 63 463 79 456 q 51 450 52 463 q 50 431 50 438 m 93 397 q 97 383 86 390 q 115 376 108 376 q 104 387 115 385 q 93 397 93 389 m 532 409 l 532 441 q 528 469 532 457 q 524 498 524 481 q 516 490 521 493 q 501 485 508 485 q 508 496 508 495 q 501 498 508 498 q 484 496 491 498 q 466 485 476 495 q 418 488 443 495 q 370 476 393 482 l 282 476 q 232 469 255 465 q 195 463 209 473 l 138 463 l 115 463 l 115 431 q 126 408 125 421 q 128 388 128 394 q 149 373 135 371 q 172 376 163 376 q 214 387 196 387 q 259 387 233 387 l 304 387 q 324 387 311 387 q 347 397 337 387 l 401 397 q 424 401 411 397 q 445 397 437 406 q 455 401 445 403 q 466 397 461 399 q 493 398 483 397 q 510 409 503 399 l 532 409 "},"Q":{"x_min":35,"x_max":898,"ha":933,"o":"m 897 672 q 892 613 897 647 q 897 540 886 579 q 896 516 897 528 q 883 493 894 504 l 883 426 q 869 402 877 421 q 850 358 861 383 q 828 304 840 333 q 805 254 817 276 q 782 217 793 231 q 764 208 772 203 q 763 226 758 214 q 776 250 768 238 q 790 275 783 263 q 798 294 798 287 q 824 350 813 319 q 850 407 836 381 q 856 419 855 413 q 857 432 857 426 q 857 444 857 438 q 864 458 858 451 l 864 506 q 879 591 879 546 q 864 672 879 636 l 864 791 q 844 836 864 814 q 798 871 824 859 q 788 894 798 885 q 764 904 779 904 q 740 923 752 919 q 716 938 727 927 l 684 972 q 670 980 675 976 q 661 986 664 983 q 665 990 659 990 q 683 981 679 990 q 699 972 688 972 q 723 958 712 961 q 750 956 734 956 q 790 928 775 942 q 832 890 805 914 q 862 839 851 864 q 879 788 872 815 q 888 732 885 762 q 897 672 892 703 m 666 804 q 651 813 659 812 q 634 816 643 814 q 615 822 625 817 q 599 839 605 826 q 643 827 624 839 q 680 799 662 816 q 714 762 697 782 q 750 724 730 742 q 776 678 769 705 q 783 621 783 651 q 783 561 783 591 q 783 506 783 531 q 787 449 795 481 q 764 393 779 418 q 752 374 758 385 q 738 353 745 363 q 721 335 730 342 q 699 327 711 327 q 651 314 674 312 q 618 341 629 316 q 584 378 603 355 q 566 426 566 401 q 545 409 553 419 q 531 390 537 400 q 518 373 525 381 q 499 359 511 364 q 488 332 488 345 q 499 294 488 319 q 531 267 513 279 q 550 239 550 254 q 541 209 550 228 q 532 174 532 189 q 519 165 521 174 q 518 141 518 156 q 512 134 518 135 q 498 135 507 134 q 481 138 490 136 q 465 141 472 141 q 417 143 442 141 q 366 160 392 145 q 325 193 340 173 q 299 238 310 213 q 281 289 289 263 q 266 341 273 316 q 262 549 241 441 q 334 758 283 657 l 352 772 q 364 798 363 787 q 366 823 366 809 q 417 836 392 834 q 465 838 442 838 q 483 838 478 838 q 490 840 488 838 q 492 846 492 843 q 499 856 493 849 l 532 856 q 550 857 538 856 q 572 859 561 859 q 591 855 583 859 q 599 839 599 851 q 566 841 587 839 q 532 856 545 843 q 526 845 532 849 q 513 838 521 841 q 498 832 505 836 q 485 823 490 829 q 458 807 469 809 q 434 804 447 804 q 427 803 428 804 q 424 798 427 801 q 418 793 422 795 q 400 791 413 791 q 392 788 395 791 q 386 781 389 785 q 378 774 382 777 q 366 772 374 772 q 356 733 366 746 q 334 705 347 720 q 326 665 334 680 q 318 625 318 649 q 300 590 304 609 q 286 559 297 570 q 277 511 277 534 q 279 466 277 488 q 283 421 280 444 q 286 373 286 398 q 304 295 291 335 q 340 222 316 255 q 399 171 364 189 q 485 160 435 153 q 506 168 497 160 q 519 187 515 175 q 524 213 524 199 q 518 239 524 227 q 512 253 518 246 q 501 267 507 260 q 489 280 494 273 q 485 294 485 287 q 466 316 469 305 q 451 327 462 327 q 475 350 462 338 q 499 373 488 362 q 504 392 499 380 q 519 414 510 403 q 541 432 529 424 q 566 440 553 440 q 589 416 579 428 q 599 393 599 404 q 617 366 613 377 q 632 341 620 355 q 651 343 644 335 q 661 363 658 350 q 664 388 664 376 q 664 407 664 401 q 676 440 672 419 q 681 484 679 460 q 684 531 684 508 q 684 573 684 555 q 665 671 684 622 q 632 772 647 721 q 625 790 632 786 q 618 805 618 794 l 632 805 q 650 792 647 794 q 666 791 654 791 q 663 780 666 784 q 659 772 661 776 q 659 766 658 769 q 666 758 659 763 q 674 736 672 751 q 677 705 675 721 q 682 676 678 689 q 699 658 686 663 l 730 658 q 747 667 745 658 q 750 689 750 676 q 723 721 734 700 q 699 758 712 742 q 689 781 699 769 q 666 804 679 793 m 684 341 q 705 349 696 341 q 721 369 714 357 q 736 390 729 380 q 750 407 743 401 q 723 409 734 407 q 699 426 712 411 q 686 382 688 400 q 684 341 684 364 m 750 426 q 762 457 762 437 q 762 492 762 477 q 757 509 762 505 q 743 515 752 513 q 722 517 733 516 q 699 526 711 519 l 699 457 q 716 435 699 444 q 750 426 734 426 m 764 605 q 752 630 758 624 q 738 634 745 636 q 721 629 730 633 q 699 625 711 625 q 699 595 699 612 q 704 565 699 579 q 719 542 709 551 q 750 540 730 534 q 766 548 762 540 q 770 567 770 556 q 767 589 770 579 q 764 605 764 599 m 764 208 q 790 189 779 208 q 817 160 802 171 q 846 134 828 145 q 864 109 864 122 q 826 119 840 109 q 798 141 813 129 q 792 157 798 147 q 780 176 786 167 q 769 194 774 185 q 764 208 764 202 m 864 109 q 888 99 879 109 q 898 76 898 89 q 891 37 898 51 q 884 7 884 23 q 869 -18 876 -4 q 852 -41 862 -31 q 830 -57 843 -52 q 798 -57 817 -63 q 742 -18 772 -43 q 699 43 712 6 q 687 50 693 43 q 674 64 681 58 q 662 72 668 70 q 651 62 657 74 q 625 37 636 47 q 599 28 613 28 q 547 -11 574 2 q 485 -24 521 -24 q 397 8 446 -10 q 300 28 349 28 q 236 48 269 33 q 175 86 204 64 q 122 140 145 109 q 86 208 98 170 q 48 368 62 283 q 35 540 35 453 q 53 615 50 579 q 68 689 57 651 q 95 763 81 726 q 134 823 108 800 q 172 885 148 859 q 220 938 196 912 q 250 971 230 952 q 286 990 270 990 q 307 997 298 997 q 326 997 316 997 q 344 997 335 997 q 366 1004 353 997 q 381 1008 374 1004 q 395 1019 388 1013 q 412 1030 403 1025 q 433 1036 421 1036 l 518 1036 q 546 1036 524 1036 q 594 1031 569 1036 q 638 1017 619 1027 q 651 990 657 1008 q 623 994 639 990 q 592 1005 608 999 q 560 1017 575 1012 q 532 1023 545 1023 l 485 1023 q 452 1020 470 1023 q 434 1004 434 1018 l 400 990 q 376 972 389 976 q 352 957 363 967 q 326 945 338 957 q 300 923 313 934 l 266 871 q 285 866 279 871 q 292 855 292 861 q 285 843 292 848 q 266 839 279 839 q 245 838 254 845 q 230 819 236 831 q 222 792 225 806 q 220 772 220 778 q 202 721 206 746 q 188 672 199 696 q 185 640 188 647 q 168 625 182 634 q 166 598 168 609 q 154 573 165 587 l 154 458 l 154 327 q 161 291 154 312 q 168 259 168 270 q 170 240 168 243 q 188 225 172 236 q 205 177 188 202 q 233 127 222 152 q 276 99 258 113 q 318 62 294 85 q 376 37 343 47 q 434 28 409 28 q 461 14 446 20 q 491 4 476 7 q 522 2 507 2 q 550 7 537 2 q 597 37 574 23 q 632 76 620 51 q 654 100 644 95 q 672 100 664 105 q 687 85 680 95 q 699 62 693 74 q 742 12 712 35 q 798 -24 772 -10 q 817 -30 810 -30 q 830 -25 825 -30 q 839 -13 835 -21 q 850 7 843 -4 q 872 35 861 23 q 884 62 884 47 q 874 85 884 73 q 864 109 864 98 m 334 990 q 273 953 297 976 q 233 904 249 930 q 244 890 240 891 q 252 893 248 888 q 258 907 255 898 q 266 923 261 916 q 307 962 292 948 q 334 990 322 976 m 120 772 q 102 733 104 746 q 100 705 100 720 q 114 699 107 705 q 127 687 121 694 q 140 676 134 681 q 154 672 146 672 q 176 706 165 685 q 188 738 188 727 q 182 758 188 751 q 168 769 176 764 q 150 779 159 774 q 134 791 141 784 q 158 803 148 803 q 168 791 168 803 q 187 783 180 784 q 197 785 194 782 q 201 794 200 788 q 202 804 202 800 q 220 852 215 830 q 202 890 225 874 q 187 879 190 890 q 168 856 183 868 q 161 831 168 843 q 154 804 154 819 q 129 782 140 795 q 120 772 123 777 m 86 672 q 81 647 86 659 q 71 620 76 634 q 64 591 66 606 q 68 559 62 576 q 86 535 68 544 q 120 526 104 526 q 135 539 131 531 q 139 557 139 548 q 136 575 139 566 q 134 591 134 584 q 147 629 148 616 q 120 658 145 642 l 100 658 q 98 670 100 669 q 86 672 97 672 m 68 493 q 65 465 62 480 q 75 436 68 449 q 95 415 83 423 q 120 407 107 407 q 121 425 120 413 q 124 449 123 437 q 125 474 125 462 q 120 493 125 486 q 103 497 112 493 q 86 505 94 502 q 73 506 79 508 q 68 493 68 505 m 86 275 q 109 267 97 275 q 134 259 122 259 q 129 300 129 277 q 126 344 129 323 q 111 379 123 365 q 68 393 99 393 q 77 333 68 367 q 86 275 86 299 m 100 259 q 152 148 115 195 q 252 76 188 100 q 234 108 246 95 q 210 132 222 121 q 187 152 199 142 q 168 174 175 161 q 166 201 168 189 q 154 225 165 212 q 148 234 154 231 q 134 240 143 236 q 116 247 126 243 q 100 259 107 252 "},"M":{"x_min":35.875,"x_max":920.328125,"ha":955,"o":"m 897 1031 q 917 990 913 1012 q 919 943 922 968 q 909 895 916 919 q 897 847 902 870 l 897 601 q 890 486 897 543 q 897 370 884 430 l 897 112 q 889 50 897 76 q 881 -9 881 23 q 858 -7 869 -9 q 836 3 846 -5 q 812 -2 822 3 q 787 -8 802 -8 q 773 1 783 -3 q 751 12 762 7 q 730 23 740 18 q 714 33 719 29 q 697 43 701 33 q 683 63 694 54 q 675 79 683 73 q 667 82 671 82 q 654 125 654 105 q 654 156 654 145 q 651 177 654 168 q 636 187 648 187 l 636 266 q 629 313 636 290 q 622 370 622 337 q 629 394 622 382 q 636 418 636 405 q 630 440 624 429 q 636 462 636 452 q 589 418 612 438 q 542 387 566 398 q 515 376 527 376 q 493 383 503 376 q 473 401 483 391 q 452 418 463 410 q 416 451 429 429 q 391 511 404 474 q 378 519 386 511 q 361 535 370 528 q 344 542 352 542 q 329 523 336 541 q 315 472 325 499 q 297 414 305 444 q 289 354 289 384 q 299 297 289 324 q 305 240 312 273 q 299 173 299 206 l 299 63 q 293 15 299 31 q 254 -8 287 0 q 237 -18 241 -8 q 223 -28 234 -28 q 200 -9 211 -13 q 178 3 190 -5 l 133 3 q 121 5 127 3 q 112 11 117 8 q 102 21 106 14 q 41 82 59 38 l 41 126 l 41 173 l 41 297 q 36 327 34 313 q 41 356 37 341 q 50 385 45 370 q 54 418 54 399 q 63 440 54 429 q 72 462 72 452 q 69 475 72 469 q 65 488 66 481 q 64 503 63 495 q 72 523 65 511 q 82 501 82 512 q 78 480 82 490 q 73 462 74 470 q 85 449 73 453 q 117 420 98 426 q 147 401 135 413 q 161 433 159 413 q 164 462 164 452 q 161 479 164 476 q 147 493 159 483 q 124 502 135 493 q 103 511 112 511 q 92 521 103 520 q 72 523 82 523 l 72 555 q 73 578 72 567 q 85 601 74 588 q 85 645 65 623 q 79 689 85 669 q 73 724 73 710 q 73 781 73 756 q 85 830 73 806 q 105 863 91 841 q 136 904 119 886 q 172 927 154 922 q 207 910 190 932 q 221 917 219 910 q 223 939 223 925 q 259 928 246 939 q 286 910 272 918 q 332 870 310 886 q 377 830 354 854 q 423 785 401 806 q 469 755 445 765 q 484 737 473 748 q 508 718 495 727 q 535 706 521 710 q 560 706 549 702 l 566 717 q 570 726 568 721 q 573 736 573 731 q 594 754 586 750 q 591 768 602 757 q 570 778 577 768 q 573 800 563 788 q 591 795 585 800 q 602 788 598 791 q 611 786 607 784 q 622 800 614 787 q 632 809 627 805 q 638 816 637 813 q 636 822 640 819 q 622 830 633 824 q 605 843 609 843 q 591 830 602 843 q 551 778 567 806 q 512 736 535 750 q 507 762 501 748 q 526 792 513 777 q 554 821 539 806 q 573 847 568 836 q 577 855 573 852 q 588 862 582 858 q 600 873 595 866 q 605 890 605 879 q 614 903 610 897 q 623 915 619 910 q 634 926 627 921 q 653 939 641 932 q 700 977 676 948 q 758 1031 725 1007 q 786 1043 769 1042 q 821 1042 802 1044 q 859 1035 840 1039 q 897 1031 879 1031 m 836 1014 q 797 1019 822 1026 q 758 1000 772 1011 q 782 982 772 986 q 806 969 791 979 q 825 991 815 979 q 836 1014 836 1003 m 697 951 q 706 925 697 941 q 727 910 716 910 q 752 917 741 910 q 776 939 762 925 q 777 956 780 950 q 769 966 775 962 q 757 974 764 970 q 746 982 750 977 q 720 973 732 982 q 697 951 709 965 m 622 861 q 633 856 627 861 q 646 847 638 851 q 663 841 654 843 q 683 847 672 840 q 697 869 694 858 q 714 890 701 880 q 695 912 701 904 q 666 921 689 921 q 648 913 655 921 q 637 897 641 906 q 630 877 633 887 q 622 861 627 866 m 147 878 q 156 856 147 865 q 178 847 166 847 q 186 842 183 840 q 192 849 190 844 q 194 863 194 855 q 194 878 194 870 q 196 884 198 882 q 188 888 194 887 q 176 890 183 890 q 164 890 169 890 l 147 878 m 115 861 q 108 824 115 837 q 102 800 102 812 q 122 795 113 800 q 139 784 131 790 q 157 772 148 777 q 178 768 166 768 q 184 798 189 786 q 169 821 180 810 q 142 840 158 831 q 115 861 127 849 m 102 736 q 125 708 112 713 q 164 694 139 703 q 171 708 169 698 q 173 729 173 718 q 171 747 173 739 q 164 755 169 755 q 126 770 140 764 q 102 800 112 776 l 102 736 m 85 675 q 91 653 85 664 q 85 631 98 642 q 100 613 91 620 q 119 602 109 606 q 141 594 130 598 q 164 584 152 590 l 164 645 q 161 663 164 656 q 153 674 158 670 q 143 682 149 678 q 133 694 138 687 q 120 695 126 694 q 108 696 115 696 q 97 691 102 695 q 85 675 91 687 m 147 511 q 156 517 152 511 q 161 535 159 524 q 164 555 164 545 q 164 572 164 565 q 123 580 139 572 q 85 601 107 588 l 85 542 q 111 531 98 542 q 147 511 123 520 m 72 418 q 69 402 72 410 q 65 385 66 394 q 64 369 63 377 q 72 357 65 362 q 83 342 76 349 q 100 328 91 334 q 117 320 109 321 q 133 326 126 319 q 133 332 133 331 q 134 333 133 333 q 138 333 135 333 q 147 340 141 334 l 147 370 q 139 390 147 381 q 120 406 131 399 q 96 415 109 412 q 72 418 83 418 m 72 112 q 69 78 65 94 q 83 52 73 63 q 108 33 94 41 q 133 21 122 25 q 125 32 126 25 q 126 49 124 40 q 130 66 127 58 q 133 82 133 75 q 100 102 119 92 q 72 112 81 112 m 133 218 q 95 212 109 206 q 72 218 82 218 l 72 187 q 69 172 72 175 q 54 156 67 168 q 71 135 54 145 q 102 126 89 126 q 122 122 112 114 q 133 142 133 130 l 133 218 m 133 248 q 137 279 133 262 q 133 297 142 297 q 88 308 109 305 q 54 326 67 312 l 54 278 q 56 294 54 292 q 72 297 58 297 q 69 277 72 286 q 67 261 67 268 q 69 251 66 255 q 85 248 73 248 q 99 239 91 243 q 115 232 107 234 q 128 233 123 230 q 133 248 133 237 m 653 278 q 674 276 663 278 q 697 266 686 275 q 695 301 697 290 q 683 326 694 312 q 680 341 683 337 q 673 347 677 345 q 663 349 669 348 q 653 357 658 349 l 653 278 m 653 357 q 673 363 663 357 q 683 370 679 366 q 685 406 694 394 q 653 418 676 418 l 653 357 m 697 156 q 688 176 697 168 q 666 173 678 184 q 664 153 666 166 q 664 128 663 141 q 673 105 666 115 q 697 96 680 96 l 697 156 m 697 217 q 688 239 697 231 q 667 248 679 248 l 667 203 q 688 192 679 191 q 697 217 697 194 m 881 847 q 889 899 881 870 q 897 951 897 927 q 894 975 897 965 q 880 1000 892 986 q 878 1012 880 1011 q 873 1009 876 1014 q 868 996 870 1004 q 866 982 866 989 q 844 987 853 996 q 836 969 836 979 q 823 953 829 958 q 812 947 818 948 q 800 944 806 945 q 787 939 794 943 q 767 924 779 939 q 746 910 755 910 q 735 884 746 894 q 714 861 725 873 q 696 840 707 849 q 674 823 686 831 q 652 806 663 815 q 636 786 641 797 l 636 755 l 622 755 q 598 730 609 741 q 573 706 586 720 q 557 686 568 689 q 533 687 546 682 q 506 703 520 692 q 481 724 492 713 q 427 770 459 748 q 359 816 395 793 q 331 840 350 827 q 299 878 312 854 q 280 882 287 878 q 268 893 273 887 q 255 905 262 900 q 237 910 248 910 l 237 878 q 230 862 237 865 q 223 861 225 859 q 210 842 212 849 q 213 831 209 835 q 224 824 217 827 q 237 816 231 822 q 225 808 231 809 q 216 808 220 808 q 209 806 212 808 q 207 800 207 805 q 195 763 196 776 q 194 736 194 750 q 186 669 194 705 q 178 601 178 634 q 185 564 185 584 q 183 524 185 544 q 180 485 182 504 q 178 449 178 466 q 171 379 178 413 q 164 308 164 344 q 148 241 148 276 q 148 173 148 206 q 144 142 148 161 q 141 103 141 123 q 141 63 141 82 q 147 33 141 44 q 200 6 170 9 q 254 3 230 3 q 263 20 254 16 q 286 33 272 23 q 283 65 286 47 q 268 96 281 84 q 277 178 268 141 q 286 248 286 215 q 283 287 286 270 q 268 326 281 303 q 277 355 268 337 q 286 387 286 374 q 294 454 286 420 q 316 511 303 487 q 324 534 321 521 q 332 555 328 547 q 342 565 336 564 q 359 555 348 566 q 397 508 383 532 q 422 462 411 485 q 445 440 434 452 q 469 418 456 429 q 479 413 473 418 q 491 402 485 408 q 502 391 496 396 q 512 387 507 387 q 566 433 535 410 q 622 480 598 456 q 643 477 633 480 q 653 462 653 475 q 661 435 653 438 q 683 432 670 432 q 688 477 694 455 q 683 523 683 499 l 667 511 q 676 547 667 534 q 697 572 686 559 q 706 564 702 572 q 711 546 709 556 q 714 525 714 535 q 714 511 714 515 q 707 418 701 464 q 714 326 714 371 q 719 281 714 303 q 714 235 725 259 l 714 203 q 716 188 714 192 q 721 182 718 184 q 725 179 723 180 q 728 173 728 178 q 719 168 722 173 q 715 157 716 163 q 714 142 714 150 l 714 95 q 714 79 714 83 q 715 74 714 76 q 719 72 716 73 q 728 63 722 70 q 730 38 722 47 q 750 25 737 29 q 779 21 763 21 q 806 21 795 21 q 829 18 815 21 q 868 3 842 16 q 868 47 868 26 q 880 82 868 68 l 880 326 q 873 386 880 359 q 866 449 866 413 q 873 517 866 481 q 881 584 881 552 l 881 847 "},"C":{"x_min":37,"x_max":823,"ha":858,"o":"m 102 177 q 70 242 82 209 q 59 306 59 274 q 37 424 37 370 q 37 542 37 478 l 37 647 q 56 710 53 679 q 59 773 59 741 q 78 804 73 792 q 102 816 82 816 q 94 834 92 825 q 102 850 96 842 q 113 866 107 858 q 120 884 120 874 q 143 912 128 899 q 174 935 157 924 q 204 958 190 946 q 229 986 219 970 q 271 1017 242 1005 q 333 1029 300 1029 q 367 1037 348 1037 q 407 1032 387 1037 q 448 1024 428 1027 q 484 1029 467 1022 q 490 1007 484 1012 q 507 1000 497 1002 q 527 997 517 998 q 545 986 538 995 q 590 969 564 969 q 629 969 615 969 q 706 921 661 952 q 782 859 750 891 q 788 818 788 842 q 780 770 788 794 q 756 730 772 747 q 715 714 740 714 q 697 704 708 705 q 674 704 686 702 q 651 710 663 707 q 629 714 639 714 q 601 719 613 719 q 578 716 589 719 q 555 706 567 714 q 527 690 543 698 q 447 644 478 683 q 403 553 416 605 q 390 445 390 501 q 417 348 390 389 q 477 276 435 304 q 570 263 518 249 q 620 280 601 263 q 649 320 638 298 q 671 363 661 342 q 696 391 681 384 q 771 404 743 411 q 811 371 799 396 q 823 308 823 345 q 813 233 823 271 q 789 163 804 195 q 757 116 774 131 q 691 35 725 67 q 611 -10 657 3 l 502 -10 q 438 8 470 3 q 374 33 406 13 q 261 47 310 33 q 161 94 211 62 q 144 114 155 102 q 124 137 134 126 q 108 160 114 149 q 102 177 102 170 m 77 458 q 63 409 63 438 q 77 348 63 380 q 101 345 96 348 q 120 330 106 343 q 134 309 127 317 q 148 295 141 301 q 161 289 154 289 q 152 348 161 320 q 143 391 143 375 q 119 440 143 423 q 77 458 96 458 m 102 289 q 142 174 102 223 q 247 94 182 124 q 240 121 247 109 q 223 146 233 134 q 203 172 213 159 q 186 202 192 185 q 171 221 186 216 q 143 245 157 226 q 120 274 125 259 q 102 289 115 289 m 586 945 q 534 956 564 953 q 474 956 504 960 q 417 939 443 952 q 374 903 391 927 q 400 891 400 895 q 390 883 400 887 q 368 874 381 879 q 356 859 356 869 q 304 807 324 827 q 271 755 285 786 q 237 691 252 722 q 204 627 223 659 q 195 564 204 595 q 186 501 186 533 l 186 458 l 186 414 q 176 387 176 406 q 177 349 176 369 q 182 313 178 330 q 186 289 186 295 q 219 221 202 256 q 255 156 235 187 q 300 103 276 126 q 356 74 324 81 q 375 53 370 56 q 398 51 380 51 q 410 35 398 37 q 441 33 423 33 q 505 20 472 33 q 570 8 538 8 q 679 69 633 27 q 757 159 725 110 q 781 224 776 191 q 798 289 786 256 q 798 322 798 304 q 792 353 798 339 q 774 372 786 366 q 739 371 761 378 q 700 348 714 363 q 676 318 686 334 q 656 288 665 302 q 629 263 646 273 q 590 243 613 246 q 541 240 567 240 q 489 247 516 240 q 441 263 463 255 q 390 330 409 295 q 358 415 371 365 q 350 474 350 447 q 358 528 350 502 q 378 578 367 554 q 398 627 390 602 q 432 669 413 643 q 484 714 452 695 q 499 719 490 714 q 518 734 507 725 q 540 748 528 742 q 570 755 553 755 q 607 757 585 761 q 651 746 629 752 q 690 740 672 740 q 715 755 708 740 q 739 776 731 761 q 749 810 747 791 q 749 848 751 828 q 739 884 746 868 q 706 900 721 898 q 672 903 690 903 q 647 919 656 911 q 629 932 638 927 q 612 941 621 938 q 586 945 603 945 m 356 1011 q 322 1003 331 1011 q 313 986 313 996 q 319 964 313 975 q 333 945 325 953 q 357 934 348 938 q 372 930 365 930 q 384 934 378 930 q 398 945 390 938 q 428 959 415 952 q 449 972 439 966 q 459 986 459 978 q 431 992 443 986 q 407 1004 419 998 q 384 1014 396 1011 q 356 1011 371 1017 m 186 884 q 183 860 177 874 q 200 828 188 845 q 226 797 212 811 q 247 773 240 782 q 280 818 266 792 q 314 859 295 845 q 330 893 328 878 q 333 926 333 907 q 302 938 318 926 q 271 967 285 950 q 257 954 262 959 q 248 945 252 949 q 240 936 244 940 q 229 926 235 932 q 214 921 219 926 q 205 911 209 917 q 197 898 201 905 q 186 884 192 891 m 102 773 q 106 758 108 766 q 99 740 103 750 q 93 717 95 729 q 102 690 92 705 q 127 648 102 675 q 186 604 153 622 q 204 668 199 636 q 229 731 209 700 q 192 792 209 763 q 143 841 174 821 q 129 807 143 821 q 102 773 115 792 m 77 670 q 61 583 61 620 q 61 501 61 545 q 108 469 91 481 q 143 458 125 458 q 149 490 143 474 q 161 522 155 506 q 169 553 167 537 q 162 586 170 569 q 152 603 162 592 q 128 626 142 613 q 101 650 114 638 q 77 670 87 662 "},"[":{"x_min":35,"x_max":516,"ha":551,"o":"m 460 -4 q 392 -13 425 -13 q 323 -13 358 -13 q 262 -6 294 -6 q 196 -6 229 -6 q 139 -6 171 -6 q 81 9 107 -6 q 53 46 62 27 q 35 101 44 66 l 35 224 q 41 293 35 260 q 47 362 47 327 q 52 396 54 380 q 59 430 50 413 q 59 467 59 448 q 73 513 59 485 q 73 637 73 572 q 81 765 73 702 q 77 831 81 800 q 81 888 74 863 q 77 948 81 916 q 81 1004 74 979 q 82 1021 81 1013 q 94 1040 83 1028 l 149 1040 q 201 1044 176 1046 q 254 1049 226 1042 q 298 1052 275 1052 q 345 1049 321 1052 q 395 1046 369 1046 q 447 1049 420 1046 q 460 1032 457 1042 q 470 1016 462 1023 q 482 997 470 1006 q 506 970 495 988 q 510 958 507 963 q 515 934 515 944 q 510 918 515 927 q 506 901 506 908 l 506 879 q 494 858 506 864 q 469 852 483 852 q 438 854 454 852 q 414 856 422 856 q 351 856 380 856 q 286 866 321 856 q 277 727 277 796 q 277 581 277 658 q 270 514 266 547 q 264 454 273 481 l 264 385 l 264 329 q 275 266 275 295 q 275 214 275 238 q 276 185 275 196 q 286 157 278 173 l 310 157 l 323 157 l 332 157 l 460 157 q 505 125 494 150 q 516 65 516 100 l 516 9 q 509 -2 516 -1 q 493 -4 503 -4 l 460 -4 m 414 1040 q 419 1019 414 1031 q 432 998 425 1008 q 447 983 439 988 q 460 982 455 977 q 449 1024 460 1008 q 414 1040 439 1040 m 391 1026 q 357 1039 375 1039 q 323 1039 339 1039 q 336 1007 327 1017 q 360 994 346 998 q 390 988 374 990 q 423 982 407 986 q 407 1008 416 998 q 391 1026 398 1019 m 94 1004 q 93 979 89 991 q 104 956 96 966 q 124 940 113 946 q 149 934 136 934 q 149 953 154 942 q 135 974 144 963 q 113 992 125 984 q 94 1004 102 999 m 103 934 q 98 925 103 927 q 94 911 94 922 q 95 889 94 904 q 103 866 96 875 q 122 846 113 857 q 148 842 132 835 l 148 888 q 147 909 148 905 q 141 925 147 913 q 121 926 129 925 q 103 934 112 927 m 116 775 q 133 779 124 775 q 149 775 142 784 q 151 787 149 779 q 153 802 153 795 q 151 815 153 809 q 141 821 149 821 q 120 828 129 821 q 94 842 110 835 l 94 797 l 116 775 m 149 765 q 121 760 132 755 q 94 765 110 765 l 94 696 q 101 692 97 696 q 111 685 105 688 q 124 680 117 681 q 141 683 131 679 q 144 718 147 700 q 149 765 142 737 m 94 672 q 87 651 89 663 q 88 629 85 640 q 100 611 91 619 q 127 604 110 604 q 135 604 132 599 q 139 617 138 609 q 141 635 141 626 q 141 649 141 645 q 134 657 141 653 q 120 664 128 660 q 105 669 113 667 q 94 672 98 672 m 94 591 q 87 564 94 574 q 81 536 81 554 q 93 529 85 536 q 108 515 101 522 q 121 507 116 509 q 127 513 127 505 q 138 540 138 530 q 127 569 138 551 q 113 581 127 579 q 94 591 100 584 m 81 523 q 76 488 74 506 q 71 454 78 470 q 98 440 88 454 q 127 420 108 427 l 127 476 q 108 497 118 487 q 81 523 97 506 m 71 444 q 65 409 60 426 q 71 374 71 392 q 86 361 75 370 q 109 346 97 352 q 131 343 121 341 q 141 362 141 345 q 139 381 141 371 q 127 408 138 391 q 103 421 118 417 q 71 444 88 426 m 57 284 q 92 270 75 284 q 127 246 108 257 q 134 281 127 265 q 141 306 141 296 q 133 321 141 314 q 114 333 125 328 q 91 343 103 338 q 71 352 79 348 q 69 339 71 342 q 57 329 68 336 l 57 284 m 116 78 q 99 74 107 72 q 83 79 90 75 q 69 90 75 83 q 57 101 63 96 q 69 50 57 73 q 116 9 82 27 l 116 78 m 116 88 q 121 135 116 114 q 127 179 127 155 q 92 186 108 179 q 57 202 75 194 l 57 123 q 74 115 68 123 q 81 101 81 107 l 103 101 q 109 94 113 101 q 116 88 105 88 m 127 202 q 125 224 127 211 q 116 238 124 238 q 87 254 99 244 q 57 271 75 264 q 53 252 57 264 q 57 224 50 240 q 64 214 57 220 q 82 205 72 209 q 106 199 93 200 q 127 202 118 198 m 240 9 q 311 2 275 9 q 391 -5 347 -5 q 425 2 408 -5 q 460 9 443 9 q 467 10 462 9 q 482 20 472 11 q 493 22 490 20 q 498 27 497 24 q 500 34 498 31 q 506 42 501 38 q 499 76 506 58 q 493 110 493 93 q 473 130 484 127 q 437 133 461 133 q 411 140 426 133 q 378 147 396 147 l 323 147 q 286 147 304 127 q 270 152 273 147 q 268 164 268 157 q 268 179 268 172 q 264 191 268 187 q 260 224 257 209 q 264 246 264 239 q 262 282 264 265 q 256 316 261 299 l 256 453 l 256 604 l 256 672 q 256 711 256 690 q 264 752 256 733 q 265 786 264 769 q 277 821 266 802 q 270 847 277 837 q 264 865 264 857 q 266 877 264 875 q 286 878 269 878 q 355 872 321 878 q 423 866 389 866 q 458 872 441 866 q 493 879 475 879 l 493 956 q 463 973 484 975 q 423 970 441 970 q 385 975 407 970 q 345 970 364 979 l 264 970 l 186 970 q 170 976 175 970 q 172 982 165 982 q 197 991 183 991 q 218 982 211 991 q 212 992 218 990 q 208 994 209 994 q 197 1003 198 1001 q 196 1016 196 1006 q 193 1027 191 1024 q 200 1028 196 1030 q 209 1023 204 1027 q 218 1016 214 1020 q 237 994 227 1006 q 264 982 246 982 q 292 988 280 982 q 323 994 304 994 q 321 1001 323 997 q 310 1016 320 1004 q 297 1031 301 1023 q 276 1040 293 1040 q 252 1033 266 1040 q 230 1026 237 1026 q 197 1031 213 1026 q 163 1026 180 1037 q 138 1024 151 1026 q 116 1016 124 1023 q 129 999 116 1006 q 149 982 142 991 q 156 980 151 982 q 163 970 163 976 q 166 957 169 959 q 163 948 163 955 q 166 879 163 912 q 162 821 169 846 q 162 743 162 779 q 149 672 162 708 q 146 656 149 667 q 144 633 144 644 q 144 613 144 622 q 149 604 144 604 q 154 586 160 594 q 149 569 149 579 l 149 444 q 145 419 142 433 q 149 398 149 405 l 149 329 l 149 261 q 141 215 141 233 q 141 179 141 196 l 141 32 q 136 15 141 22 q 149 9 132 9 l 172 9 l 240 9 "},"L":{"x_min":34.109375,"x_max":658,"ha":694,"o":"m 613 214 q 640 176 636 198 q 645 130 645 153 q 658 82 658 106 q 658 34 658 57 q 638 -9 658 10 q 594 -30 618 -30 q 564 -20 583 -30 q 531 -11 544 -11 q 517 -13 525 -11 q 501 -18 510 -16 q 483 -19 492 -19 q 467 -10 474 -19 l 420 -10 l 357 -10 l 243 -10 q 195 -10 219 -10 q 147 3 170 -10 q 125 4 135 3 q 115 21 115 6 q 110 39 115 33 q 97 50 105 45 q 82 57 90 54 q 70 66 74 61 q 67 54 70 55 q 50 53 65 53 q 66 36 57 41 q 85 30 75 31 q 101 27 94 29 q 115 21 109 26 q 94 7 109 7 q 64 14 78 7 q 39 35 49 21 q 37 66 30 49 q 41 100 46 80 q 37 130 37 120 q 44 194 37 167 q 52 244 52 221 l 52 323 q 52 386 52 359 q 70 437 52 413 l 70 643 l 70 707 l 70 738 q 61 750 63 745 q 62 757 60 754 q 67 763 64 761 q 70 770 70 766 l 70 868 q 72 890 74 879 q 66 915 70 902 q 63 939 63 927 q 70 964 63 951 q 81 987 80 976 q 83 1014 83 998 q 94 1021 88 1017 q 103 1025 98 1023 q 115 1028 109 1028 q 151 1043 128 1041 q 197 1046 173 1046 q 227 1049 208 1057 q 262 1028 247 1041 q 284 1005 273 1017 q 306 994 295 994 q 316 958 306 970 q 338 932 327 946 l 338 834 q 331 786 338 811 q 325 738 325 762 l 325 693 l 325 642 q 317 594 310 619 q 325 547 325 570 l 325 437 l 325 228 q 306 248 312 228 q 301 300 301 268 q 301 370 301 331 q 301 443 301 408 q 301 507 301 478 q 301 546 301 535 l 301 725 q 313 811 301 773 q 325 898 325 850 q 302 958 325 937 q 242 980 280 980 l 211 980 q 201 966 211 968 q 179 964 192 964 q 174 916 169 940 q 179 868 179 891 l 179 661 q 172 624 179 647 q 166 578 166 602 l 166 469 q 171 372 176 420 q 166 276 166 324 q 147 181 147 229 q 147 84 147 133 q 145 68 147 77 q 141 51 142 59 q 140 34 140 43 q 147 21 141 26 q 165 4 147 6 q 197 3 183 3 l 357 3 l 433 3 l 517 3 q 548 -1 529 3 q 586 -6 567 -6 q 622 2 606 -6 q 645 34 638 10 q 651 63 651 47 q 648 98 651 80 q 639 132 645 116 q 626 162 633 149 q 617 178 621 168 q 610 195 614 187 q 599 208 606 202 q 581 214 593 214 l 581 228 q 591 225 586 228 q 601 221 596 223 q 613 214 607 217 m 243 994 q 235 1012 243 1007 q 217 1017 227 1017 q 196 1015 206 1017 q 179 1014 185 1014 q 195 996 185 1001 q 213 991 204 991 q 229 992 222 991 q 243 994 237 994 m 147 1028 q 165 1015 162 1016 q 179 1014 169 1014 l 179 1028 l 147 1028 m 133 1028 q 115 1004 119 1017 q 101 980 112 991 q 110 965 106 973 q 117 950 113 957 q 128 937 121 943 q 146 932 134 932 q 163 947 157 932 q 166 963 166 954 q 160 981 166 974 q 148 995 155 988 q 137 1008 142 1001 q 133 1028 133 1015 m 101 950 q 93 925 93 937 q 94 901 93 913 q 98 877 95 888 q 101 854 101 865 q 114 834 110 839 q 133 821 119 830 l 147 821 q 164 860 162 845 q 166 898 166 875 q 155 915 166 913 q 133 918 144 918 q 110 927 119 918 q 101 950 101 936 m 83 514 q 85 496 78 502 q 104 485 92 489 q 128 478 116 481 q 147 469 141 474 l 147 546 l 147 629 q 155 674 155 652 q 153 716 155 695 q 149 757 152 736 q 147 802 147 779 q 124 799 135 791 q 101 821 112 807 q 87 787 87 807 q 101 758 87 768 q 105 747 101 751 q 118 739 110 743 q 133 733 125 736 q 146 725 141 730 q 148 716 153 718 q 131 718 142 715 q 101 725 119 720 q 90 699 93 718 q 87 661 87 680 q 90 626 87 641 q 101 611 94 611 q 103 604 101 605 q 110 604 106 604 q 120 603 115 604 q 133 597 126 602 q 135 587 138 590 q 128 581 133 584 q 115 579 123 579 q 93 577 103 579 q 83 565 83 576 q 85 551 83 558 q 89 540 88 545 q 90 528 91 534 q 83 514 89 521 m 83 469 q 78 435 73 454 q 83 405 83 416 q 91 392 83 398 q 110 381 99 385 q 131 374 120 377 q 147 372 141 372 l 147 450 q 138 458 141 456 q 132 457 135 459 q 125 452 128 455 q 115 450 121 450 q 100 466 103 464 q 83 469 96 469 m 115 84 q 121 107 115 94 q 115 130 128 120 q 110 146 115 142 q 97 153 105 150 q 82 155 90 155 q 70 162 74 156 l 70 117 q 78 99 70 102 q 101 84 87 95 q 108 90 101 93 q 115 84 110 88 m 115 162 q 130 180 128 162 q 133 214 133 198 l 133 341 q 136 352 144 351 q 115 354 128 354 q 91 369 103 367 q 70 372 79 372 q 62 344 62 360 q 68 312 62 327 q 86 286 74 296 q 115 276 98 276 q 125 271 121 276 q 128 259 128 266 q 125 248 128 253 q 114 244 121 244 q 91 251 103 244 q 70 258 80 258 q 70 241 70 252 q 71 219 70 231 q 75 196 73 206 q 83 180 78 185 q 94 177 88 180 q 103 171 98 174 q 115 162 109 168 m 562 214 q 528 200 550 207 q 482 191 506 194 q 436 189 458 189 q 402 194 414 189 q 420 212 408 207 q 443 217 431 217 q 467 215 456 217 q 485 214 478 214 q 508 224 497 219 q 530 230 519 229 q 549 228 540 232 q 562 214 557 225 m 371 214 q 358 196 371 194 q 336 206 345 198 q 331 219 327 214 q 371 214 335 225 "},"!":{"x_min":35,"x_max":250.625,"ha":286,"o":"m 106 1017 q 115 1020 113 1017 q 124 1023 117 1023 l 151 1023 q 172 1029 164 1023 q 186 1042 179 1036 q 218 1030 205 1042 q 239 1007 230 1019 q 242 990 239 1001 q 246 971 246 979 l 246 911 q 243 866 246 891 q 246 814 240 840 q 249 760 252 786 q 246 706 246 734 q 241 597 246 654 q 227 479 236 540 q 227 423 227 453 q 221 365 227 393 q 220 340 221 353 q 210 314 218 327 q 210 293 210 305 q 203 268 210 280 q 171 265 194 268 q 125 262 148 262 q 88 269 103 262 q 80 296 72 276 q 75 313 80 301 q 70 339 70 325 l 70 391 q 75 448 70 418 q 80 507 80 479 q 81 613 72 559 q 98 725 90 666 l 98 830 l 98 929 q 96 951 98 938 q 95 976 95 963 q 97 999 95 989 q 106 1017 99 1010 m 116 1000 q 109 975 109 991 q 116 947 109 959 q 131 943 122 947 q 140 947 140 940 l 140 970 q 148 981 148 979 q 141 989 148 983 q 128 994 134 989 q 116 1000 122 1000 m 116 937 q 107 910 109 923 q 106 885 106 897 q 119 881 113 885 q 130 875 125 878 q 138 874 135 872 q 141 885 141 875 l 141 919 q 131 928 141 926 q 116 937 122 930 m 116 867 q 114 842 116 857 q 112 816 112 828 q 117 799 112 804 q 141 806 123 794 l 141 859 q 128 859 134 859 q 116 867 123 860 m 141 769 q 140 782 141 776 q 132 787 139 787 q 120 786 125 787 q 116 778 116 785 q 107 759 109 771 q 106 735 106 748 q 126 729 120 735 q 132 735 132 722 q 136 755 132 748 q 141 769 141 762 m 106 672 q 104 656 99 658 q 116 654 109 654 l 132 654 q 136 681 132 667 q 133 706 139 694 q 123 720 133 715 q 106 725 113 725 l 106 672 m 98 601 q 103 593 98 595 q 116 583 109 591 q 123 582 122 579 q 124 594 124 586 q 132 615 131 608 q 133 630 133 622 q 122 644 133 642 q 98 647 112 647 l 98 601 m 98 583 q 93 559 98 572 q 88 532 88 546 q 97 524 95 525 q 106 524 99 524 q 122 518 120 516 q 124 532 124 519 q 127 550 124 539 q 124 568 131 561 q 111 577 117 575 q 98 583 105 579 m 116 303 q 88 321 116 321 q 89 293 88 307 q 97 279 90 279 q 107 288 105 279 q 116 303 109 297 m 106 332 q 114 348 113 337 q 116 365 116 358 l 116 383 q 101 391 108 390 q 88 392 94 392 q 84 373 81 385 q 88 355 88 362 q 90 337 88 343 q 106 332 92 332 m 106 401 q 118 410 120 401 q 116 426 116 419 q 88 445 116 445 l 88 418 q 93 406 88 411 q 106 401 99 401 m 116 454 q 122 472 122 461 q 122 497 122 483 q 122 505 122 504 q 116 507 122 507 q 102 507 109 507 q 87 515 95 508 q 87 493 87 505 q 89 471 87 480 q 96 456 91 461 q 116 454 102 450 m 159 1024 q 144 1020 152 1024 q 124 1017 136 1017 q 145 1000 129 1004 q 169 982 161 995 q 156 966 155 973 q 151 947 157 959 l 151 901 q 151 796 163 849 l 151 701 q 146 672 151 687 q 141 637 141 658 l 141 583 q 136 478 141 532 q 124 365 131 425 l 124 314 q 120 294 124 305 q 124 279 117 283 q 131 274 124 275 q 147 275 138 273 q 165 277 156 276 q 176 279 174 279 q 185 284 183 283 q 194 285 187 285 q 198 295 194 293 q 203 303 203 297 q 208 330 203 316 q 213 355 213 343 q 213 401 213 376 q 221 454 213 426 l 221 559 q 227 612 227 586 q 227 665 227 638 q 233 718 236 692 q 239 769 230 744 q 233 818 239 797 q 228 867 228 839 q 238 919 238 893 q 238 970 238 945 q 222 978 231 978 q 204 978 214 978 q 184 978 194 978 q 169 982 175 978 q 179 989 175 987 q 176 1000 183 991 q 164 1004 170 1000 q 159 1017 159 1009 q 168 1017 163 1019 q 180 1011 173 1015 q 193 1003 187 1007 q 203 1000 199 1000 q 212 994 207 997 q 228 989 223 989 q 224 1003 228 997 q 221 1017 221 1009 q 198 1027 207 1021 q 176 1024 189 1032 l 159 1024 m 159 32 q 153 27 152 32 q 141 22 155 22 q 123 9 134 15 q 97 4 111 4 q 85 6 93 4 q 66 11 76 8 q 47 20 55 15 q 35 32 39 25 q 36 57 35 44 q 44 85 37 70 q 55 119 44 104 q 80 156 67 135 q 90 162 82 158 q 106 168 98 166 q 122 170 114 170 q 133 162 129 169 q 149 170 146 169 q 159 172 152 172 q 172 159 166 165 q 186 146 179 153 q 200 119 198 132 q 203 93 203 105 q 192 59 203 73 q 169 39 182 45 q 163 37 166 39 q 159 32 159 34 m 106 156 q 89 141 99 149 q 80 120 80 133 q 88 124 87 120 q 98 128 90 128 q 105 145 98 135 q 106 156 113 156 m 70 102 q 58 88 64 94 q 53 75 53 82 q 67 80 60 75 q 88 85 74 85 q 84 97 88 92 q 88 102 81 102 q 75 108 81 108 q 70 102 70 108 m 53 57 q 56 32 53 37 q 80 39 60 26 q 91 49 87 45 q 88 66 95 52 q 70 68 81 73 q 53 57 60 63 m 80 22 q 110 20 94 15 q 133 32 126 25 q 119 35 125 32 q 106 39 113 39 q 93 30 99 39 q 80 22 87 22 m 98 85 q 118 49 98 57 q 159 48 139 41 q 179 73 172 55 q 186 109 186 90 q 184 128 186 116 q 169 146 182 139 q 163 154 169 151 q 159 156 160 156 q 145 158 152 161 q 133 156 139 156 q 119 142 125 149 q 106 128 113 135 q 102 105 99 114 q 98 85 105 97 "}," ":{"x_min":0,"x_max":0,"ha":694},"{":{"x_min":35,"x_max":457.609375,"ha":492,"o":"m 454 1046 q 450 1038 451 1041 q 454 1033 447 1033 q 457 1027 458 1028 q 453 1024 455 1025 q 451 1023 451 1023 q 454 1023 450 1023 q 439 1013 442 1018 q 439 1001 437 1007 q 444 989 442 995 q 442 980 446 984 q 438 962 435 970 q 442 946 442 955 l 442 924 q 433 916 435 917 q 421 915 431 915 q 350 883 380 905 q 303 828 320 860 q 269 751 278 796 q 260 665 260 706 q 253 647 255 656 q 251 627 251 637 q 249 608 251 617 q 238 590 246 598 q 213 554 227 565 q 182 534 199 544 q 194 526 182 527 q 216 525 207 525 q 231 513 222 515 q 247 504 240 511 q 258 481 255 495 q 261 453 261 467 q 260 425 261 438 q 260 403 260 412 q 256 349 260 376 q 253 298 253 323 q 255 248 253 273 q 270 199 258 224 q 287 166 278 182 q 313 134 296 150 q 346 105 328 109 q 389 101 364 101 q 420 98 406 101 q 434 78 434 95 l 434 35 l 434 13 q 433 3 434 5 q 430 0 432 1 q 423 -1 428 0 q 412 -7 419 -2 q 387 -10 402 -7 q 356 -7 372 -14 q 369 2 360 1 q 388 4 379 4 q 404 8 397 4 q 412 25 412 13 q 415 57 412 42 q 412 79 418 72 q 378 85 394 79 q 346 91 362 91 q 302 118 321 99 q 268 161 283 136 q 246 212 254 185 q 239 264 239 239 q 239 329 239 296 q 248 395 239 362 q 249 427 248 412 q 248 457 250 442 q 239 483 246 471 q 216 504 232 495 q 188 511 200 511 q 160 511 176 511 q 145 519 145 511 q 160 534 145 527 q 199 563 176 551 q 238 599 221 576 q 242 654 242 624 q 248 708 242 684 q 254 730 248 717 q 260 751 260 744 q 261 782 260 767 q 269 806 262 796 q 294 853 278 830 q 334 894 310 877 q 357 903 343 901 q 377 915 370 905 q 389 919 382 919 q 404 921 396 920 q 416 925 412 921 q 421 937 421 928 q 426 957 431 944 q 421 980 421 970 l 368 980 q 349 974 358 980 q 325 968 340 968 q 300 961 315 968 q 269 946 285 955 q 253 929 262 939 q 238 902 244 919 q 230 880 238 895 q 216 849 222 866 l 216 785 q 199 752 207 768 q 182 720 192 735 q 165 662 175 688 q 139 612 154 635 q 113 599 122 602 q 96 590 104 596 q 86 577 88 580 q 73 568 83 574 q 65 566 66 568 q 64 556 64 565 q 53 529 54 540 q 52 503 52 519 q 64 486 52 494 q 86 469 76 478 q 110 457 101 469 q 129 438 120 445 q 140 427 137 434 q 144 413 143 420 q 146 399 145 406 q 152 383 147 391 q 152 368 152 376 q 160 361 153 361 q 164 355 167 361 q 160 351 162 352 q 152 339 153 342 q 152 330 152 337 l 152 274 q 156 247 152 258 q 160 222 160 237 q 161 203 160 212 q 173 177 162 193 q 174 159 173 168 q 182 134 175 150 q 195 118 186 125 q 212 100 204 110 q 225 80 220 91 q 225 58 229 70 q 214 66 217 58 q 209 81 211 74 q 200 90 206 88 q 182 78 195 91 q 185 58 175 72 q 195 35 195 45 q 220 51 210 45 q 248 58 231 58 q 242 42 248 50 q 238 35 239 38 q 221 20 213 28 q 248 13 230 13 q 257 10 253 11 q 260 13 265 7 q 258 17 260 22 q 248 13 257 13 q 244 25 248 22 q 248 35 240 28 q 264 25 257 28 q 281 13 272 22 q 297 5 288 5 q 313 5 306 5 q 327 -1 322 5 q 325 -7 332 -7 q 298 -10 309 -14 q 281 -7 288 -7 q 255 -5 265 -7 q 238 5 245 -4 q 214 5 227 5 q 195 13 201 5 q 168 43 178 22 q 152 79 158 63 q 139 105 142 95 q 129 121 136 114 l 129 143 q 127 154 129 153 q 117 156 126 156 q 120 179 120 167 q 117 204 120 192 q 110 228 114 216 q 107 252 107 241 q 98 302 98 278 q 98 351 98 326 l 98 403 l 98 426 l 107 438 q 92 453 99 445 q 86 469 86 462 q 63 481 76 478 q 43 491 50 484 q 35 509 35 499 q 37 531 35 519 q 43 554 40 543 q 43 577 46 566 q 42 597 39 590 q 50 610 44 605 q 62 619 56 614 q 73 633 69 624 q 84 637 81 633 q 86 643 86 640 q 94 650 93 643 q 96 665 96 658 q 101 689 96 674 q 107 720 107 703 q 115 740 114 727 q 117 763 117 753 q 123 789 126 780 q 129 816 120 799 q 134 833 136 825 q 139 849 132 841 q 145 870 139 856 q 152 894 152 884 l 152 937 q 166 953 158 944 q 182 980 175 963 q 189 995 182 988 q 206 1009 196 1003 q 228 1019 217 1016 q 248 1023 239 1023 l 248 1011 q 246 1003 257 1004 q 225 1002 235 1002 q 218 991 216 997 q 224 980 219 985 q 236 971 229 974 q 248 968 243 968 q 275 965 257 960 q 303 980 293 970 q 292 995 293 986 q 291 1011 291 1004 q 281 1025 283 1020 q 269 1023 278 1030 q 273 1034 265 1031 q 295 1037 282 1037 q 319 1039 307 1037 q 334 1046 331 1041 q 367 1050 350 1046 q 399 1055 383 1055 q 411 1050 409 1055 q 421 1046 414 1046 q 437 1049 431 1046 q 454 1046 444 1052 m 173 134 q 165 138 168 134 q 158 148 161 143 q 151 156 156 153 q 139 156 147 160 q 147 134 143 147 q 156 108 152 120 q 168 92 161 96 q 182 101 174 88 q 185 109 186 105 q 182 117 184 113 q 176 125 179 121 q 173 134 173 129 m 152 177 q 152 188 152 181 q 150 203 152 195 q 146 216 149 210 q 139 222 143 222 q 127 209 122 222 q 139 186 132 196 q 140 174 139 179 q 152 177 143 163 m 139 243 q 138 255 139 247 q 135 272 137 263 q 129 285 133 280 q 117 287 125 290 l 117 265 q 119 245 117 248 q 139 243 122 243 m 129 308 q 136 320 136 308 q 129 339 136 332 q 121 349 129 348 q 107 351 113 351 q 112 335 107 342 q 117 317 117 327 q 118 304 117 310 q 129 308 119 298 m 117 416 q 113 392 109 406 q 117 361 117 377 q 127 367 126 370 q 129 373 129 363 q 127 398 129 390 q 117 416 126 406 m 64 590 q 84 596 70 590 q 107 612 98 602 l 96 621 q 76 605 88 614 q 64 590 64 596 m 152 665 q 142 680 157 674 q 117 686 126 686 q 108 665 109 679 q 107 642 107 652 q 113 630 107 635 q 129 633 119 624 q 144 649 136 639 q 152 665 152 658 m 160 686 q 171 709 160 695 q 182 730 182 723 q 165 744 182 738 q 139 751 148 751 q 130 730 131 744 q 129 708 129 717 q 140 693 129 701 q 160 686 152 686 m 182 763 q 193 784 192 770 q 195 816 195 799 q 176 823 184 816 q 152 838 167 831 q 140 805 141 821 q 139 773 139 788 q 150 764 143 768 q 165 756 158 759 q 177 754 172 753 q 182 763 182 755 m 204 849 q 206 865 204 856 q 216 882 207 874 q 199 888 207 882 q 182 894 192 894 l 172 894 q 161 886 162 894 q 160 872 160 879 q 158 851 153 855 q 173 838 163 846 q 197 832 189 831 q 204 849 204 834 m 225 924 q 238 945 235 941 q 225 958 242 949 l 216 968 q 200 972 208 974 q 195 968 196 970 q 189 958 190 963 q 187 948 187 953 q 183 940 186 944 q 173 937 180 937 q 180 930 176 937 q 182 924 182 927 q 188 914 182 917 q 195 902 195 912 q 217 897 210 887 q 225 924 225 907 m 434 1023 q 427 1038 434 1035 q 409 1039 420 1041 q 387 1035 399 1038 q 368 1033 376 1033 l 334 1033 q 313 1031 327 1033 q 291 1023 300 1030 q 304 1006 300 1014 q 325 989 309 999 q 345 992 332 982 q 368 1002 358 1002 q 358 1011 368 1009 q 356 1023 349 1014 q 373 1019 365 1030 q 389 1002 380 1009 q 415 996 406 985 q 434 1023 424 1007 m 334 -7 q 340 -2 336 -4 q 356 -7 349 0 q 345 -14 356 -14 q 334 -7 334 -14 "},"X":{"x_min":36.265625,"x_max":982.296875,"ha":1018,"o":"m 953 997 q 960 990 953 991 q 974 985 968 989 q 982 975 980 982 q 971 950 983 968 q 947 911 957 935 q 938 863 938 888 q 903 837 924 852 q 872 797 883 822 q 852 780 859 791 q 841 754 846 769 q 831 724 836 740 q 819 697 826 709 q 796 670 808 685 q 773 630 784 655 q 732 580 747 605 q 706 531 717 555 q 671 490 692 507 q 639 449 650 474 q 634 424 632 437 q 642 399 636 412 q 657 375 649 387 q 673 351 666 363 q 688 301 684 326 q 706 251 692 276 q 729 183 717 212 q 753 117 741 153 q 764 76 753 94 q 787 33 775 58 q 785 10 787 21 q 773 0 784 0 l 688 0 q 669 -1 682 0 q 642 -2 656 -2 q 617 2 628 -2 q 607 19 607 6 q 598 19 599 19 q 599 20 597 19 q 604 24 601 21 q 607 33 607 27 q 589 35 592 33 q 586 53 586 37 q 575 61 576 53 q 574 86 574 70 q 549 125 558 109 q 541 166 541 141 q 514 232 525 205 q 487 285 502 259 q 465 275 474 285 q 448 254 456 266 q 434 227 440 241 q 421 199 427 212 q 387 142 409 174 q 339 86 364 109 q 302 18 325 45 q 254 -33 279 -8 q 239 -45 243 -45 q 221 -33 236 -45 q 190 -14 210 -18 q 156 0 169 -11 l 156 -33 q 134 -16 146 -21 q 123 -14 128 -14 q 87 -4 97 -14 q 89 19 78 4 q 93 41 89 31 q 105 59 98 51 q 117 77 111 68 q 123 100 123 87 q 141 149 123 124 q 174 199 160 174 q 197 248 185 223 q 221 298 210 273 l 221 351 l 221 365 q 214 375 215 371 q 214 382 214 378 q 213 389 214 385 q 208 398 212 392 q 167 509 182 448 q 141 630 151 571 q 132 658 134 642 q 130 690 130 673 q 130 722 130 706 q 123 749 130 737 q 92 822 111 785 q 74 883 74 858 q 58 916 67 901 q 44 948 50 932 q 36 979 37 964 q 42 1015 35 995 q 65 1022 53 1015 q 89 1030 78 1030 l 156 1030 q 185 1032 168 1030 q 219 1035 202 1035 q 251 1031 236 1035 q 274 1015 267 1027 q 281 1004 276 1009 q 285 993 283 998 q 288 982 288 987 q 318 956 312 968 q 339 931 325 944 q 398 790 364 855 q 474 651 433 726 q 497 690 484 674 q 520 732 510 705 q 539 759 532 744 q 551 790 546 774 q 561 822 557 806 q 574 849 565 837 q 586 872 578 862 q 604 892 595 881 q 622 916 613 902 q 639 950 632 930 q 647 973 639 961 q 655 997 655 986 q 670 1015 668 1010 q 673 1030 673 1019 q 703 1068 685 1061 q 741 1075 721 1075 q 781 1072 761 1075 q 819 1081 802 1069 q 862 1093 844 1093 q 904 1081 880 1093 q 935 1039 929 1057 q 953 997 942 1022 m 853 1064 q 846 1049 846 1058 q 847 1031 846 1040 q 850 1013 848 1022 q 853 997 853 1004 q 875 1004 865 1004 q 895 1003 886 1004 q 915 999 904 1002 q 938 997 925 997 q 901 1057 924 1036 q 853 1064 878 1077 m 787 1049 q 757 1060 775 1060 q 739 1048 739 1060 q 749 1021 739 1029 q 774 1012 760 1013 q 801 1012 788 1010 q 819 1015 814 1015 q 813 1034 814 1027 q 810 1044 813 1042 q 804 1048 808 1047 q 787 1049 799 1049 m 673 964 q 665 955 666 958 q 668 949 664 953 q 677 942 671 946 q 688 931 682 937 l 706 916 q 725 928 718 922 q 736 942 732 934 q 744 959 740 950 q 753 982 747 969 q 729 1008 741 993 q 706 1049 717 1023 q 682 1000 692 1023 q 673 964 673 977 m 655 916 q 636 886 649 904 q 616 851 623 869 q 611 819 608 834 q 639 797 613 804 q 663 837 650 822 q 688 863 677 852 q 695 883 695 876 q 690 894 695 890 q 676 904 685 899 q 655 916 667 909 m 574 765 q 574 751 574 759 q 575 736 574 743 q 579 728 576 730 q 587 732 582 726 q 605 743 601 732 q 620 765 609 754 q 625 783 627 777 q 617 795 623 790 q 603 804 611 799 q 587 816 595 809 q 580 790 587 801 q 574 765 574 779 m 541 697 q 523 671 532 684 q 508 645 514 659 q 500 616 502 631 q 507 585 499 601 q 529 602 517 585 q 541 630 541 620 q 554 649 550 645 q 574 663 558 653 q 570 687 574 676 q 562 706 567 699 q 551 710 557 712 q 541 697 545 709 m 207 1016 q 172 1013 191 1016 q 141 997 152 1011 q 160 980 146 984 q 191 976 174 976 q 225 979 208 976 q 254 982 242 982 q 248 1001 254 994 q 235 1011 242 1008 q 220 1015 227 1014 q 207 1016 212 1016 m 89 897 q 102 844 89 872 q 141 816 115 816 q 156 813 153 809 q 158 827 160 818 q 151 847 157 837 q 140 863 146 858 q 138 888 140 879 q 123 897 136 897 q 113 905 117 904 q 106 904 110 906 q 99 899 102 902 q 89 897 95 897 m 141 783 q 143 757 141 769 q 156 732 145 745 q 166 701 156 705 q 186 697 176 697 q 199 710 199 697 q 193 742 199 724 q 181 775 188 759 q 174 797 174 791 q 150 784 160 787 q 141 783 145 783 m 174 617 q 190 589 183 593 q 221 585 196 585 q 235 590 233 585 q 233 602 236 595 q 226 617 231 609 q 221 630 221 626 q 214 656 221 645 q 208 683 208 667 l 156 683 q 158 643 156 659 q 174 617 160 627 m 274 465 q 251 458 261 459 q 235 455 242 456 q 224 449 228 454 q 221 432 221 444 q 232 415 228 426 q 240 392 236 404 q 246 373 243 381 q 254 365 248 365 q 271 367 261 365 q 289 371 281 370 q 307 372 298 373 q 321 365 315 371 l 321 398 l 321 416 q 319 423 321 419 q 307 432 316 432 q 293 458 300 438 q 278 500 286 477 q 262 541 271 522 q 241 564 253 559 l 208 564 q 197 553 200 558 q 190 543 193 548 q 188 531 188 537 q 208 494 201 506 q 241 483 215 483 q 253 480 246 483 q 267 474 261 477 q 276 467 274 470 q 274 465 279 465 m 307 351 l 254 351 q 250 326 254 338 q 244 305 246 315 q 248 290 243 296 q 274 285 254 285 l 307 351 m 254 251 q 233 259 241 263 q 218 243 224 255 q 210 213 213 230 q 208 184 208 196 q 230 215 218 195 q 254 251 243 236 m 174 166 q 168 154 174 160 q 156 140 162 148 q 145 122 150 131 q 141 100 141 112 q 160 113 153 106 q 171 126 167 119 q 178 144 175 134 q 188 166 182 153 l 174 166 m 141 0 q 122 9 127 0 q 107 19 118 19 l 107 0 l 141 0 m 938 931 q 940 953 938 943 q 941 968 942 962 q 936 978 940 975 q 919 982 932 982 l 839 982 q 822 983 832 982 q 804 985 813 985 q 786 980 795 985 q 773 964 778 976 q 761 940 773 953 q 739 916 750 928 q 721 881 725 901 q 706 849 717 861 q 671 806 692 825 q 639 765 650 788 q 634 750 639 759 q 623 732 629 741 q 611 713 616 723 q 607 697 607 704 q 604 684 607 685 q 587 683 601 683 q 575 656 576 667 q 574 630 574 645 q 565 609 574 626 q 545 575 557 593 q 522 544 533 558 q 507 531 511 531 q 489 550 492 531 q 487 585 487 569 q 472 595 477 594 q 453 597 468 597 q 451 637 453 621 q 440 663 450 653 q 421 699 425 678 q 405 732 416 720 q 380 781 391 756 q 354 830 368 805 q 339 873 348 849 q 316 917 330 897 q 284 950 303 937 q 240 964 265 964 q 208 959 228 964 q 169 951 188 954 q 136 950 150 948 q 123 964 123 951 q 120 987 123 977 q 107 997 118 997 q 95 1004 100 1004 q 89 1004 91 1005 q 82 999 86 1002 q 74 997 79 997 q 58 986 61 997 q 57 964 54 976 q 68 941 60 951 q 89 931 76 931 q 115 933 103 931 q 141 950 127 935 q 148 914 141 935 q 156 883 156 894 q 180 833 169 858 q 208 783 192 808 q 221 733 218 758 q 241 683 225 708 q 249 634 241 659 q 274 585 258 609 q 296 534 285 559 q 307 483 307 508 q 312 460 307 470 q 325 440 318 449 q 340 421 332 432 q 354 398 348 411 q 359 384 361 392 q 350 366 357 376 q 336 347 344 356 q 321 331 327 338 q 306 298 309 320 q 288 251 302 276 q 230 175 262 212 q 174 100 199 138 q 186 93 182 100 q 188 86 188 88 q 166 67 176 70 q 156 53 156 64 q 153 33 150 40 q 163 21 156 26 q 183 11 171 16 q 208 0 194 6 q 216 -6 211 -4 q 241 -14 226 -14 q 263 9 252 -2 q 274 33 274 21 q 312 81 298 58 q 339 117 325 104 q 377 167 364 142 q 405 217 391 192 q 421 241 416 229 q 440 265 425 254 q 454 282 450 280 q 474 285 458 285 q 482 316 477 305 q 493 324 486 324 q 507 298 499 323 q 533 239 517 273 q 574 166 549 205 l 574 133 q 579 123 576 128 q 584 113 582 119 q 587 100 587 106 q 604 68 601 88 q 607 33 607 48 l 620 19 l 654 19 l 753 19 q 727 100 742 55 q 688 184 712 145 q 661 274 677 234 q 620 365 646 315 q 620 465 600 415 q 680 554 646 514 q 739 630 714 595 q 789 707 764 670 q 839 783 814 744 q 857 808 839 792 q 886 849 875 825 q 912 883 900 861 q 938 931 924 905 "},"P":{"x_min":34.65625,"x_max":828,"ha":863,"o":"m 118 59 q 94 50 105 46 q 70 67 82 55 q 50 96 59 80 q 34 124 41 112 q 43 221 34 173 q 53 318 53 269 q 50 342 53 330 q 46 364 47 354 q 44 384 44 374 q 53 401 44 394 l 53 498 q 62 597 53 547 q 86 705 72 647 l 86 866 q 86 907 86 889 q 99 950 86 925 q 101 964 99 960 q 118 981 103 967 q 135 994 118 992 q 164 997 153 997 q 200 999 177 997 q 247 1013 224 1001 l 279 1013 q 293 1025 290 1024 q 311 1027 297 1027 q 408 1021 360 1027 q 505 1028 456 1016 l 551 1028 l 601 1028 q 631 1020 612 1028 q 666 1013 651 1013 q 698 989 690 1001 q 730 963 706 977 q 761 949 741 952 q 795 930 782 945 q 823 859 819 895 q 828 788 828 823 q 825 739 828 763 q 807 691 823 715 q 807 635 807 666 q 795 594 807 605 q 786 583 787 587 q 786 576 786 580 q 784 570 786 573 q 778 562 783 567 q 768 551 773 556 q 744 530 761 541 q 719 504 733 514 q 680 479 705 493 q 649 457 669 467 q 616 446 630 446 q 518 447 567 473 q 483 442 501 447 q 447 431 465 437 q 411 420 429 425 q 375 415 393 415 q 347 405 351 415 q 344 382 344 396 q 341 343 344 358 q 324 304 339 327 q 324 216 324 255 q 311 142 324 177 q 308 119 311 130 q 304 100 305 109 q 303 81 303 91 q 311 59 303 72 q 300 27 311 48 q 279 -4 290 7 q 237 3 255 -4 q 196 12 220 12 q 170 12 183 12 q 145 16 157 12 q 125 31 133 21 q 118 59 118 41 m 713 963 q 682 987 702 977 q 647 997 662 997 q 649 983 647 985 q 666 981 651 981 q 690 959 677 967 q 713 963 702 951 m 634 963 q 598 1001 620 988 q 552 1014 575 1014 q 634 963 582 963 m 616 930 q 560 940 591 930 q 505 950 529 950 l 422 950 q 374 932 399 934 q 325 930 349 930 q 305 923 312 925 q 293 916 298 920 q 280 909 287 913 q 261 898 273 904 q 246 896 250 898 q 228 884 243 895 l 228 820 q 221 724 228 772 q 215 628 215 676 q 213 585 215 602 q 195 544 211 567 q 195 494 195 518 q 182 446 195 470 l 182 382 l 182 336 q 172 323 175 329 q 166 313 169 318 q 164 304 164 308 q 148 214 153 255 q 132 124 144 173 q 140 101 132 113 q 149 79 149 88 q 133 69 136 79 q 132 59 130 63 q 140 43 132 46 q 161 38 149 39 q 188 35 173 36 q 216 27 202 34 q 228 23 220 27 q 243 15 236 19 q 255 13 250 12 q 261 27 261 15 q 278 75 274 50 q 293 124 281 99 q 302 208 293 162 q 311 304 311 255 q 317 327 317 316 q 317 349 317 338 q 318 368 317 359 q 325 382 319 376 q 327 408 325 396 q 345 432 329 419 q 355 437 345 442 q 390 432 365 432 q 480 460 438 442 q 571 479 522 479 q 610 476 587 473 q 656 487 633 479 q 698 506 679 495 q 730 530 718 517 q 754 566 741 553 q 778 594 766 580 q 786 626 778 605 q 794 673 794 648 q 806 721 800 696 q 813 768 813 745 q 810 816 813 792 q 795 866 807 841 q 785 891 795 879 q 764 917 775 902 q 737 928 748 927 q 713 930 726 930 l 616 930 m 538 1013 q 510 1005 525 1005 q 480 1007 496 1005 q 449 1011 464 1009 q 422 1014 435 1014 q 481 970 446 976 q 552 964 517 964 q 545 989 552 977 q 538 1013 538 1001 m 375 997 q 327 1003 351 1009 q 279 997 303 997 q 308 969 291 978 q 344 956 325 960 q 384 955 364 953 q 422 963 404 957 q 399 987 411 977 q 375 997 386 997 m 99 673 q 125 666 111 673 q 154 653 140 659 q 179 647 168 647 q 196 658 190 647 l 196 737 q 172 752 184 750 q 149 755 159 755 q 128 773 137 760 q 115 796 119 785 q 115 810 112 806 q 132 801 119 813 q 156 781 144 791 q 182 771 168 771 q 201 769 195 765 q 211 783 208 773 q 214 808 214 794 q 214 834 214 821 q 210 859 214 848 q 182 884 207 870 q 166 892 175 889 q 150 898 158 895 q 137 906 143 902 q 132 917 132 910 q 128 931 119 934 q 154 918 137 928 q 189 895 170 907 q 216 884 208 884 q 226 905 216 896 q 249 921 236 914 q 274 935 262 928 q 293 950 287 942 q 287 958 293 955 q 274 964 281 961 q 260 971 267 967 q 247 982 252 974 q 189 973 224 982 q 132 964 155 964 q 110 892 121 929 q 99 820 99 855 l 99 755 l 99 673 m 99 658 q 86 610 86 634 q 86 562 86 585 q 108 551 96 562 q 132 530 120 541 q 156 528 144 530 q 182 510 168 525 q 189 576 182 549 q 196 628 196 602 q 165 630 177 628 q 142 636 153 632 q 121 645 132 640 q 99 658 111 651 m 84 530 q 70 487 70 515 q 70 446 70 460 q 89 431 80 435 q 99 415 99 427 q 125 408 113 415 q 148 401 136 401 q 157 413 154 401 q 162 442 161 425 q 164 475 164 459 q 164 498 164 491 q 142 502 151 498 q 125 514 133 507 q 106 525 116 520 q 84 530 97 530 m 132 318 q 124 302 132 305 q 106 300 116 298 q 85 307 96 302 q 68 318 74 312 q 57 263 57 293 q 68 220 57 234 q 84 200 80 211 q 98 189 87 189 l 132 189 l 132 238 q 140 288 132 263 q 149 336 149 312 q 157 370 159 359 q 132 382 155 382 q 100 391 120 382 q 68 401 80 401 q 62 375 57 386 q 68 351 68 363 q 76 334 68 338 q 95 329 84 330 q 116 326 105 327 q 132 318 126 325 m 53 189 q 57 133 53 163 q 84 79 61 102 q 95 71 90 72 q 106 73 101 70 q 114 81 111 76 q 118 91 118 87 q 123 137 118 116 q 118 176 129 159 q 83 176 103 176 q 53 189 64 176 m 472 737 q 498 743 483 737 q 538 737 513 750 q 556 718 554 731 q 552 688 558 705 q 535 655 546 672 q 518 628 525 638 q 507 611 518 620 q 484 596 497 602 q 458 588 471 589 q 441 594 446 587 l 441 608 q 450 618 450 608 q 441 628 450 628 q 442 664 441 651 q 454 691 443 677 q 456 719 454 702 q 472 737 458 737 m 538 691 q 533 713 538 702 q 506 723 529 723 q 496 720 500 723 q 488 705 488 715 q 474 700 476 705 q 472 673 472 696 q 467 643 467 655 q 470 626 467 631 q 488 628 474 620 q 511 647 501 628 q 538 691 522 666 "},"#":{"x_min":35,"x_max":881.734375,"ha":916,"o":"m 664 204 q 651 164 657 187 q 655 123 644 141 q 654 68 661 90 q 620 23 646 47 q 602 5 612 7 q 574 3 591 3 q 537 3 557 3 q 508 11 517 3 l 462 11 q 458 25 458 15 q 458 46 458 36 q 460 66 458 57 q 462 79 462 75 q 453 112 455 96 q 452 147 452 129 q 460 180 459 164 q 462 214 462 197 q 456 226 462 222 q 443 230 450 229 q 429 229 436 231 q 416 228 421 228 q 411 202 416 216 q 406 181 406 189 l 406 114 q 399 107 401 111 q 394 92 394 98 q 394 81 394 87 q 392 71 394 75 q 389 65 390 66 q 384 70 387 64 q 367 62 375 70 q 351 45 358 54 q 337 25 343 35 q 326 11 331 15 l 212 11 q 199 25 196 11 q 203 55 203 39 q 208 90 203 73 q 213 123 213 107 q 219 158 213 141 q 225 191 225 175 q 223 207 225 201 q 213 213 222 213 q 196 220 205 213 q 181 228 188 228 q 129 233 153 235 q 78 238 104 231 q 58 254 71 247 q 45 272 45 262 q 35 277 35 272 q 45 282 35 282 l 45 318 l 45 363 q 50 395 45 379 q 55 418 55 411 q 75 439 66 428 q 101 441 83 450 q 124 447 110 441 q 144 453 137 453 q 175 447 163 453 q 203 441 186 441 q 237 452 219 452 q 271 452 255 452 l 294 452 q 295 469 294 459 q 303 485 296 478 l 303 521 q 316 537 313 528 q 303 553 320 546 q 270 554 286 553 q 235 567 253 555 q 200 581 218 573 q 159 589 182 589 q 117 594 140 589 q 78 599 95 599 q 59 600 71 599 q 55 611 47 601 l 55 643 l 55 711 q 71 743 64 737 q 101 757 77 750 q 113 763 110 757 q 123 769 116 769 q 150 777 139 776 q 168 779 161 779 l 258 779 q 297 777 275 779 q 326 792 318 775 q 327 814 326 798 q 339 847 328 829 q 343 891 339 874 q 348 927 348 909 q 355 966 359 944 q 362 1006 351 987 q 369 1013 368 1006 q 371 1028 371 1020 l 406 1028 q 441 1034 424 1028 q 474 1040 458 1040 q 484 1043 481 1040 q 498 1040 486 1047 q 503 1027 498 1030 q 508 1018 508 1025 q 532 1002 517 1002 q 564 996 547 1002 q 558 982 564 984 q 552 972 552 979 l 552 937 q 550 909 552 919 q 542 882 549 898 q 531 858 532 872 q 530 838 530 845 q 535 825 530 828 q 542 824 538 824 q 561 832 558 824 q 564 847 564 840 q 573 880 571 864 q 575 913 575 897 q 575 953 575 931 q 588 982 575 975 q 592 998 592 987 q 594 1020 592 1010 q 601 1037 596 1030 q 620 1040 606 1044 q 645 1034 630 1030 q 678 1039 660 1039 q 705 1039 685 1039 q 732 1028 725 1039 q 751 1000 742 1011 q 778 972 760 990 q 782 961 782 968 q 778 947 781 954 q 772 931 775 940 q 769 913 769 922 q 772 882 775 897 q 769 860 769 867 l 769 790 q 786 781 769 781 q 813 781 803 781 q 828 773 819 781 q 835 769 832 771 q 852 758 842 759 q 869 757 862 757 q 873 745 873 752 q 873 729 874 737 q 871 713 873 721 q 869 701 869 705 q 875 668 869 684 q 881 633 881 651 q 875 616 881 623 q 869 599 869 608 q 862 595 869 591 q 845 599 856 599 l 778 599 q 763 603 771 599 q 754 599 754 608 q 749 583 754 591 q 745 567 745 574 q 743 540 745 555 q 732 508 742 525 q 731 480 732 490 q 723 453 729 471 q 724 433 723 436 q 732 431 725 431 q 750 429 742 431 q 769 418 757 428 q 800 412 785 418 q 822 395 815 406 q 834 390 831 395 q 836 377 836 385 q 831 362 835 370 q 822 350 827 354 q 826 317 822 337 q 830 275 830 296 q 827 237 830 254 q 813 214 824 219 q 761 217 786 207 q 710 228 736 228 q 694 226 703 228 q 678 213 685 225 q 665 212 666 213 q 664 204 664 211 m 745 982 q 746 978 745 979 q 754 982 747 975 l 745 982 m 710 1006 q 689 1020 703 1015 q 664 1018 675 1024 q 683 1006 675 1008 q 701 996 691 1003 q 713 979 701 984 q 732 982 726 975 q 726 996 732 993 q 710 1006 720 999 m 655 1028 q 627 1017 638 1028 q 610 1006 616 1006 l 610 996 q 626 999 616 1003 q 642 996 635 996 q 678 996 658 976 q 656 1003 666 996 q 655 1028 645 1011 m 610 996 q 599 970 600 984 q 598 950 598 956 q 620 940 607 950 q 633 937 633 930 q 634 954 633 947 q 642 972 635 962 q 626 982 635 979 q 610 996 616 984 m 598 937 q 596 914 598 930 q 588 882 595 898 q 603 876 595 882 q 619 870 612 870 l 619 914 q 608 927 619 925 q 598 937 598 930 m 587 824 l 597 824 q 617 832 614 824 q 620 847 620 840 q 600 862 613 857 q 587 860 587 867 l 587 824 m 474 1028 q 470 1017 464 1028 q 484 1006 477 1006 l 498 1006 q 494 1016 498 1010 q 486 1026 490 1022 q 477 1031 481 1030 q 474 1028 474 1032 m 371 996 q 373 962 371 977 q 394 937 376 947 q 408 966 403 947 q 406 996 412 984 q 398 999 401 996 q 396 1005 396 1003 q 398 1009 396 1008 q 406 1006 401 1010 q 434 999 413 999 q 462 1006 455 999 q 449 1020 462 1022 q 429 1018 436 1018 q 396 1018 411 1018 q 371 996 381 1018 m 371 937 q 365 896 364 912 q 384 870 366 879 q 388 908 388 886 q 371 937 388 930 m 349 838 q 365 831 365 838 q 371 824 364 824 q 382 842 381 835 q 384 860 384 850 q 366 865 373 860 q 349 870 359 870 l 349 838 m 349 824 q 344 796 349 807 q 339 769 339 786 q 354 766 346 760 q 362 779 362 772 q 363 792 365 787 q 358 801 361 797 q 352 810 356 805 q 349 824 349 815 m 113 748 q 78 726 86 748 q 78 689 71 705 q 94 690 88 689 q 101 701 101 691 q 105 711 104 705 q 106 723 106 717 q 107 736 106 729 q 113 748 108 742 m 78 611 q 85 625 78 617 q 101 634 93 634 l 101 679 q 84 668 93 679 q 69 657 75 657 q 67 645 69 651 q 65 632 65 639 q 67 620 65 626 q 78 611 70 615 m 169 611 q 174 615 169 615 q 186 615 179 615 q 197 615 192 615 q 203 620 203 616 q 174 623 190 620 q 142 628 157 626 q 113 626 127 629 q 90 611 99 623 q 111 607 99 611 q 134 601 123 604 q 155 601 146 599 q 169 611 164 602 m 203 599 q 224 587 215 594 q 242 578 233 581 q 259 579 250 575 q 281 599 268 582 q 291 602 285 599 q 300 610 297 605 q 302 617 303 614 q 293 621 302 621 l 226 621 q 209 611 215 613 q 203 599 203 608 m 316 567 l 316 599 q 312 604 316 607 q 303 594 309 601 q 291 579 297 588 q 281 567 285 571 l 316 567 m 113 431 q 82 420 96 431 q 69 385 69 410 q 86 390 75 385 q 113 395 96 395 q 116 413 113 406 q 113 431 120 420 m 90 259 q 94 272 98 269 q 90 282 90 275 q 94 299 90 292 q 90 318 98 306 q 73 305 80 306 q 55 304 66 304 q 56 288 55 297 q 69 272 58 280 q 75 257 69 262 q 90 259 81 252 m 101 340 q 105 361 101 347 q 101 385 110 375 q 84 374 93 375 q 69 373 75 373 q 67 358 69 364 q 63 346 65 351 q 62 337 62 342 q 69 328 63 332 q 88 329 75 328 q 101 340 101 330 m 180 239 q 193 240 185 239 q 211 247 201 242 q 228 258 221 252 q 235 272 235 264 q 197 280 218 280 q 159 272 175 280 q 130 261 140 272 q 113 250 120 250 q 142 239 119 239 q 180 239 164 239 m 213 238 q 228 228 222 231 q 235 214 235 225 q 250 219 243 214 q 261 232 257 225 q 263 247 264 240 q 259 259 263 255 q 250 263 252 269 q 249 250 249 256 q 230 248 237 250 q 213 238 222 247 m 226 101 q 244 111 239 97 q 249 143 249 125 q 249 192 249 164 q 235 179 240 192 q 228 151 230 166 q 226 121 226 136 q 226 101 226 105 m 235 34 q 249 37 243 34 q 259 45 255 40 q 267 57 263 51 q 281 70 272 64 q 266 73 272 70 q 254 79 260 76 q 241 82 248 81 q 226 79 234 83 q 224 61 226 71 q 221 43 222 51 q 223 33 220 36 q 235 34 226 29 m 281 23 q 317 31 307 23 q 339 55 327 38 q 314 60 327 66 q 294 47 300 54 q 281 44 289 47 q 269 39 274 42 q 267 31 265 35 q 281 23 268 27 m 474 92 q 482 95 478 92 q 490 101 486 98 q 499 105 495 104 q 508 101 503 105 q 515 153 508 129 q 530 204 522 177 q 504 198 513 204 q 484 192 495 192 q 478 184 481 189 q 474 170 474 178 q 484 175 481 170 q 498 181 486 181 q 505 169 505 172 q 498 160 505 166 q 489 158 493 160 q 474 147 479 155 l 474 92 m 508 214 q 501 226 508 225 q 484 228 495 228 l 484 214 l 508 214 m 484 34 q 506 36 495 34 q 508 55 517 39 q 505 65 503 61 q 508 73 506 70 q 511 82 510 77 q 508 92 512 87 q 491 85 500 92 q 474 79 481 79 q 475 53 474 61 q 484 34 476 44 m 552 11 q 567 34 561 20 q 574 55 574 48 q 541 48 557 55 q 508 23 524 41 q 534 12 524 13 q 552 11 545 11 m 588 24 q 614 38 604 24 q 633 70 623 53 q 611 68 620 74 q 597 54 602 63 q 590 37 592 46 q 588 24 588 28 m 642 160 q 648 193 642 176 q 655 228 655 209 q 676 236 661 235 q 701 238 691 238 q 733 242 717 247 q 768 238 750 238 l 800 238 q 811 239 810 238 q 813 250 813 240 l 813 318 q 815 340 813 330 q 820 360 818 350 q 822 378 822 369 q 813 395 821 386 q 797 401 804 400 q 784 401 791 401 q 771 402 778 401 q 754 409 763 403 l 745 409 l 710 409 q 702 427 702 413 q 707 458 702 442 q 718 490 713 475 q 723 508 723 504 q 727 541 723 525 q 732 577 732 558 q 737 611 732 602 q 768 621 741 621 q 795 619 785 621 q 822 611 806 617 q 849 613 839 611 q 859 634 859 616 q 862 661 866 651 q 859 689 859 672 l 859 724 q 856 746 859 742 q 835 757 853 750 q 810 768 825 766 q 778 769 795 769 q 754 773 760 769 q 755 801 747 777 l 755 870 l 755 937 q 760 953 755 947 q 754 960 766 960 q 745 964 747 969 q 732 960 742 960 q 699 970 716 969 q 664 972 682 972 q 656 966 660 972 q 649 953 653 960 q 644 938 646 945 q 642 927 642 931 q 637 893 642 909 q 633 860 633 876 q 631 835 633 850 q 620 814 630 821 q 614 809 620 809 q 600 809 608 808 q 582 811 592 809 q 564 814 572 814 q 539 815 554 814 q 508 824 524 816 q 514 850 508 835 q 520 882 520 865 q 529 904 527 888 q 542 937 532 919 l 542 982 q 525 987 532 982 q 508 982 517 993 q 503 972 508 974 q 494 973 499 971 q 484 978 489 975 q 474 982 478 982 q 439 982 456 1002 q 434 974 432 975 q 429 973 436 973 q 420 958 424 973 q 412 925 415 943 q 407 890 408 907 q 406 870 406 874 q 390 819 396 846 q 384 769 384 793 q 371 755 373 759 q 362 757 368 750 q 338 753 351 757 q 326 757 326 750 q 305 763 317 760 q 282 766 294 765 q 262 768 271 768 q 249 768 253 768 q 198 768 221 768 q 159 757 175 768 q 134 749 142 757 q 124 731 126 741 q 122 709 122 721 q 122 688 122 697 q 120 669 122 681 q 135 657 119 657 q 142 650 137 652 q 159 643 149 643 q 209 638 182 643 q 271 634 236 634 l 316 634 l 340 634 l 340 599 q 331 549 340 575 q 316 499 323 522 l 316 453 q 303 438 316 436 q 281 441 291 441 q 231 436 257 441 q 181 431 204 431 q 162 436 171 431 q 135 441 153 441 q 129 414 135 423 q 123 395 123 406 q 118 345 123 371 q 113 295 113 319 q 140 285 119 285 q 169 295 161 285 l 181 295 l 213 295 q 247 282 229 285 q 281 272 264 280 q 286 259 291 272 q 281 238 281 247 q 276 228 273 231 q 271 214 278 225 l 271 181 q 263 153 267 170 q 259 122 259 137 q 264 95 259 107 q 281 79 268 83 l 339 79 q 370 81 356 79 q 384 101 384 84 q 389 169 389 136 q 406 238 389 203 q 413 252 406 254 q 439 250 421 250 l 498 250 q 518 237 505 240 q 542 228 532 235 q 545 215 549 228 q 542 192 542 202 q 536 158 542 175 q 530 123 530 141 q 533 107 534 115 q 529 91 532 98 q 523 79 527 84 q 520 70 520 73 q 553 71 536 70 q 588 79 569 72 l 620 79 q 636 85 630 89 q 642 92 642 81 l 642 160 m 484 611 q 514 630 497 628 q 548 628 530 632 q 584 617 565 623 q 620 611 603 611 q 615 542 620 578 q 610 462 610 507 q 603 455 606 459 q 598 441 598 447 q 587 434 590 434 q 574 441 585 434 q 548 437 557 441 q 530 441 539 434 q 502 445 513 441 q 474 441 492 450 q 449 441 457 434 q 452 477 442 449 q 458 505 458 489 q 458 539 458 521 q 461 575 458 557 q 474 611 465 594 q 483 591 482 606 q 483 559 485 576 q 477 527 481 543 q 474 508 474 512 q 472 492 474 501 q 462 477 471 483 q 469 463 462 465 q 484 462 477 462 q 516 460 502 462 q 530 477 530 458 q 534 530 530 500 q 530 589 539 561 q 528 600 530 594 q 520 611 525 611 q 502 606 510 611 q 484 611 495 601 m 588 543 q 596 556 595 543 q 598 577 598 569 q 576 572 590 577 q 552 567 561 567 l 552 531 q 569 532 561 531 q 588 543 576 533 m 552 611 q 548 593 543 598 q 563 588 553 588 q 583 591 572 588 q 598 599 593 594 q 587 603 593 602 q 575 604 582 604 q 562 605 569 604 q 552 611 556 606 m 552 521 q 546 509 547 516 q 546 495 545 501 q 551 485 547 489 q 564 485 556 482 q 584 499 571 494 q 598 521 598 504 l 552 521 m 588 477 q 565 474 573 477 q 553 466 558 471 q 552 453 547 461 q 563 449 556 448 q 578 454 571 450 q 588 465 585 458 q 588 477 592 471 "},"_":{"x_min":33.515625,"x_max":522.625,"ha":557,"o":"m 518 166 q 521 123 524 149 q 518 82 518 98 l 520 66 q 518 50 523 50 q 506 40 518 42 q 484 38 494 38 l 453 38 l 413 38 q 366 38 390 38 q 317 30 342 38 q 236 24 281 24 q 150 19 191 24 q 142 14 147 15 q 133 13 138 13 q 126 12 129 13 q 123 7 123 11 q 106 3 113 0 q 90 7 99 7 l 80 7 q 73 19 80 17 q 59 30 66 22 q 45 40 50 36 q 40 62 40 44 q 35 97 30 77 q 40 134 40 117 q 44 156 40 149 q 56 165 49 163 q 72 170 63 168 q 90 174 81 171 q 101 175 99 174 q 111 186 103 176 q 117 183 111 192 q 131 174 124 174 q 145 172 138 171 q 161 177 153 174 q 177 183 169 179 q 194 186 186 186 q 209 190 202 186 q 225 195 217 195 l 268 195 l 317 195 l 360 195 q 407 199 384 195 q 453 195 430 203 q 484 174 470 195 q 498 166 494 167 q 518 166 502 166 m 476 166 q 413 186 441 197 q 432 155 413 155 q 476 166 452 155 m 393 186 q 375 180 384 177 q 351 174 366 183 q 368 152 351 159 q 401 153 385 146 q 397 170 401 163 q 393 186 393 177 m 330 186 q 299 185 314 186 q 277 174 283 184 q 284 158 277 167 q 309 143 292 150 l 330 143 q 344 139 335 136 q 351 143 348 140 q 339 163 341 150 q 330 186 337 177 m 268 174 q 230 177 252 174 q 194 166 209 181 q 205 158 202 166 q 214 143 207 150 q 235 135 222 136 q 254 133 247 133 q 271 135 265 133 q 277 143 277 136 q 263 159 270 150 q 268 174 257 167 m 186 166 q 157 164 169 166 q 131 153 146 163 q 142 141 131 146 q 163 143 153 136 q 176 140 171 143 q 185 134 181 138 q 194 130 190 131 q 205 134 198 129 q 195 148 205 140 q 186 166 186 156 m 111 166 q 97 163 108 166 q 77 158 87 161 q 61 151 67 154 q 59 143 54 147 q 63 135 59 136 q 68 134 65 134 q 80 122 77 125 q 90 112 82 120 q 111 122 99 120 q 131 134 124 125 q 122 148 124 140 q 111 166 120 156 m 48 62 q 62 48 56 53 q 68 51 68 42 q 62 57 65 53 q 48 70 53 66 l 48 62 m 48 82 q 62 84 54 85 q 78 78 70 82 q 91 69 85 74 q 102 62 98 64 q 88 94 102 84 q 59 112 74 105 q 49 100 50 112 q 48 82 48 89 m 90 51 q 93 36 83 42 q 111 30 104 30 q 100 39 111 36 q 90 51 90 42 m 505 62 l 505 91 q 501 117 505 106 q 497 143 497 128 q 490 138 494 140 q 476 134 483 134 q 483 142 483 140 q 476 143 483 143 q 459 142 467 143 q 444 134 451 140 q 397 136 420 140 q 351 123 374 131 l 268 123 q 221 117 242 114 q 186 112 200 120 l 131 112 l 111 112 l 111 82 q 121 60 120 73 q 123 39 123 47 q 141 27 129 24 q 163 30 153 30 q 205 38 187 38 q 246 38 223 38 l 286 38 q 307 40 295 38 q 330 51 320 42 l 381 51 q 402 55 390 51 q 422 51 414 59 q 433 55 422 57 q 444 51 438 53 q 468 52 459 51 q 484 62 477 53 l 505 62 "},"+":{"x_min":35,"x_max":545.71875,"ha":580,"o":"m 179 392 q 156 392 164 392 q 135 398 148 393 l 81 398 q 74 406 81 405 q 62 407 68 407 q 47 409 50 407 q 45 426 45 411 q 45 478 45 452 q 35 523 45 504 q 37 534 35 530 q 43 542 40 538 q 53 551 47 546 q 62 564 60 558 q 70 570 64 570 q 80 577 78 576 q 89 578 82 578 q 109 582 98 584 q 135 586 121 579 q 156 589 148 586 q 179 586 164 593 q 205 590 192 586 q 232 594 218 594 q 249 594 249 580 l 249 630 q 242 656 242 642 q 242 677 242 669 q 238 704 235 690 q 242 738 242 719 l 242 784 q 242 810 242 798 q 249 837 242 823 q 250 855 249 844 q 260 873 251 866 q 274 876 267 873 q 287 880 281 880 l 303 880 q 326 887 316 887 q 349 873 336 887 l 351 867 q 354 862 353 864 q 356 856 356 859 q 367 847 364 848 q 387 846 371 846 q 383 832 382 838 q 385 822 384 827 q 388 812 387 817 q 387 802 389 807 q 389 783 387 794 q 387 765 391 772 l 387 712 q 382 686 378 698 q 387 658 387 673 l 387 612 q 392 593 387 593 q 411 594 397 594 l 447 594 q 477 603 467 603 q 500 594 486 603 q 514 593 509 594 q 519 586 519 593 q 526 581 525 586 q 528 571 528 576 q 524 549 521 562 q 528 523 528 535 q 534 496 534 509 q 534 467 534 483 q 535 460 534 462 q 545 451 537 458 q 539 435 545 437 q 528 433 534 433 q 475 430 502 433 q 421 433 449 427 q 405 426 407 433 q 403 398 403 419 q 403 370 403 384 q 410 344 403 356 q 410 290 410 316 q 403 235 410 263 q 397 221 403 230 q 387 212 391 212 q 376 189 378 203 q 367 175 374 175 q 355 159 362 163 q 337 155 347 155 q 318 156 327 155 q 303 158 309 158 q 283 158 295 158 q 264 160 272 158 q 248 172 255 163 q 242 192 242 180 q 237 238 242 212 q 232 291 232 263 q 235 338 232 312 q 232 392 239 363 l 179 392 m 242 392 q 245 354 247 368 q 249 326 243 340 q 266 336 264 326 q 269 353 269 346 l 269 380 q 262 393 269 394 q 242 392 255 392 m 260 307 q 258 302 260 305 q 249 291 255 296 l 249 265 q 260 270 255 265 q 264 283 264 276 q 264 297 265 289 q 260 307 262 305 m 260 212 l 260 219 q 261 242 260 231 q 249 247 263 252 q 246 236 243 247 q 249 219 249 226 q 250 206 249 213 q 260 192 251 199 l 260 212 m 260 175 q 274 169 267 162 q 287 181 281 176 q 291 192 287 190 q 303 201 296 194 q 275 199 284 209 q 260 175 266 188 m 321 175 q 331 188 329 180 q 339 212 333 196 l 321 212 q 305 187 315 196 q 295 165 295 177 q 311 166 301 165 q 321 175 321 167 m 339 175 q 348 173 343 168 q 361 188 354 179 q 371 206 367 197 q 376 219 376 216 q 361 215 369 219 q 349 212 354 212 q 346 192 354 203 q 339 175 339 180 m 349 863 q 323 871 336 870 q 295 873 310 873 q 319 849 301 860 q 356 846 337 839 q 349 856 350 854 q 349 863 349 858 m 269 863 q 260 851 261 857 q 260 837 260 844 q 280 819 260 819 q 292 816 285 819 q 295 826 300 813 q 296 835 289 832 q 303 837 299 837 q 289 850 296 844 q 269 863 282 857 m 260 819 q 254 796 260 806 q 249 773 249 787 q 276 763 264 766 q 295 747 288 761 q 275 748 284 740 q 260 757 267 757 q 258 746 260 752 q 255 733 257 740 q 255 723 254 727 q 260 719 255 719 q 277 711 267 713 q 287 703 287 709 q 297 734 299 715 q 295 773 295 754 q 298 792 295 781 q 295 809 301 803 q 277 807 288 803 q 260 819 267 812 m 249 703 q 249 685 249 696 q 251 664 249 675 q 261 647 254 654 q 279 640 267 640 q 286 646 284 640 q 289 660 289 652 q 288 675 289 668 q 287 684 287 682 q 272 697 281 691 q 249 703 264 703 m 286 605 l 286 623 q 274 626 281 623 q 260 630 267 630 q 260 604 260 616 q 269 586 260 593 q 274 578 269 579 q 286 578 280 578 l 286 605 m 101 559 q 96 537 101 552 q 101 523 92 523 q 103 519 107 523 q 101 515 102 516 l 101 487 q 97 473 101 480 q 107 461 93 466 l 153 461 q 201 457 179 453 q 249 461 223 461 q 271 459 257 461 q 286 451 286 458 q 283 429 286 437 q 287 407 281 421 l 287 392 q 280 385 281 392 q 280 372 280 379 q 282 344 285 358 q 280 319 280 331 q 275 291 280 303 q 280 271 271 278 q 275 244 280 258 q 280 219 271 231 q 326 221 305 213 q 376 229 347 229 q 389 238 385 229 q 394 262 393 248 q 394 288 395 276 q 393 307 393 301 q 390 362 393 335 q 387 415 387 389 q 388 433 387 423 q 403 444 390 444 l 447 444 l 500 444 l 519 444 q 527 457 525 449 q 528 478 528 465 q 523 512 528 494 q 519 551 519 530 q 515 568 513 558 q 512 586 517 579 q 492 593 503 593 q 474 586 481 593 l 439 586 q 424 589 430 586 q 411 586 418 593 q 396 584 404 586 q 382 581 389 582 q 371 583 375 580 q 367 594 367 586 q 370 609 374 603 q 367 623 367 615 q 375 642 374 635 q 376 658 376 649 q 369 706 369 686 q 374 747 369 726 q 374 782 374 766 q 367 819 374 798 q 356 830 362 828 q 343 832 350 832 q 328 828 336 831 q 314 826 321 826 q 304 716 314 773 q 295 605 295 659 q 299 586 295 597 q 303 571 303 576 q 286 566 296 562 q 269 570 277 570 q 245 573 253 570 q 224 576 238 576 l 169 576 q 151 576 162 576 q 135 571 140 576 q 111 572 121 571 q 101 559 101 573 m 81 551 q 53 530 59 551 q 53 498 47 510 q 76 520 65 504 q 81 551 87 537 m 62 444 q 82 466 76 449 q 81 498 87 483 q 66 486 72 490 q 53 467 60 483 q 54 456 53 462 q 62 444 55 449 m 101 407 q 120 421 113 407 q 135 444 127 435 q 115 449 127 449 q 89 449 103 449 q 76 437 82 444 q 70 426 70 431 q 85 415 78 417 q 101 407 92 413 m 124 407 q 188 407 148 395 q 215 402 203 407 q 242 398 228 398 q 255 398 247 398 q 269 407 262 399 l 269 426 q 267 443 277 439 q 249 433 257 446 q 247 424 249 430 q 243 414 246 419 q 236 406 240 409 q 224 407 231 404 q 233 429 224 421 q 242 451 242 437 q 227 447 235 451 q 207 444 220 444 q 192 425 199 435 q 179 415 186 415 q 169 411 172 408 q 160 415 167 415 q 177 429 167 423 q 188 444 188 435 l 160 444 q 152 442 154 444 q 142 433 150 441 q 133 424 142 427 q 124 407 124 421 "}}}
